{
.appVersion = "3324";
.formatVersion = 3;
DisplayStrings = (
"KKemie/K.ss01 К/Ka-cy.ss01/ka-cy.ss01",
"K/K.ss01/K.swsh К/Ka-cy.ss01",
"К/Ka-cy.ss01 к/ka-cy.ss01",
fralkken,
"K/K.ss01/K.swsh k/k.ss01",
"/k.ss01",
"ĸ",
"̂/circumflexcomb_hookabovecomb oổ",
"k/k.ss01 К/Ka-cy.ss01 к/ka-cy.ss01"
);
axes = (
{
name = Weight;
tag = wght;
}
);
classes = (
{
automatic = 1;

glyphs = (
{
glyphname = A;
kernLeft = A;
kernRight = A;
layers = (
{
anchors = (
{
name = bottom;
pos = (389,0);
},
{
name = ogonek;
pos = (694,0);
},
{
name = top;
pos = (387,687);
}
);
hints = (
{
name = _corner.caps_diag;
options = 1;
origin = (0,4);
scale = (-1,1);
type = Corner;
}
);
layerId = "0CAF3BED-C4AC-4024-B3E1-4C69D1EF7EC0";
shapes = (
{
closed = 1;
nodes = (
(694,0,l,{
"Letterink-NibData" = {
AngleInDegrees = 336.96218;
};
}),
(406,690,l,{
"Letterink-NibData" = {
AngleInDegrees = 270;
};
}),
(372,690,l,{
"Letterink-NibData" = {
AngleInDegrees = 202.82503;
};
}),
(125,83,l,{
"Letterink-NibData" = {
AngleInDegrees = 202.38014;
};
}),
(197,53,l,{
"Letterink-NibData" = {
AngleInDegrees = 22.71999;
};
}),
(278,253,l,{
"Letterink-NibData" = {
AngleInDegrees = 236.57519;
};
}),
(223,205,l,{
"Letterink-NibData" = {
AngleInDegrees = 90;
};
}),
(555,205,l,{
"Letterink-NibData" = {
AngleInDegrees = 303.42481;
};
}),
(505,253,l,{
"Letterink-NibData" = {
AngleInDegrees = 157.34811;
};
}),
(611,0,l,{
"Letterink-NibData" = {
AngleInDegrees = 90;
};
})
);
},
{
closed = 1;
nodes = (
(387,542,l,{
"Letterink-NibData" = {
AngleInDegrees = 8.1301;
};
}),
(390,565,l,{
"Letterink-NibData" = {
AngleInDegrees = 171.8699;
};
}),
(394,542,l,{
"Letterink-NibData" = {
AngleInDegrees = 159.79358;
};
}),
(499,260,l,{
"Letterink-NibData" = {
AngleInDegrees = 35.21759;
};
}),
(521,279,l,{
"Letterink-NibData" = {
AngleInDegrees = 270;
};
}),
(253,279,l,{
"Letterink-NibData" = {
AngleInDegrees = 145.92281;
};
}),
(281,260,l,{
"Letterink-NibData" = {
AngleInDegrees = 20.73026;
};
})
);
}
);
width = 705;
},
{
anchors = (
{
name = bottom;
pos = (405,0);
},
{
name = ogonek;
pos = (697,0);
},
{
name = top;
pos = (407,684);
}
);
hints = (
{
name = _corner.caps_diag;
options = 1;
origin = (0,4);
scale = (-1,1);
type = Corner;
}
);
layerId = "49C16FD3-6177-408B-A733-AEB3898BB77C";
shapes = (
{
closed = 1;
nodes = (
(697,0,l,{
"Letterink-NibData" = {
AngleInDegrees = 337.30364;
};
}),
(410,692,l,{
"Letterink-NibData" = {
AngleInDegrees = 270;
};
}),
(404,692,l,{
"Letterink-NibData" = {
AngleInDegrees = 202.68401;
};
}),
(143,60,l,{
"Letterink-NibData" = {
AngleInDegrees = 202.61986;
};
}),
(178,45,l,{
"Letterink-NibData" = {
AngleInDegrees = 22.1315;
};
}),
(263,251,l,{
"Letterink-NibData" = {
AngleInDegrees = 235.7843;
};
}),
(234,234,l,{
"Letterink-NibData" = {
AngleInDegrees = 90;
};
}),
(575,234,l,{
"Letterink-NibData" = {
AngleInDegrees = 304.2157;
};
}),
(552,251,l,{
"Letterink-NibData" = {
AngleInDegrees = 157.41269;
};
}),
(656,0,l,{
"Letterink-NibData" = {
AngleInDegrees = 90;
};
})
);
},
{
closed = 1;
nodes = (
(398,584,l,{
"Letterink-NibData" = {
AngleInDegrees = 16.29405;
};
}),
(407,617,l,{
"Letterink-NibData" = {
AngleInDegrees = 163.21735;
};
}),
(416,584,l,{
"Letterink-NibData" = {
AngleInDegrees = 158.19859;
};
}),
(549,257,l,{
"Letterink-NibData" = {
AngleInDegrees = 32.90524;
};
}),
(558,270,l,{
"Letterink-NibData" = {
AngleInDegrees = 270;
};
}),
(249,270,l,{
"Letterink-NibData" = {
AngleInDegrees = 147.09476;
};
}),
(265,257,l,{
"Letterink-NibData" = {
AngleInDegrees = 22.09423;
};
})
);
}
);
width = 722;
},
{
anchors = (
{
name = bottom;
pos = (436,0);
},
{
name = ogonek;
pos = (771,0);
},
{
name = top;
pos = (435,684);
}
);
hints = (
{
name = _corner.caps_diag;
options = 1;
origin = (0,4);
scale = (-1,1);
type = Corner;
}
);
layerId = m004;
shapes = (
{
closed = 1;
nodes = (
(771,0,l,{
"Letterink-NibData" = {
AngleInDegrees = "337.32254";
};
}),
(493,689,l,{
"Letterink-NibData" = {
AngleInDegrees = "270";
};
}),
(382,689,l,{
"Letterink-NibData" = {
AngleInDegrees = "202.53914";
};
}),
(158,140,l,{
"Letterink-NibData" = {
AngleInDegrees = "90";
};
}),
(298,62,l,{
"Letterink-NibData" = {
AngleInDegrees = "22.65189";
};
}),
(378,257,l,{
"Letterink-NibData" = {
AngleInDegrees = "236.57519";
};
}),
(282,141,l,{
"Letterink-NibData" = {
AngleInDegrees = "90";
};
}),
(592,141,l,{
"Letterink-NibData" = {
AngleInDegrees = "303.42481";
};
}),
(491,257,l,{
"Letterink-NibData" = {
AngleInDegrees = "156.96496";
};
}),
(592,0,l,{
"Letterink-NibData" = {
AngleInDegrees = "90";
};
})
);
},
{
closed = 1;
nodes = (
(460,490,l,{
"Letterink-NibData" = {
AngleInDegrees = "19.98311";
};
}),
(436,504,l,{
"Letterink-NibData" = {
AngleInDegrees = "161.56505";
};
}),
(413,490,l,{
"Letterink-NibData" = {
AngleInDegrees = "158.35875";
};
}),
(487,272,l,{
"Letterink-NibData" = {
AngleInDegrees = "34.87533";
};
}),
(530,279,l,{
"Letterink-NibData" = {
AngleInDegrees = "270";
};
}),
(339,279,l,{
"Letterink-NibData" = {
AngleInDegrees = "145.92281";
};
}),
(385,268,l,{
"Letterink-NibData" = {
AngleInDegrees = "21.36191";
};
})
);
}
);
width = 776;
}
);
unicode = 65;
userData = {
position = 666;
width = 20;
};
},
{
glyphname = A.ss01;
kernLeft = Atext;
kernRight = A;
layers = (
{
anchors = (
{
name = bottom;
pos = (321,0);
},
{
name = ogonek;
pos = (632,-1);
},
{
name = top;
pos = (321,690);
}
);
layerId = "0CAF3BED-C4AC-4024-B3E1-4C69D1EF7EC0";
shapes = (
{
closed = 1;
nodes = (
(100,0,l,{
"Letterink-NibData" = {
AngleInDegrees = 22.65189;
};
}),
(205,253,l,{
"Letterink-NibData" = {
AngleInDegrees = 236.57519;
};
}),
(154,210,l,{
"Letterink-NibData" = {
AngleInDegrees = 90;
};
}),
(487,210,l,{
"Letterink-NibData" = {
AngleInDegrees = 303.42481;
};
}),
(437,253,l,{
"Letterink-NibData" = {
AngleInDegrees = 156.96496;
};
}),
(543,0,l,{
"Letterink-NibData" = {
AngleInDegrees = 90;
};
}),
(632,0,l,{
"Letterink-NibData" = {
AngleInDegrees = 337.32254;
};
}),
(337,702,l,{
"Letterink-NibData" = {
AngleInDegrees = 270;
};
}),
(304,702,l,{
"Letterink-NibData" = {
AngleInDegrees = 202.53914;
};
}),
(11,0,l,{
"Letterink-NibData" = {
AngleInDegrees = 90;
};
})
);
},
{
closed = 1;
nodes = (
(310,511,l,{
"Letterink-NibData" = {
AngleInDegrees = 19.98311;
};
}),
(320,548,l,{
"Letterink-NibData" = {
AngleInDegrees = 161.56505;
};
}),
(331,511,l,{
"Letterink-NibData" = {
AngleInDegrees = 158.35875;
};
}),
(430,260,l,{
"Letterink-NibData" = {
AngleInDegrees = 34.87533;
};
}),
(455,284,l,{
"Letterink-NibData" = {
AngleInDegrees = 270;
};
}),
(185,284,l,{
"Letterink-NibData" = {
AngleInDegrees = 145.92281;
};
}),
(210,260,l,{
"Letterink-NibData" = {
AngleInDegrees = 21.36191;
};
})
);
}
);
width = 643;
},
{
anchors = (
{
name = bottom;
pos = (326,-2);
},
{
name = ogonek;
pos = (628,0);
},
{
name = top;
pos = (325,684);
}
);
layerId = "49C16FD3-6177-408B-A733-AEB3898BB77C";
shapes = (
{
closed = 1;
nodes = (
(66,0,l,{
"Letterink-NibData" = {
AngleInDegrees = 22.78241;
};
}),
(170,251,l,{
"Letterink-NibData" = {
AngleInDegrees = 235.7843;
};
}),
(149,236,l,{
"Letterink-NibData" = {
AngleInDegrees = 90;
};
}),
(502,236,l,{
"Letterink-NibData" = {
AngleInDegrees = 304.2157;
};
}),
(481,251,l,{
"Letterink-NibData" = {
AngleInDegrees = 157.02305;
};
}),
(587,0,l,{
"Letterink-NibData" = {
AngleInDegrees = 90;
};
}),
(628,0,l,{
"Letterink-NibData" = {
AngleInDegrees = 336.95898;
};
}),
(330,699,l,{
"Letterink-NibData" = {
AngleInDegrees = 270;
};
}),
(321,699,l,{
"Letterink-NibData" = {
AngleInDegrees = 202.90284;
};
}),
(25,0,l,{
"Letterink-NibData" = {
AngleInDegrees = 90;
};
})
);
},
{
closed = 1;
nodes = (
(312,585,l,{
"Letterink-NibData" = {
AngleInDegrees = 22.61986;
};
}),
(326,627,l,{
"Letterink-NibData" = {
AngleInDegrees = 160.34617;
};
}),
(339,587,l,{
"Letterink-NibData" = {
AngleInDegrees = 157.39526;
};
}),
(478,257,l,{
"Letterink-NibData" = {
AngleInDegrees = 32.90524;
};
}),
(488,272,l,{
"Letterink-NibData" = {
AngleInDegrees = 270;
};
}),
(163,272,l,{
"Letterink-NibData" = {
AngleInDegrees = 147.09476;
};
}),
(173,257,l,{
"Letterink-NibData" = {
AngleInDegrees = 22.96683;
};
})
);
}
);
width = 653;
},
{
anchors = (
{
name = bottom;
pos = (346,0);
},
{
name = ogonek;
pos = (686,0);
},
{
name = top;
pos = (345,694);
}
);
layerId = m004;
shapes = (
{
closed = 1;
nodes = (
(186,0,l,{
"Letterink-NibData" = {
AngleInDegrees = 22.65189;
};
}),
(291,257,l,{
"Letterink-NibData" = {
AngleInDegrees = 236.57519;
};
}),
(190,136,l,{
"Letterink-NibData" = {
AngleInDegrees = 90;
};
}),
(500,136,l,{
"Letterink-NibData" = {
AngleInDegrees = 303.42481;
};
}),
(399,257,l,{
"Letterink-NibData" = {
AngleInDegrees = 156.96496;
};
}),
(507,0,l,{
"Letterink-NibData" = {
AngleInDegrees = 90;
};
}),
(686,0,l,{
"Letterink-NibData" = {
AngleInDegrees = 337.32254;
};
}),
(392,694,l,{
"Letterink-NibData" = {
AngleInDegrees = 270;
};
}),
(306,694,l,{
"Letterink-NibData" = {
AngleInDegrees = 202.53914;
};
}),
(5,0,l,{
"Letterink-NibData" = {
AngleInDegrees = 90;
};
})
);
},
{
closed = 1;
nodes = (
(358,475,l,{
"Letterink-NibData" = {
AngleInDegrees = 19.98311;
};
}),
(344,484,l,{
"Letterink-NibData" = {
AngleInDegrees = 161.56505;
};
}),
(326,475,l,{
"Letterink-NibData" = {
AngleInDegrees = 158.35875;
};
}),
(392,272,l,{
"Letterink-NibData" = {
AngleInDegrees = 34.87533;
};
}),
(438,274,l,{
"Letterink-NibData" = {
AngleInDegrees = 270;
};
}),
(247,274,l,{
"Letterink-NibData" = {
AngleInDegrees = 145.92281;
};
}),
(297,268,l,{
"Letterink-NibData" = {
AngleInDegrees = 21.36191;
};
})
);
}
);
width = 691;
}
);
metricLeft = "=|A";
metricRight = A;
userData = {
position = 10;
width = 615;
};
},
{
glyphname = A.swsh;
kernLeft = A.swsh;
kernRight = A;
layers = (
{
anchors = (
{
name = bottom;
pos = (439,0);
},
{
name = ogonek;
pos = (748,0);
},
{
name = top;
pos = (437,684);
}
);
hints = (
{
name = _corner.caps_swash_diag;
options = 1;
origin = (0,4);
scale = (-1,1);
type = Corner;
},
{
name = _corner.caps_swash.big;
origin = (2,2);
type = Corner;
}
);
layerId = "0CAF3BED-C4AC-4024-B3E1-4C69D1EF7EC0";
shapes = (
{
closed = 1;
nodes = (
(748,0,l,{
"Letterink-NibData" = {
AngleInDegrees = "336.96218";
};
}),
(462,684,l,{
"Letterink-NibData" = {
AngleInDegrees = "270";
};
}),
(415,684,l,{
"Letterink-NibData" = {
AngleInDegrees = "202.82503";
};
}),
(166,84,l,{
"Letterink-NibData" = {
AngleInDegrees = "202.38014";
};
}),
(242,53,l,{
"Letterink-NibData" = {
AngleInDegrees = "22.71999";
};
}),
(323,253,l,{
"Letterink-NibData" = {
AngleInDegrees = "236.57519";
};
}),
(273,210,l,{
"Letterink-NibData" = {
AngleInDegrees = "90";
};
}),
(605,210,l,{
"Letterink-NibData" = {
AngleInDegrees = "303.42481";
};
}),
(555,253,l,{
"Letterink-NibData" = {
AngleInDegrees = "157.34811";
};
}),
(659,0,l,{
"Letterink-NibData" = {
AngleInDegrees = "90";
};
})
);
},
{
closed = 1;
nodes = (
(432,541,l,{
"Letterink-NibData" = {
AngleInDegrees = 8.1301;
};
}),
(438,571,l,{
"Letterink-NibData" = {
AngleInDegrees = "171.8699";
};
}),
(445,541,l,{
"Letterink-NibData" = {
AngleInDegrees = "159.79358";
};
}),
(549,260,l,{
"Letterink-NibData" = {
AngleInDegrees = "35.21759";
};
}),
(571,284,l,{
"Letterink-NibData" = {
AngleInDegrees = "270";
};
}),
(303,284,l,{
"Letterink-NibData" = {
AngleInDegrees = "145.92281";
};
}),
(326,260,l,{
"Letterink-NibData" = {
AngleInDegrees = "20.73026";
};
})
);
},
{
closed = 1;
nodes = (
(449,608,l),
(449,684,l,{
"Letterink-NibData" = {
AngleInDegrees = "270";
};
}),
(296,684,l,{
"Letterink-NibData" = {
AngleInDegrees = "180";
};
}),
(296,608,l,{
"Letterink-NibData" = {
AngleInDegrees = "90";
};
})
);
}
);
width = 759;
},
{
anchors = (
{
name = bottom;
pos = (448,0);
},
{
name = ogonek;
pos = (740,1);
},
{
name = top;
pos = (449,684);
}
);
hints = (
{
name = _corner.caps_swash_diag;
options = 1;
origin = (0,4);
scale = (-1,1);
type = Corner;
},
{
name = _corner.caps_swash.big;
origin = (2,2);
type = Corner;
}
);
layerId = "49C16FD3-6177-408B-A733-AEB3898BB77C";
shapes = (
{
closed = 1;
nodes = (
(740,0,l,{
"Letterink-NibData" = {
AngleInDegrees = "337.30364";
};
}),
(453,684,l,{
"Letterink-NibData" = {
AngleInDegrees = "270";
};
}),
(444,684,l,{
"Letterink-NibData" = {
AngleInDegrees = "202.68401";
};
}),
(182,70,l,{
"Letterink-NibData" = {
AngleInDegrees = "202.61986";
};
}),
(217,54,l,{
"Letterink-NibData" = {
AngleInDegrees = "22.1315";
};
}),
(299,251,l,{
"Letterink-NibData" = {
AngleInDegrees = "235.7843";
};
}),
(277,234,l,{
"Letterink-NibData" = {
AngleInDegrees = "90";
};
}),
(618,234,l,{
"Letterink-NibData" = {
AngleInDegrees = "304.2157";
};
}),
(596,251,l,{
"Letterink-NibData" = {
AngleInDegrees = "157.41269";
};
}),
(699,0,l,{
"Letterink-NibData" = {
AngleInDegrees = "90";
};
})
);
},
{
closed = 1;
nodes = (
(435,576,l,{
"Letterink-NibData" = {
AngleInDegrees = "16.29405";
};
}),
(448,619,l,{
"Letterink-NibData" = {
AngleInDegrees = "163.21735";
};
}),
(462,576,l,{
"Letterink-NibData" = {
AngleInDegrees = "158.19859";
};
}),
(592,257,l,{
"Letterink-NibData" = {
AngleInDegrees = "32.90524";
};
}),
(601,270,l,{
"Letterink-NibData" = {
AngleInDegrees = "270";
};
}),
(292,270,l,{
"Letterink-NibData" = {
AngleInDegrees = "147.09476";
};
}),
(302,257,l,{
"Letterink-NibData" = {
AngleInDegrees = "22.09423";
};
})
);
},
{
closed = 1;
nodes = (
(447,648,l),
(447,684,l,{
"Letterink-NibData" = {
AngleInDegrees = "270";
};
}),
(304,684,l,{
"Letterink-NibData" = {
AngleInDegrees = "180";
};
}),
(304,648,l,{
"Letterink-NibData" = {
AngleInDegrees = "90";
};
})
);
}
);
width = 765;
},
{
anchors = (
{
name = bottom;
pos = (516,0);
},
{
name = ogonek;
pos = (858,0);
},
{
name = top;
pos = (515,694);
}
);
hints = (
{
name = _corner.caps_swash_diag;
options = 1;
origin = (0,4);
scale = (-1,1);
type = Corner;
},
{
name = _corner.caps_swash.big;
origin = (2,2);
type = Corner;
}
);
layerId = m004;
shapes = (
{
closed = 1;
nodes = (
(858,0,l,{
"Letterink-NibData" = {
AngleInDegrees = "337.32254";
};
}),
(590,684,l,{
"Letterink-NibData" = {
AngleInDegrees = "270";
};
}),
(444,684,l,{
"Letterink-NibData" = {
AngleInDegrees = "202.53914";
};
}),
(225,142,l,{
"Letterink-NibData" = {
AngleInDegrees = "90";
};
}),
(371,66,l,{
"Letterink-NibData" = {
AngleInDegrees = "22.65189";
};
}),
(454,257,l,{
"Letterink-NibData" = {
AngleInDegrees = "236.57519";
};
}),
(362,146,l,{
"Letterink-NibData" = {
AngleInDegrees = "90";
};
}),
(672,146,l,{
"Letterink-NibData" = {
AngleInDegrees = "303.42481";
};
}),
(575,257,l,{
"Letterink-NibData" = {
AngleInDegrees = "156.96496";
};
}),
(683,0,l,{
"Letterink-NibData" = {
AngleInDegrees = "90";
};
})
);
},
{
closed = 1;
nodes = (
(528,480,l,{
"Letterink-NibData" = {
AngleInDegrees = "19.98311";
};
}),
(516,484,l,{
"Letterink-NibData" = {
AngleInDegrees = "161.56505";
};
}),
(503,480,l,{
"Letterink-NibData" = {
AngleInDegrees = "158.35875";
};
}),
(570,272,l,{
"Letterink-NibData" = {
AngleInDegrees = "34.87533";
};
}),
(610,284,l,{
"Letterink-NibData" = {
AngleInDegrees = "270";
};
}),
(419,284,l,{
"Letterink-NibData" = {
AngleInDegrees = "145.92281";
};
}),
(457,274,l,{
"Letterink-NibData" = {
AngleInDegrees = "21.36191";
};
})
);
},
{
closed = 1;
nodes = (
(552,536,l),
(552,684,l,{
"Letterink-NibData" = {
AngleInDegrees = "270";
};
}),
(330,684,l,{
"Letterink-NibData" = {
AngleInDegrees = "180";
};
}),
(330,535,l)
);
}
);
width = 863;
}
);
metricRight = A;
userData = {
position = 666;
width = 20;
};
},
{
glyphname = AE;
kernLeft = A;
kernRight = E;
layers = (
{
anchors = (
{
name = bottom;
pos = (529,0);
},
{
name = top;
pos = (540,673);
}
);
hints = (
{
name = _corner.caps_diag;
options = 1;
origin = (0,12);
scale = (-1,1);
type = Corner;
}
);
layerId = "0CAF3BED-C4AC-4024-B3E1-4C69D1EF7EC0";
shapes = (
{
closed = 1;
nodes = (
(906,-1,l),
(906,75,l,{
"Letterink-NibData" = {
AngleInDegrees = 270;
};
}),
(551,75,l),
(551,325,l,{
"Letterink-NibData" = {
AngleInDegrees = 90;
};
}),
(788,325,l),
(788,401,l,{
"Letterink-NibData" = {
AngleInDegrees = 270;
};
}),
(551,401,l),
(551,610,l,{
"Letterink-NibData" = {
AngleInDegrees = 90;
};
}),
(886,610,l),
(886,686,l,{
"Letterink-NibData" = {
AngleInDegrees = 270;
};
}),
(442,686,l,{
"Letterink-NibData" = {
AngleInDegrees = 208.5766;
};
}),
(133,81,l,{
"Letterink-NibData" = {
AngleInDegrees = 209.0546;
};
}),
(198,37,l,{
"Letterink-NibData" = {
AngleInDegrees = 26.8249;
};
}),
(307,252,l,{
"Letterink-NibData" = {
AngleInDegrees = 90;
};
}),
(246,210,l,{
"Letterink-NibData" = {
AngleInDegrees = 90;
};
}),
(505,210,l,{
"Letterink-NibData" = {
AngleInDegrees = 180;
};
}),
(469,256,l,{
"Letterink-NibData" = {
AngleInDegrees = 180;
};
}),
(469,-1,l,{
"Letterink-NibData" = {
AngleInDegrees = 90;
};
})
);
},
{
closed = 1;
nodes = (
(505,286,l,{
"Letterink-NibData" = {
AngleInDegrees = 270;
};
}),
(290,286,l,{
"Letterink-NibData" = {
AngleInDegrees = 28.71031;
};
}),
(311,264,l,{
"Letterink-NibData" = {
AngleInDegrees = 28.71031;
};
}),
(451,537,l,{
"Letterink-NibData" = {
AngleInDegrees = 23.19859;
};
}),
(469,586,l,{
"Letterink-NibData" = {
AngleInDegrees = 180;
};
}),
(469,260,l,{
"Letterink-NibData" = {
AngleInDegrees = 270;
};
})
);
}
);
width = 928;
},
{
anchors = (
{
name = bottom;
pos = (554,0);
},
{
name = top;
pos = (596,684);
}
);
hints = (
{
name = _corner.caps_diag;
options = 1;
origin = (0,12);
scale = (-1,1);
type = Corner;
}
);
layerId = "49C16FD3-6177-408B-A733-AEB3898BB77C";
shapes = (
{
closed = 1;
nodes = (
(927,1,l),
(927,37,l,{
"Letterink-NibData" = {
AngleInDegrees = 270;
};
}),
(548,37,l),
(548,346,l,{
"Letterink-NibData" = {
AngleInDegrees = 90;
};
}),
(803,346,l),
(803,382,l,{
"Letterink-NibData" = {
AngleInDegrees = 270;
};
}),
(548,382,l),
(548,649,l,{
"Letterink-NibData" = {
AngleInDegrees = 90;
};
}),
(907,649,l),
(907,685,l,{
"Letterink-NibData" = {
AngleInDegrees = 270;
};
}),
(485,685,l,{
"Letterink-NibData" = {
AngleInDegrees = 208.82166;
};
}),
(146,62,l,{
"Letterink-NibData" = {
AngleInDegrees = 213.69007;
};
}),
(179,44,l,{
"Letterink-NibData" = {
AngleInDegrees = 29.29136;
};
}),
(285,249,l,{
"Letterink-NibData" = {
AngleInDegrees = 90;
};
}),
(262,237,l,{
"Letterink-NibData" = {
AngleInDegrees = 90;
};
}),
(526,237,l,{
"Letterink-NibData" = {
AngleInDegrees = 180;
};
}),
(510,253,l,{
"Letterink-NibData" = {
AngleInDegrees = 180;
};
}),
(510,1,l,{
"Letterink-NibData" = {
AngleInDegrees = 90;
};
})
);
},
{
closed = 1;
nodes = (
(526,273,l,{
"Letterink-NibData" = {
AngleInDegrees = 270;
};
}),
(280,273,l,{
"Letterink-NibData" = {
AngleInDegrees = 28.59795;
};
}),
(294,259,l,{
"Letterink-NibData" = {
AngleInDegrees = 28.59795;
};
}),
(493,625,l,{
"Letterink-NibData" = {
AngleInDegrees = 27.32389;
};
}),
(510,653,l,{
"Letterink-NibData" = {
AngleInDegrees = 179.84962;
};
}),
(510,257,l,{
"Letterink-NibData" = {
AngleInDegrees = 270;
};
})
);
}
);
width = 955;
},
{
anchors = (
{
name = bottom;
pos = (627,0);
},
{
name = top;
pos = (638,684);
}
);
hints = (
{
name = _corner.caps_diag;
options = 1;
origin = (0,12);
scale = (-1,1);
type = Corner;
}
);
layerId = m004;
shapes = (
{
closed = 1;
nodes = (
(970,0,l),
(970,148,l,{
"Letterink-NibData" = {
AngleInDegrees = "270";
};
}),
(671,148,l),
(671,281,l,{
"Letterink-NibData" = {
AngleInDegrees = "90";
};
}),
(860,281,l),
(860,419,l,{
"Letterink-NibData" = {
AngleInDegrees = "270";
};
}),
(671,419,l),
(671,536,l,{
"Letterink-NibData" = {
AngleInDegrees = "90";
};
}),
(950,536,l),
(950,684,l,{
"Letterink-NibData" = {
AngleInDegrees = "270";
};
}),
(451,684,l,{
"Letterink-NibData" = {
AngleInDegrees = "209.70894";
};
}),
(157,137,l,{
"Letterink-NibData" = {
AngleInDegrees = "89.3704";
};
}),
(299,63,l,{
"Letterink-NibData" = {
AngleInDegrees = "28.81079";
};
}),
(399,256,l,{
"Letterink-NibData" = {
AngleInDegrees = "90";
};
}),
(307,146,l,{
"Letterink-NibData" = {
AngleInDegrees = "90";
};
}),
(576,146,l,{
"Letterink-NibData" = {
AngleInDegrees = "180";
};
}),
(506,264,l,{
"Letterink-NibData" = {
AngleInDegrees = "180";
};
}),
(506,0,l,{
"Letterink-NibData" = {
AngleInDegrees = "90";
};
})
);
},
{
closed = 1;
nodes = (
(576,284,l,{
"Letterink-NibData" = {
AngleInDegrees = "270";
};
}),
(388,284,l,{
"Letterink-NibData" = {
AngleInDegrees = "28.68615";
};
}),
(420,279,l,{
"Letterink-NibData" = {
AngleInDegrees = "28.68615";
};
}),
(511,488,l,{
"Letterink-NibData" = {
AngleInDegrees = "23.62938";
};
}),
(506,449,l,{
"Letterink-NibData" = {
AngleInDegrees = "180";
};
}),
(506,275,l,{
"Letterink-NibData" = {
AngleInDegrees = "270";
};
})
);
}
);
width = 998;
}
);
unicode = 198;
userData = {
position = 422;
width = 61;
};
},
{
glyphname = AE.ss01;
kernLeft = Atext;
kernRight = E;
layers = (
{
anchors = (
{
name = bottom;
pos = (482,0);
},
{
name = top;
pos = (493,673);
}
);
layerId = "0CAF3BED-C4AC-4024-B3E1-4C69D1EF7EC0";
shapes = (
{
closed = 1;
nodes = (
(108,1,l,{
"Letterink-NibData" = {
AngleInDegrees = 28.81079;
};
}),
(242,252,l,{
"Letterink-NibData" = {
AngleInDegrees = 90;
};
}),
(189,210,l,{
"Letterink-NibData" = {
AngleInDegrees = 90;
};
}),
(458,210,l,{
"Letterink-NibData" = {
AngleInDegrees = 180;
};
}),
(422,256,l,{
"Letterink-NibData" = {
AngleInDegrees = 180;
};
}),
(422,-1,l,{
"Letterink-NibData" = {
AngleInDegrees = 90;
};
}),
(849,-1,l),
(849,75,l,{
"Letterink-NibData" = {
AngleInDegrees = 270;
};
}),
(504,75,l),
(504,325,l,{
"Letterink-NibData" = {
AngleInDegrees = 90;
};
}),
(731,325,l),
(731,401,l,{
"Letterink-NibData" = {
AngleInDegrees = 270;
};
}),
(504,401,l),
(504,610,l,{
"Letterink-NibData" = {
AngleInDegrees = 90;
};
}),
(829,610,l),
(829,686,l,{
"Letterink-NibData" = {
AngleInDegrees = 270;
};
}),
(383,686,l,{
"Letterink-NibData" = {
AngleInDegrees = 209.70894;
};
}),
(11,0,l,{
"Letterink-NibData" = {
AngleInDegrees = 89.3704;
};
})
);
},
{
closed = 1;
nodes = (
(458,286,l,{
"Letterink-NibData" = {
AngleInDegrees = 270;
};
}),
(227,286,l,{
"Letterink-NibData" = {
AngleInDegrees = 28.68615;
};
}),
(246,264,l,{
"Letterink-NibData" = {
AngleInDegrees = 28.68615;
};
}),
(408,561,l,{
"Letterink-NibData" = {
AngleInDegrees = 23.62938;
};
}),
(422,593,l,{
"Letterink-NibData" = {
AngleInDegrees = 180;
};
}),
(422,260,l,{
"Letterink-NibData" = {
AngleInDegrees = 270;
};
})
);
}
);
width = 872;
},
{
anchors = (
{
name = bottom;
pos = (458,0);
},
{
name = top;
pos = (531,684);
}
);
layerId = "49C16FD3-6177-408B-A733-AEB3898BB77C";
shapes = (
{
closed = 1;
nodes = (
(69,1,l,{
"Letterink-NibData" = {
AngleInDegrees = 28.2127;
};
}),
(202,250,l,{
"Letterink-NibData" = {
AngleInDegrees = 90;
};
}),
(168,236,l,{
"Letterink-NibData" = {
AngleInDegrees = 90;
};
}),
(430,236,l,{
"Letterink-NibData" = {
AngleInDegrees = 180;
};
}),
(413,252,l,{
"Letterink-NibData" = {
AngleInDegrees = 180;
};
}),
(413,1,l,{
"Letterink-NibData" = {
AngleInDegrees = 90;
};
}),
(834,1,l),
(834,37,l,{
"Letterink-NibData" = {
AngleInDegrees = 270;
};
}),
(451,37,l),
(451,346,l,{
"Letterink-NibData" = {
AngleInDegrees = 90;
};
}),
(711,346,l),
(711,382,l,{
"Letterink-NibData" = {
AngleInDegrees = 270;
};
}),
(451,382,l),
(451,649,l,{
"Letterink-NibData" = {
AngleInDegrees = 90;
};
}),
(814,649,l),
(814,685,l,{
"Letterink-NibData" = {
AngleInDegrees = 270;
};
}),
(396,685,l,{
"Letterink-NibData" = {
AngleInDegrees = 208.86222;
};
}),
(25,1,l,{
"Letterink-NibData" = {
AngleInDegrees = 90;
};
})
);
},
{
closed = 1;
nodes = (
(430,272,l,{
"Letterink-NibData" = {
AngleInDegrees = 270;
};
}),
(184,272,l,{
"Letterink-NibData" = {
AngleInDegrees = 28.9193;
};
}),
(207,257,l,{
"Letterink-NibData" = {
AngleInDegrees = 28.9193;
};
}),
(391,601,l,{
"Letterink-NibData" = {
AngleInDegrees = 32.55;
};
}),
(413,650,l,{
"Letterink-NibData" = {
AngleInDegrees = 180;
};
}),
(413,256,l,{
"Letterink-NibData" = {
AngleInDegrees = 270;
};
})
);
}
);
width = 865;
},
{
anchors = (
{
name = bottom;
pos = (439,0);
},
{
name = top;
pos = (537,684);
}
);
layerId = m004;
shapes = (
{
closed = 1;
nodes = (
(194,1,l,{
"Letterink-NibData" = {
AngleInDegrees = "28.81079";
};
}),
(332,256,l,{
"Letterink-NibData" = {
AngleInDegrees = "90";
};
}),
(240,146,l,{
"Letterink-NibData" = {
AngleInDegrees = "90";
};
}),
(509,146,l,{
"Letterink-NibData" = {
AngleInDegrees = "180";
};
}),
(439,264,l,{
"Letterink-NibData" = {
AngleInDegrees = "180";
};
}),
(439,0,l,{
"Letterink-NibData" = {
AngleInDegrees = "90";
};
}),
(903,0,l),
(903,148,l,{
"Letterink-NibData" = {
AngleInDegrees = "270";
};
}),
(604,148,l),
(604,281,l,{
"Letterink-NibData" = {
AngleInDegrees = "90";
};
}),
(793,281,l),
(793,419,l,{
"Letterink-NibData" = {
AngleInDegrees = "270";
};
}),
(604,419,l),
(604,536,l,{
"Letterink-NibData" = {
AngleInDegrees = "90";
};
}),
(883,536,l),
(883,684,l,{
"Letterink-NibData" = {
AngleInDegrees = "270";
};
}),
(378,684,l,{
"Letterink-NibData" = {
AngleInDegrees = "209.70894";
};
}),
(5,0,l,{
"Letterink-NibData" = {
AngleInDegrees = "89.3704";
};
})
);
},
{
closed = 1;
nodes = (
(509,284,l,{
"Letterink-NibData" = {
AngleInDegrees = "270";
};
}),
(321,284,l,{
"Letterink-NibData" = {
AngleInDegrees = "28.68615";
};
}),
(358,279,l,{
"Letterink-NibData" = {
AngleInDegrees = "28.68615";
};
}),
(440,488,l,{
"Letterink-NibData" = {
AngleInDegrees = "23.62938";
};
}),
(439,449,l,{
"Letterink-NibData" = {
AngleInDegrees = "180";
};
}),
(439,275,l,{
"Letterink-NibData" = {
AngleInDegrees = "270";
};
})
);
}
);
width = 934;
}
);
metricLeft = A.ss01;
metricRight = E;
userData = {
position = 422;
width = 61;
};
},
{
glyphname = AE.swsh;
kernLeft = A;
kernRight = E;
layers = (
{
anchors = (
{
name = bottom;
pos = (559,0);
},
{
name = top;
pos = (570,673);
}
);
hints = (
{
name = _corner.caps_swash_diag;
options = 1;
origin = (0,12);
scale = (-1,1);
type = Corner;
},
{
name = _corner.caps_swash.big;
origin = (2,2);
type = Corner;
}
);
layerId = "0CAF3BED-C4AC-4024-B3E1-4C69D1EF7EC0";
shapes = (
{
closed = 1;
nodes = (
(936,-1,l),
(936,75,l,{
"Letterink-NibData" = {
AngleInDegrees = 270;
};
}),
(581,75,l),
(581,325,l,{
"Letterink-NibData" = {
AngleInDegrees = 90;
};
}),
(818,325,l),
(818,401,l,{
"Letterink-NibData" = {
AngleInDegrees = 270;
};
}),
(581,401,l),
(581,610,l,{
"Letterink-NibData" = {
AngleInDegrees = 90;
};
}),
(916,610,l),
(916,686,l,{
"Letterink-NibData" = {
AngleInDegrees = 270;
};
}),
(472,686,l,{
"Letterink-NibData" = {
AngleInDegrees = 208.5766;
};
}),
(164,94,l,{
"Letterink-NibData" = {
AngleInDegrees = 209.0546;
};
}),
(237,56,l,{
"Letterink-NibData" = {
AngleInDegrees = 26.8249;
};
}),
(328,252,l,{
"Letterink-NibData" = {
AngleInDegrees = 90;
};
}),
(276,210,l,{
"Letterink-NibData" = {
AngleInDegrees = 90;
};
}),
(535,210,l,{
"Letterink-NibData" = {
AngleInDegrees = 180;
};
}),
(499,256,l,{
"Letterink-NibData" = {
AngleInDegrees = 180;
};
}),
(499,-1,l,{
"Letterink-NibData" = {
AngleInDegrees = 90;
};
})
);
},
{
closed = 1;
nodes = (
(535,286,l,{
"Letterink-NibData" = {
AngleInDegrees = 270;
};
}),
(320,286,l,{
"Letterink-NibData" = {
AngleInDegrees = 28.71031;
};
}),
(339,264,l,{
"Letterink-NibData" = {
AngleInDegrees = 28.71031;
};
}),
(483,537,l,{
"Letterink-NibData" = {
AngleInDegrees = 23.19859;
};
}),
(499,586,l,{
"Letterink-NibData" = {
AngleInDegrees = 180;
};
}),
(499,260,l,{
"Letterink-NibData" = {
AngleInDegrees = 270;
};
})
);
},
{
closed = 1;
nodes = (
(475,609,l),
(475,685,l,{
"Letterink-NibData" = {
AngleInDegrees = "270";
};
}),
(322,685,l,{
"Letterink-NibData" = {
AngleInDegrees = "180";
};
}),
(322,609,l,{
"Letterink-NibData" = {
AngleInDegrees = "90";
};
})
);
}
);
width = 959;
},
{
anchors = (
{
name = bottom;
pos = (595,0);
},
{
name = top;
pos = (603,694);
}
);
hints = (
{
name = _corner.caps_swash_diag;
options = 1;
origin = (0,12);
scale = (-1,1);
type = Corner;
},
{
name = _corner.caps_swash.big;
origin = (2,2);
type = Corner;
}
);
layerId = "49C16FD3-6177-408B-A733-AEB3898BB77C";
shapes = (
{
closed = 1;
nodes = (
(967,1,l),
(967,37,l,{
"Letterink-NibData" = {
AngleInDegrees = 270;
};
}),
(588,37,l),
(588,346,l,{
"Letterink-NibData" = {
AngleInDegrees = 90;
};
}),
(844,346,l),
(844,382,l,{
"Letterink-NibData" = {
AngleInDegrees = 270;
};
}),
(588,382,l),
(588,649,l,{
"Letterink-NibData" = {
AngleInDegrees = 90;
};
}),
(947,649,l),
(947,685,l,{
"Letterink-NibData" = {
AngleInDegrees = 270;
};
}),
(530,685,l,{
"Letterink-NibData" = {
AngleInDegrees = 208.82166;
};
}),
(182,65,l,{
"Letterink-NibData" = {
AngleInDegrees = 213.69007;
};
}),
(216,48,l,{
"Letterink-NibData" = {
AngleInDegrees = 29.29136;
};
}),
(331,249,l,{
"Letterink-NibData" = {
AngleInDegrees = 90;
};
}),
(303,237,l,{
"Letterink-NibData" = {
AngleInDegrees = 90;
};
}),
(566,237,l,{
"Letterink-NibData" = {
AngleInDegrees = 180;
};
}),
(550,253,l,{
"Letterink-NibData" = {
AngleInDegrees = 180;
};
}),
(550,1,l,{
"Letterink-NibData" = {
AngleInDegrees = 90;
};
})
);
},
{
closed = 1;
nodes = (
(566,273,l,{
"Letterink-NibData" = {
AngleInDegrees = 270;
};
}),
(321,273,l,{
"Letterink-NibData" = {
AngleInDegrees = 28.59795;
};
}),
(334,259,l,{
"Letterink-NibData" = {
AngleInDegrees = 28.59795;
};
}),
(523,600,l,{
"Letterink-NibData" = {
AngleInDegrees = 27.32389;
};
}),
(547,650,l,{
"Letterink-NibData" = {
AngleInDegrees = 179.84962;
};
}),
(550,257,l,{
"Letterink-NibData" = {
AngleInDegrees = 270;
};
})
);
},
{
closed = 1;
nodes = (
(530,648,l),
(530,684,l,{
"Letterink-NibData" = {
AngleInDegrees = "270";
};
}),
(387,684,l,{
"Letterink-NibData" = {
AngleInDegrees = "180";
};
}),
(387,648,l,{
"Letterink-NibData" = {
AngleInDegrees = "90";
};
})
);
}
);
width = 995;
},
{
anchors = (
{
name = bottom;
pos = (566,0);
},
{
name = top;
pos = (698,673);
}
);
hints = (
{
name = _corner.caps_swash_diag;
options = 1;
origin = (0,12);
scale = (-1,1);
type = Corner;
},
{
name = _corner.caps_swash.big;
origin = (2,2);
type = Corner;
}
);
layerId = m004;
shapes = (
{
closed = 1;
nodes = (
(1030,0,l),
(1030,148,l,{
"Letterink-NibData" = {
AngleInDegrees = "270";
};
}),
(731,148,l),
(731,291,l,{
"Letterink-NibData" = {
AngleInDegrees = "90";
};
}),
(920,291,l),
(920,429,l,{
"Letterink-NibData" = {
AngleInDegrees = "270";
};
}),
(731,429,l),
(731,536,l,{
"Letterink-NibData" = {
AngleInDegrees = "90";
};
}),
(1010,536,l),
(1010,684,l,{
"Letterink-NibData" = {
AngleInDegrees = "270";
};
}),
(506,684,l,{
"Letterink-NibData" = {
AngleInDegrees = "209.70894";
};
}),
(229,150,l,{
"Letterink-NibData" = {
AngleInDegrees = "89.3704";
};
}),
(367,69,l,{
"Letterink-NibData" = {
AngleInDegrees = "28.81079";
};
}),
(459,256,l,{
"Letterink-NibData" = {
AngleInDegrees = "90";
};
}),
(367,146,l,{
"Letterink-NibData" = {
AngleInDegrees = "90";
};
}),
(636,146,l,{
"Letterink-NibData" = {
AngleInDegrees = "180";
};
}),
(566,264,l,{
"Letterink-NibData" = {
AngleInDegrees = "180";
};
}),
(566,0,l,{
"Letterink-NibData" = {
AngleInDegrees = "90";
};
})
);
},
{
closed = 1;
nodes = (
(636,284,l,{
"Letterink-NibData" = {
AngleInDegrees = "270";
};
}),
(448,284,l,{
"Letterink-NibData" = {
AngleInDegrees = "28.68615";
};
}),
(485,279,l,{
"Letterink-NibData" = {
AngleInDegrees = "28.68615";
};
}),
(568,488,l,{
"Letterink-NibData" = {
AngleInDegrees = "23.62938";
};
}),
(566,449,l,{
"Letterink-NibData" = {
AngleInDegrees = "180";
};
}),
(566,275,l,{
"Letterink-NibData" = {
AngleInDegrees = "270";
};
})
);
},
{
closed = 1;
nodes = (
(575,535,l),
(575,684,l,{
"Letterink-NibData" = {
AngleInDegrees = "270";
};
}),
(353,684,l,{
"Letterink-NibData" = {
AngleInDegrees = "180";
};
}),
(356,535,l)
);
}
);
width = 1058;
}
);
metricLeft = A.swsh;
userData = {
position = 422;
width = 61;
};
},
{
glyphname = B;
kernLeft = E;
kernRight = B;
layers = (
{
anchors = (
{
name = bottom;
pos = (354,0);
},
{
name = center;
pos = (364,368);
},
{
name = top;
pos = (354,684);
}
);
hints = (
{
name = _corner.caps_left;
origin = (0,18);
type = Corner;
}
);
layerId = "0CAF3BED-C4AC-4024-B3E1-4C69D1EF7EC0";
shapes = (
{
closed = 1;
nodes = (
(524,-10,o),
(617,63,o),
(617,190,cs),
(617,269,o),
(582,322,o),
(528,350,cs),
(512,359,o),
(494,367,o),
(475,370,c,{
"Letterink-NibData" = {
AngleInDegrees = 71.56505;
};
}),
(490,373,o),
(509,380,o),
(527,392,cs),
(558,411,o),
(587,446,o),
(587,511,cs),
(587,617,o),
(507,684,o),
(379,684,cs,{
"Letterink-NibData" = {
AngleInDegrees = 270;
};
}),
(153,684,l,{
"Letterink-NibData" = {
AngleInDegrees = 180;
};
}),
(153,608,l,{
"Letterink-NibData" = {
AngleInDegrees = 90;
};
}),
(380,608,l,{
"Letterink-NibData" = {
AngleInDegrees = 93.91825;
};
}),
(463,608,o),
(505,568,o),
(505,508,cs,{
"Letterink-NibData" = {
AngleInDegrees = 180;
};
}),
(505,443,o),
(456,401,o),
(378,401,cs,{
"Letterink-NibData" = {
AngleInDegrees = 270;
};
}),
(193,401,l,{
"Letterink-NibData" = {
AngleInDegrees = 180;
};
}),
(193,325,l,{
"Letterink-NibData" = {
AngleInDegrees = 90;
};
}),
(385,325,ls,{
"Letterink-NibData" = {
AngleInDegrees = 90;
};
}),
(478,325,o),
(536,273,o),
(536,188,cs,{
"Letterink-NibData" = {
AngleInDegrees = 180;
};
}),
(536,102,o),
(477,66,o),
(352,64,cs,{
"Letterink-NibData" = {
AngleInDegrees = 270;
};
}),
(316,63,o),
(273,65,o),
(235,71,c),
(235,642,l,{
"Letterink-NibData" = {
AngleInDegrees = 270;
};
}),
(153,642,l,{
"Letterink-NibData" = {
AngleInDegrees = 180;
};
}),
(153,2,l,{
"Letterink-NibData" = {
AngleInDegrees = 96.54629;
};
}),
(229,-7,o),
(263,-10,o),
(339,-10,cs,{
"Letterink-NibData" = {
AngleInDegrees = 90;
};
})
);
}
);
width = 655;
},
{
anchors = (
{
name = bottom;
pos = (331,-2);
},
{
name = center;
pos = (348,367);
},
{
name = top;
pos = (331,684);
}
);
hints = (
{
name = _corner.caps_left;
origin = (0,18);
type = Corner;
}
);
layerId = "49C16FD3-6177-408B-A733-AEB3898BB77C";
shapes = (
{
closed = 1;
nodes = (
(465,-9,o),
(588,43,o),
(588,181,cs),
(588,254,o),
(551,315,o),
(481,349,cs,{
"Letterink-NibData" = {
AngleInDegrees = 305.53768;
};
}),
(470,354,o),
(446,361,o),
(418,366,c,{
"Letterink-NibData" = {
AngleInDegrees = 75.67728;
};
}),
(448,373,o),
(467,375,o),
(496,398,cs,{
"Letterink-NibData" = {
AngleInDegrees = 53.1301;
};
}),
(526,422,o),
(555,453,o),
(555,515,cs),
(555,633,o),
(462,684,o),
(358,684,cs,{
"Letterink-NibData" = {
AngleInDegrees = 270;
};
}),
(145,684,l,{
"Letterink-NibData" = {
AngleInDegrees = 180;
};
}),
(145,648,l,{
"Letterink-NibData" = {
AngleInDegrees = 90;
};
}),
(374,648,l,{
"Letterink-NibData" = {
AngleInDegrees = 93.81407;
};
}),
(465,648,o),
(516,598,o),
(516,519,cs,{
"Letterink-NibData" = {
AngleInDegrees = 180;
};
}),
(516,425,o),
(444,382,o),
(357,382,cs,{
"Letterink-NibData" = {
AngleInDegrees = 270;
};
}),
(171,382,l,{
"Letterink-NibData" = {
AngleInDegrees = 180;
};
}),
(171,346,l,{
"Letterink-NibData" = {
AngleInDegrees = 90;
};
}),
(364,346,ls,{
"Letterink-NibData" = {
AngleInDegrees = 90;
};
}),
(484,346,o),
(550,271,o),
(550,181,cs,{
"Letterink-NibData" = {
AngleInDegrees = 180;
};
}),
(550,78,o),
(466,26,o),
(350,26,cs,{
"Letterink-NibData" = {
AngleInDegrees = 270;
};
}),
(342,26,o),
(232,26,o),
(183,32,c),
(183,654,l,{
"Letterink-NibData" = {
AngleInDegrees = 270;
};
}),
(142,654,l,{
"Letterink-NibData" = {
AngleInDegrees = 90;
};
}),
(146,3,l,{
"Letterink-NibData" = {
AngleInDegrees = 98.65254;
};
}),
(232,-11,o),
(281,-9,o),
(357,-9,cs,{
"Letterink-NibData" = {
AngleInDegrees = 90;
};
})
);
}
);
width = 633;
},
{
anchors = (
{
name = bottom;
pos = (405,-2);
},
{
name = center;
pos = (405,356);
},
{
name = top;
pos = (400,684);
}
);
hints = (
{
name = _corner.caps_left;
origin = (0,18);
type = Corner;
}
);
layerId = m004;
shapes = (
{
closed = 1;
nodes = (
(542,-12,o),
(673,38,o),
(673,195,cs),
(673,254,o),
(640,313,o),
(595,339,cs),
(565,356,o),
(549,361,o),
(526,365,c,{
"Letterink-NibData" = {
AngleInDegrees = 77.90524;
};
}),
(553,369,o),
(569,377,o),
(588,391,cs,{
"Letterink-NibData" = {
AngleInDegrees = "63.90458";
};
}),
(636,426,o),
(651,471,o),
(651,520,cs),
(651,617,o),
(567,684,o),
(434,684,cs,{
"Letterink-NibData" = {
AngleInDegrees = "270";
};
}),
(180,684,l,{
"Letterink-NibData" = {
AngleInDegrees = "180";
};
}),
(180,536,l),
(434,536,ls,{
"Letterink-NibData" = {
AngleInDegrees = "90";
};
}),
(469,536,o),
(490,513,o),
(490,485,cs,{
"Letterink-NibData" = {
AngleInDegrees = "180";
};
}),
(490,451,o),
(467,424,o),
(440,424,cs,{
"Letterink-NibData" = {
AngleInDegrees = "269.3338";
};
}),
(315,424,l,{
"Letterink-NibData" = {
AngleInDegrees = "180.77422";
};
}),
(315,289,l,{
"Letterink-NibData" = {
AngleInDegrees = "90";
};
}),
(431,289,ls,{
"Letterink-NibData" = {
AngleInDegrees = "90";
};
}),
(479,289,o),
(518,258,o),
(518,211,cs,{
"Letterink-NibData" = {
AngleInDegrees = "180";
};
}),
(518,158,o),
(481,132,o),
(407,132,cs,{
"Letterink-NibData" = {
AngleInDegrees = "270";
};
}),
(384,132,o),
(370,133,o),
(345,137,c),
(345,552,l,{
"Letterink-NibData" = {
AngleInDegrees = "90";
};
}),
(180,552,l),
(180,6,l,{
"Letterink-NibData" = {
AngleInDegrees = 96.4416;
};
}),
(270,-11,o),
(319,-13,o),
(385,-13,cs)
);
}
);
width = 701;
}
);
metricLeft = E;
unicode = 66;
userData = {
position = 514;
width = 59;
};
},
{
glyphname = B.ss01;
kernLeft = L;
kernRight = B;
layers = (
{
anchors = (
{
name = bottom;
pos = (280,0);
},
{
name = center;
pos = (290,370);
},
{
name = top;
pos = (280,684);
}
);
layerId = "0CAF3BED-C4AC-4024-B3E1-4C69D1EF7EC0";
shapes = (
{
closed = 1;
nodes = (
(450,-10,o),
(543,63,o),
(543,190,cs),
(543,264,o),
(512,318,o),
(462,348,cs,{
"Letterink-NibData" = {
AngleInDegrees = 300.96376;
};
}),
(435,364,o),
(403,368,o),
(391,370,c,{
"Letterink-NibData" = {
AngleInDegrees = 71.56505;
};
}),
(405,372,o),
(425,375,o),
(445,385,cs,{
"Letterink-NibData" = {
AngleInDegrees = 63.43495;
};
}),
(489,407,o),
(513,453,o),
(513,511,cs),
(513,617,o),
(433,684,o),
(305,684,cs,{
"Letterink-NibData" = {
AngleInDegrees = 270;
};
}),
(79,684,l,{
"Letterink-NibData" = {
AngleInDegrees = 180;
};
}),
(79,606,l,{
"Letterink-NibData" = {
AngleInDegrees = 90;
};
}),
(306,606,l,{
"Letterink-NibData" = {
AngleInDegrees = 93.91825;
};
}),
(389,601,o),
(431,568,o),
(431,508,cs,{
"Letterink-NibData" = {
AngleInDegrees = 180;
};
}),
(431,443,o),
(382,401,o),
(304,401,cs,{
"Letterink-NibData" = {
AngleInDegrees = 270;
};
}),
(119,401,l,{
"Letterink-NibData" = {
AngleInDegrees = 180;
};
}),
(119,324,l,{
"Letterink-NibData" = {
AngleInDegrees = 90;
};
}),
(311,324,ls,{
"Letterink-NibData" = {
AngleInDegrees = 90;
};
}),
(404,324,o),
(462,273,o),
(462,188,cs,{
"Letterink-NibData" = {
AngleInDegrees = 180;
};
}),
(462,102,o),
(403,66,o),
(278,64,cs,{
"Letterink-NibData" = {
AngleInDegrees = 270;
};
}),
(242,63,o),
(199,65,o),
(161,71,c),
(161,642,l,{
"Letterink-NibData" = {
AngleInDegrees = 270;
};
}),
(79,642,l,{
"Letterink-NibData" = {
AngleInDegrees = 180;
};
}),
(79,2,l,{
"Letterink-NibData" = {
AngleInDegrees = 96.54629;
};
}),
(149,-7,o),
(185,-10,o),
(265,-10,cs,{
"Letterink-NibData" = {
AngleInDegrees = 90;
};
})
);
}
);
width = 581;
},
{
anchors = (
{
name = bottom;
pos = (277,0);
},
{
name = center;
pos = (271,363);
},
{
name = top;
pos = (277,684);
}
);
layerId = "49C16FD3-6177-408B-A733-AEB3898BB77C";
shapes = (
{
closed = 1;
nodes = (
(446,-9,o),
(534,58,o),
(534,177,cs),
(534,256,o),
(495,317,o),
(437,346,cs,{
"Letterink-NibData" = {
AngleInDegrees = 305.53768;
};
}),
(415,356,o),
(389,361,o),
(364,365,c,{
"Letterink-NibData" = {
AngleInDegrees = 75.67728;
};
}),
(392,369,o),
(421,380,o),
(450,403,cs,{
"Letterink-NibData" = {
AngleInDegrees = 53.1301;
};
}),
(484,430,o),
(501,467,o),
(501,516,cs),
(501,619,o),
(425,684,o),
(304,684,cs,{
"Letterink-NibData" = {
AngleInDegrees = 270;
};
}),
(86,684,l,{
"Letterink-NibData" = {
AngleInDegrees = 180;
};
}),
(86,648,l,{
"Letterink-NibData" = {
AngleInDegrees = 90;
};
}),
(320,648,l,{
"Letterink-NibData" = {
AngleInDegrees = 93.81407;
};
}),
(413,641,o),
(462,596,o),
(462,520,cs,{
"Letterink-NibData" = {
AngleInDegrees = 180;
};
}),
(462,435,o),
(401,382,o),
(303,382,cs,{
"Letterink-NibData" = {
AngleInDegrees = 270;
};
}),
(121,382,l,{
"Letterink-NibData" = {
AngleInDegrees = 180;
};
}),
(121,347,l,{
"Letterink-NibData" = {
AngleInDegrees = 90;
};
}),
(310,347,ls,{
"Letterink-NibData" = {
AngleInDegrees = 90;
};
}),
(420,347,o),
(496,276,o),
(496,179,cs,{
"Letterink-NibData" = {
AngleInDegrees = 180;
};
}),
(496,63,o),
(420,26,o),
(267,26,cs,{
"Letterink-NibData" = {
AngleInDegrees = 270;
};
}),
(232,26,o),
(157,29,o),
(131,32,c),
(128,654,l,{
"Letterink-NibData" = {
AngleInDegrees = 270;
};
}),
(86,654,l,{
"Letterink-NibData" = {
AngleInDegrees = 90;
};
}),
(89,3,l,{
"Letterink-NibData" = {
AngleInDegrees = 98.65254;
};
}),
(169,-11,o),
(213,-9,o),
(311,-9,cs,{
"Letterink-NibData" = {
AngleInDegrees = 90;
};
})
);
}
);
width = 579;
},
{
anchors = (
{
name = bottom;
pos = (291,0);
},
{
name = center;
pos = (291,356);
},
{
name = top;
pos = (291,684);
}
);
layerId = m004;
shapes = (
{
closed = 1;
nodes = (
(419,-14,o),
(559,31,o),
(559,195,cs),
(559,254,o),
(526,313,o),
(481,339,cs),
(451,356,o),
(435,361,o),
(407,365,c,{
"Letterink-NibData" = {
AngleInDegrees = 77.90524;
};
}),
(439,369,o),
(455,377,o),
(474,391,cs,{
"Letterink-NibData" = {
AngleInDegrees = "63.90458";
};
}),
(522,426,o),
(537,471,o),
(537,520,cs),
(537,617,o),
(453,686,o),
(320,686,cs,{
"Letterink-NibData" = {
AngleInDegrees = "270";
};
}),
(66,686,l,{
"Letterink-NibData" = {
AngleInDegrees = "180";
};
}),
(66,536,l),
(320,536,ls,{
"Letterink-NibData" = {
AngleInDegrees = "90";
};
}),
(355,536,o),
(376,513,o),
(376,485,cs,{
"Letterink-NibData" = {
AngleInDegrees = "180";
};
}),
(376,451,o),
(353,424,o),
(326,424,cs,{
"Letterink-NibData" = {
AngleInDegrees = "269.3338";
};
}),
(201,424,l,{
"Letterink-NibData" = {
AngleInDegrees = "180.77422";
};
}),
(201,289,l,{
"Letterink-NibData" = {
AngleInDegrees = "90";
};
}),
(317,289,ls,{
"Letterink-NibData" = {
AngleInDegrees = "90";
};
}),
(365,289,o),
(404,258,o),
(404,211,cs,{
"Letterink-NibData" = {
AngleInDegrees = "180";
};
}),
(404,158,o),
(367,132,o),
(293,132,cs,{
"Letterink-NibData" = {
AngleInDegrees = "270";
};
}),
(270,132,o),
(256,133,o),
(231,137,c),
(231,552,l,{
"Letterink-NibData" = {
AngleInDegrees = "90";
};
}),
(66,552,l),
(66,6,l,{
"Letterink-NibData" = {
AngleInDegrees = 96.4416;
};
}),
(141,-9,o),
(188,-13,o),
(261,-13,cs)
);
}
);
width = 587;
}
);
metricLeft = N.ss01;
metricRight = B;
userData = {
position = 494;
width = 59;
};
},
{
glyphname = B.swsh;
kernLeft = Swash;
kernRight = B;
layers = (
{
anchors = (
{
name = bottom;
pos = (386,0);
},
{
name = center;
pos = (396,369);
},
{
name = top;
pos = (386,684);
}
);
hints = (
{
name = _corner.caps_swash;
options = 2;
origin = (0,18);
type = Corner;
}
);
layerId = "0CAF3BED-C4AC-4024-B3E1-4C69D1EF7EC0";
shapes = (
{
closed = 1;
nodes = (
(556,-10,o),
(649,63,o),
(649,190,cs),
(649,264,o),
(618,318,o),
(572,345,cs,{
"Letterink-NibData" = {
AngleInDegrees = "300.96376";
};
}),
(543,363,o),
(509,369,o),
(497,370,c,{
"Letterink-NibData" = {
AngleInDegrees = "71.56505";
};
}),
(510,373,o),
(531,375,o),
(552,386,cs,{
"Letterink-NibData" = {
AngleInDegrees = "63.43495";
};
}),
(595,407,o),
(619,453,o),
(619,511,cs),
(619,617,o),
(539,684,o),
(411,684,cs,{
"Letterink-NibData" = {
AngleInDegrees = "270";
};
}),
(185,684,l,{
"Letterink-NibData" = {
AngleInDegrees = "180";
};
}),
(185,608,l,{
"Letterink-NibData" = {
AngleInDegrees = "90";
};
}),
(412,608,l,{
"Letterink-NibData" = {
AngleInDegrees = "93.91825";
};
}),
(495,603,o),
(537,568,o),
(537,508,cs,{
"Letterink-NibData" = {
AngleInDegrees = "180";
};
}),
(537,443,o),
(488,401,o),
(410,401,cs,{
"Letterink-NibData" = {
AngleInDegrees = "270";
};
}),
(321,401,l,{
"Letterink-NibData" = {
AngleInDegrees = "180";
};
}),
(321,325,l,{
"Letterink-NibData" = {
AngleInDegrees = "90";
};
}),
(417,325,ls,{
"Letterink-NibData" = {
AngleInDegrees = "90";
};
}),
(510,325,o),
(568,273,o),
(568,193,cs,{
"Letterink-NibData" = {
AngleInDegrees = "180";
};
}),
(568,112,o),
(509,66,o),
(380,64,cs,{
"Letterink-NibData" = {
AngleInDegrees = "270";
};
}),
(348,63,o),
(305,65,o),
(267,71,c),
(267,560,l,{
"Letterink-NibData" = {
AngleInDegrees = "270";
};
}),
(185,560,l,{
"Letterink-NibData" = {
AngleInDegrees = "180";
};
}),
(185,2,l,{
"Letterink-NibData" = {
AngleInDegrees = "96.54629";
};
}),
(251,-7,o),
(295,-10,o),
(371,-10,cs,{
"Letterink-NibData" = {
AngleInDegrees = "90";
};
})
);
}
);
width = 687;
},
{
anchors = (
{
name = bottom;
pos = (317,0);
},
{
name = center;
pos = (335,367);
},
{
name = top;
pos = (317,684);
}
);
hints = (
{
name = _corner.caps_swash;
origin = (0,18);
type = Corner;
}
);
layerId = "49C16FD3-6177-408B-A733-AEB3898BB77C";
shapes = (
{
closed = 1;
nodes = (
(524,-9,o),
(612,58,o),
(612,177,cs),
(612,256,o),
(573,319,o),
(514,348,cs,{
"Letterink-NibData" = {
AngleInDegrees = "305.53768";
};
}),
(493,358,o),
(467,363,o),
(442,364,c,{
"Letterink-NibData" = {
AngleInDegrees = "75.67728";
};
}),
(470,371,o),
(499,379,o),
(529,403,cs,{
"Letterink-NibData" = {
AngleInDegrees = "53.1301";
};
}),
(562,430,o),
(579,467,o),
(579,516,cs),
(579,619,o),
(503,684,o),
(382,684,cs,{
"Letterink-NibData" = {
AngleInDegrees = "270";
};
}),
(166,684,l,{
"Letterink-NibData" = {
AngleInDegrees = "180";
};
}),
(166,648,l,{
"Letterink-NibData" = {
AngleInDegrees = "90";
};
}),
(398,648,l,{
"Letterink-NibData" = {
AngleInDegrees = "93.81407";
};
}),
(491,641,o),
(540,596,o),
(540,520,cs,{
"Letterink-NibData" = {
AngleInDegrees = "180";
};
}),
(540,435,o),
(479,382,o),
(381,382,cs,{
"Letterink-NibData" = {
AngleInDegrees = "270";
};
}),
(292,382,l,{
"Letterink-NibData" = {
AngleInDegrees = "180";
};
}),
(292,347,l,{
"Letterink-NibData" = {
AngleInDegrees = "90";
};
}),
(388,347,ls,{
"Letterink-NibData" = {
AngleInDegrees = "90";
};
}),
(490,347,o),
(574,280,o),
(574,183,cs,{
"Letterink-NibData" = {
AngleInDegrees = "180";
};
}),
(574,76,o),
(498,26,o),
(363,26,cs,{
"Letterink-NibData" = {
AngleInDegrees = "270";
};
}),
(311,26,o),
(233,29,o),
(207,32,c),
(207,597,l,{
"Letterink-NibData" = {
AngleInDegrees = "270";
};
}),
(166,597,l,{
"Letterink-NibData" = {
AngleInDegrees = "179.91332";
};
}),
(167,3,l,{
"Letterink-NibData" = {
AngleInDegrees = "98.65254";
};
}),
(257,-13,o),
(291,-9,o),
(389,-9,cs,{
"Letterink-NibData" = {
AngleInDegrees = "90";
};
})
);
}
);
width = 658;
},
{
anchors = (
{
name = bottom;
pos = (421,0);
},
{
name = center;
pos = (421,355);
},
{
name = top;
pos = (421,684);
}
);
hints = (
{
name = _corner.caps_swash;
options = 2;
origin = (0,18);
type = Corner;
}
);
layerId = m004;
shapes = (
{
closed = 1;
nodes = (
(573,-14,o),
(713,32,o),
(713,195,cs),
(713,254,o),
(680,313,o),
(635,339,cs),
(605,356,o),
(589,361,o),
(561,365,c,{
"Letterink-NibData" = {
AngleInDegrees = 77.90524;
};
}),
(593,369,o),
(609,377,o),
(628,391,cs,{
"Letterink-NibData" = {
AngleInDegrees = "63.90458";
};
}),
(676,426,o),
(691,471,o),
(691,520,cs),
(691,617,o),
(607,686,o),
(474,686,cs,{
"Letterink-NibData" = {
AngleInDegrees = "270";
};
}),
(220,686,l,{
"Letterink-NibData" = {
AngleInDegrees = "180";
};
}),
(220,538,l),
(474,539,ls,{
"Letterink-NibData" = {
AngleInDegrees = "90";
};
}),
(509,539,o),
(530,513,o),
(530,485,cs,{
"Letterink-NibData" = {
AngleInDegrees = "180";
};
}),
(530,451,o),
(507,425,o),
(480,424,cs,{
"Letterink-NibData" = {
AngleInDegrees = "269.3338";
};
}),
(427,423,l,{
"Letterink-NibData" = {
AngleInDegrees = "180.77422";
};
}),
(427,289,l,{
"Letterink-NibData" = {
AngleInDegrees = "90";
};
}),
(471,289,ls,{
"Letterink-NibData" = {
AngleInDegrees = "90";
};
}),
(519,289,o),
(558,258,o),
(558,211,cs,{
"Letterink-NibData" = {
AngleInDegrees = "180";
};
}),
(558,158,o),
(521,132,o),
(447,132,cs,{
"Letterink-NibData" = {
AngleInDegrees = "270";
};
}),
(424,132,o),
(410,133,o),
(385,137,c),
(385,498,l,{
"Letterink-NibData" = {
AngleInDegrees = "90";
};
}),
(220,499,l),
(220,6,l,{
"Letterink-NibData" = {
AngleInDegrees = 96.4416;
};
}),
(297,-9,o),
(349,-13,o),
(418,-13,cs)
);
}
);
width = 743;
}
);
metricLeft = E.swsh;
userData = {
position = 514;
width = 59;
};
},
{
glyphname = C;
kernLeft = O;
kernRight = C;
layers = (
{
anchors = (
{
name = bottom;
pos = (382,-5);
},
{
name = top;
pos = (384,689);
}
);
layerId = "0CAF3BED-C4AC-4024-B3E1-4C69D1EF7EC0";
shapes = (
{
closed = 1;
nodes = (
(499,-19,o),
(601,33,o),
(655,121,c),
(592,159,l),
(551,95,o),
(473,55,o),
(383,55,cs),
(239,55,o),
(121,173,o),
(121,338,cs),
(121,508,o),
(246,629,o),
(393,629,cs),
(485,629,o),
(555,588,o),
(555,530,cs),
(555,512,o),
(548,496,o),
(531,496,cs),
(522,496,o),
(516,500,o),
(509,505,c),
(468,450,l),
(486,432,o),
(508,424,o),
(532,424,cs),
(590,424,o),
(629,473,o),
(629,531,cs),
(629,629,o),
(520,703,o),
(389,703,cs),
(195,703,o),
(37,541,o),
(37,332,cs),
(37,132,o),
(169,-19,o),
(382,-19,cs)
);
}
);
width = 676;
},
{
anchors = (
{
name = bottom;
pos = (391,-4);
},
{
name = top;
pos = (396,688);
}
);
layerId = "49C16FD3-6177-408B-A733-AEB3898BB77C";
shapes = (
{
closed = 1;
nodes = (
(512,-10,o),
(617,47,o),
(663,130,c),
(633,148,l),
(591,75,o),
(498,25,o),
(392,25,cs),
(219,25,o),
(86,147,o),
(86,327,cs),
(86,533,o),
(220,664,o),
(396,664,cs),
(490,664,o),
(598,624,o),
(598,542,cs),
(598,517,o),
(584,482,o),
(552,482,cs),
(543,482,o),
(528,485,o),
(518,493,c),
(500,466,l),
(516,453,o),
(535,447,o),
(551,447,cs),
(597,447,o),
(634,485,o),
(634,542,cs),
(634,614,o),
(554,699,o),
(396,699,cs),
(201,699,o),
(48,555,o),
(48,327,cs),
(48,127,o),
(193,-10,o),
(392,-10,cs)
);
}
);
width = 695;
},
{
anchors = (
{
name = bottom;
pos = (398,-10);
},
{
name = top;
pos = (387,699);
}
);
layerId = m004;
shapes = (
{
closed = 1;
nodes = (
(525,-27,o),
(631,27,o),
(687,121,c),
(559,196,l),
(532,149,o),
(464,117,o),
(392,117,cs),
(273,117,o),
(194,205,o),
(194,337,cs),
(194,473,o),
(277,569,o),
(395,569,cs),
(476,569,o),
(532,534,o),
(531,497,cs),
(531,480,o),
(519,475,o),
(513,475,cs),
(505,475,o),
(499,481,o),
(496,485,c),
(417,390,l),
(436,360,o),
(480,340,o),
(528,340,cs),
(613,340,o),
(676,400,o),
(676,487,cs),
(676,621,o),
(546,713,o),
(387,713,cs),
(179,713,o),
(26,555,o),
(26,337,cs),
(26,130,o),
(179,-27,o),
(398,-27,cs)
);
}
);
width = 710;
}
);
metricLeft = O;
unicode = 67;
userData = {
position = 570;
width = 54;
};
},
{
glyphname = C.ss01;
kernLeft = O;
kernRight = C;
layers = (
{
anchors = (
{
name = bottom;
pos = (385,-6);
},
{
name = top;
pos = (381,689);
}
);
layerId = "0CAF3BED-C4AC-4024-B3E1-4C69D1EF7EC0";
shapes = (
{
closed = 1;
nodes = (
(501,-23,o),
(605,27,o),
(660,118,c),
(598,155,l),
(559,89,o),
(480,51,o),
(387,51,cs),
(233,51,o),
(121,164,o),
(121,335,cs),
(121,506,o),
(232,631,o),
(390,631,cs),
(500,631,o),
(553,571,o),
(575,512,c),
(650,531,l),
(623,626,o),
(522,705,o),
(384,705,cs),
(192,705,o),
(37,555,o),
(37,336,cs),
(37,115,o),
(190,-23,o),
(386,-23,cs)
);
}
);
width = 680;
},
{
anchors = (
{
name = bottom;
pos = (392,-12);
},
{
name = top;
pos = (378,685);
}
);
layerId = "49C16FD3-6177-408B-A733-AEB3898BB77C";
shapes = (
{
closed = 1;
nodes = (
(500,-12,o),
(600,36,o),
(653,124,c),
(622,142,l),
(577,66,o),
(494,24,o),
(388,24,cs),
(221,24,o),
(86,146,o),
(86,336,cs),
(86,529,o),
(216,661,o),
(382,661,cs),
(513,661,o),
(592,595,o),
(614,522,c),
(648,531,l),
(621,627,o),
(522,697,o),
(384,697,cs),
(197,697,o),
(48,549,o),
(48,336,cs),
(48,123,o),
(199,-12,o),
(386,-12,cs)
);
}
);
width = 689;
},
{
anchors = (
{
name = bottom;
pos = (393,-12);
},
{
name = top;
pos = (382,696);
}
);
layerId = m004;
shapes = (
{
closed = 1;
nodes = (
(511,-28,o),
(620,27,o),
(671,120,c),
(546,196,l),
(516,149,o),
(458,120,o),
(392,120,cs),
(276,120,o),
(194,211,o),
(194,339,cs),
(194,467,o),
(275,567,o),
(387,567,cs),
(456,567,o),
(515,527,o),
(527,482,c),
(667,522,l),
(639,634,o),
(525,713,o),
(383,713,cs),
(179,713,o),
(26,552,o),
(26,342,cs),
(26,130,o),
(181,-28,o),
(390,-28,cs)
);
}
);
width = 685;
}
);
metricLeft = O;
userData = {
position = 570;
width = 54;
};
},
{
glyphname = C.swsh;
kernLeft = O;
kernRight = C;
layers = (
{
anchors = (
{
name = bottom;
pos = (390,-8);
},
{
name = top;
pos = (379,691);
}
);
layerId = "0CAF3BED-C4AC-4024-B3E1-4C69D1EF7EC0";
shapes = (
{
closed = 1;
nodes = (
(506,-24,o),
(608,31,o),
(661,120,c),
(595,158,l),
(556,90,o),
(482,52,o),
(391,52,cs),
(229,52,o),
(117,168,o),
(117,335,cs),
(117,504,o),
(231,626,o),
(391,626,cs),
(481,626,o),
(555,578,o),
(555,520,cs),
(555,497,o),
(543,481,o),
(525,481,cs),
(505,481,o),
(486,497,o),
(479,518,c),
(407,496,l),
(422,443,o),
(470,407,o),
(524,407,cs),
(589,407,o),
(635,455,o),
(635,524,cs),
(635,626,o),
(533,700,o),
(391,700,cs),
(186,700,o),
(37,546,o),
(37,335,cs),
(37,128,o),
(176,-19,o),
(388,-22,cs)
);
}
);
width = 684;
},
{
anchors = (
{
name = bottom;
pos = (394,-2);
},
{
name = top;
pos = (395,686);
}
);
layerId = "49C16FD3-6177-408B-A733-AEB3898BB77C";
shapes = (
{
closed = 1;
nodes = (
(513,-11,o),
(611,40,o),
(662,126,c),
(633,143,l),
(588,66,o),
(502,23,o),
(397,23,cs),
(219,23,o),
(86,152,o),
(86,341,cs),
(86,524,o),
(217,658,o),
(395,658,cs),
(507,658,o),
(598,601,o),
(598,530,cs),
(598,491,o),
(574,462,o),
(540,462,cs),
(504,462,o),
(479,484,o),
(470,518,c),
(437,509,l),
(450,458,o),
(487,428,o),
(540,428,cs),
(593,428,o),
(634,472,o),
(634,530,cs),
(634,619,o),
(527,692,o),
(395,692,cs),
(195,692,o),
(48,543,o),
(48,341,cs),
(48,137,o),
(194,-11,o),
(397,-11,cs)
);
}
);
width = 694;
},
{
anchors = (
{
name = bottom;
pos = (390,-12);
},
{
name = top;
pos = (385,696);
}
);
layerId = m004;
shapes = (
{
closed = 1;
nodes = (
(512,-28,o),
(621,29,o),
(671,121,c),
(546,196,l),
(514,144,o),
(462,116,o),
(394,116,cs),
(273,116,o),
(194,202,o),
(194,332,cs),
(194,471,o),
(277,570,o),
(394,570,cs),
(444,570,o),
(525,549,o),
(527,503,cs),
(528,486,o),
(520,474,o),
(508,474,cs),
(500,474,o),
(493,478,o),
(488,491,c),
(367,449,l),
(379,384,o),
(445,334,o),
(512,334,cs),
(604,334,o),
(671,405,o),
(671,505,cs),
(671,625,o),
(550,714,o),
(386,714,cs),
(180,714,o),
(26,551,o),
(26,333,cs),
(26,127,o),
(169,-28,o),
(390,-28,cs)
);
}
);
width = 695;
}
);
metricLeft = O;
userData = {
position = 570;
width = 54;
};
},
{
glyphname = D;
kernLeft = E;
kernRight = O;
layers = (
{
anchors = (
{
name = bottom;
pos = (380,-10);
},
{
name = center;
pos = (205,367);
},
{
name = top;
pos = (395,684);
}
);
hints = (
{
name = _corner.caps_left;
origin = (0,6);
type = Corner;
}
);
layerId = "0CAF3BED-C4AC-4024-B3E1-4C69D1EF7EC0";
shapes = (
{
closed = 1;
nodes = (
(584,-10,o),
(728,136,o),
(728,342,cs),
(728,535,o),
(601,684,o),
(399,684,c,{
"Letterink-NibData" = {
AngleInDegrees = 270.21459;
};
}),
(153,684,l,{
"Letterink-NibData" = {
AngleInDegrees = 180;
};
}),
(153,609,l,{
"Letterink-NibData" = {
AngleInDegrees = 90;
};
}),
(399,609,ls,{
"Letterink-NibData" = {
AngleInDegrees = 92.97373;
};
}),
(557,609,o),
(644,501,o),
(644,339,cs,{
"Letterink-NibData" = {
AngleInDegrees = 180;
};
}),
(644,163,o),
(539,65,o),
(348,65,cs,{
"Letterink-NibData" = {
AngleInDegrees = 270;
};
}),
(317,65,o),
(277,67,o),
(235,70,c),
(235,651,l,{
"Letterink-NibData" = {
AngleInDegrees = 270;
};
}),
(153,651,l,{
"Letterink-NibData" = {
AngleInDegrees = 180;
};
}),
(153,1,l,{
"Letterink-NibData" = {
AngleInDegrees = 95.10217;
};
}),
(209,-4,ls,{
"Letterink-NibData" = {
AngleInDegrees = 95.12819;
};
}),
(275,-10,o),
(298,-10,o),
(380,-10,cs,{
"Letterink-NibData" = {
AngleInDegrees = 90;
};
})
);
}
);
width = 765;
},
{
anchors = (
{
name = bottom;
pos = (338,-9);
},
{
name = center;
pos = (169,358);
},
{
name = top;
pos = (355,685);
}
);
hints = (
{
name = _corner.caps_left;
origin = (0,6);
type = Corner;
}
);
layerId = "49C16FD3-6177-408B-A733-AEB3898BB77C";
shapes = (
{
closed = 1;
nodes = (
(577,-9,o),
(711,131,o),
(711,342,cs),
(711,541,o),
(587,684,o),
(382,684,cs,{
"Letterink-NibData" = {
AngleInDegrees = 270.22037;
};
}),
(145,684,l,{
"Letterink-NibData" = {
AngleInDegrees = 180;
};
}),
(145,649,l,{
"Letterink-NibData" = {
AngleInDegrees = 90;
};
}),
(377,649,ls,{
"Letterink-NibData" = {
AngleInDegrees = 93.25195;
};
}),
(564,649,o),
(672,525,o),
(672,339,cs,{
"Letterink-NibData" = {
AngleInDegrees = 180;
};
}),
(672,141,o),
(558,26,o),
(352,26,cs,{
"Letterink-NibData" = {
AngleInDegrees = 270;
};
}),
(287,26,o),
(200,29,o),
(183,31,c),
(183,649,l,{
"Letterink-NibData" = {
AngleInDegrees = 270;
};
}),
(145,649,l,{
"Letterink-NibData" = {
AngleInDegrees = 180;
};
}),
(145,0,l,{
"Letterink-NibData" = {
AngleInDegrees = 94.18492;
};
}),
(184,-3,ls,{
"Letterink-NibData" = {
AngleInDegrees = 94.20536;
};
}),
(251,-8,o),
(295,-9,o),
(374,-9,cs,{
"Letterink-NibData" = {
AngleInDegrees = 90;
};
})
);
}
);
width = 759;
},
{
anchors = (
{
name = bottom;
pos = (434,-2);
},
{
name = center;
pos = (268,353);
},
{
name = top;
pos = (443,684);
}
);
hints = (
{
name = _corner.caps_left;
origin = (0,6);
type = Corner;
}
);
layerId = m004;
shapes = (
{
closed = 1;
nodes = (
(619,-14,o),
(774,135,o),
(774,346,cs),
(774,531,o),
(639,684,o),
(436,684,cs,{
"Letterink-NibData" = {
AngleInDegrees = "270.21459";
};
}),
(180,684,l,{
"Letterink-NibData" = {
AngleInDegrees = "180";
};
}),
(180,536,l,{
"Letterink-NibData" = {
AngleInDegrees = "90";
};
}),
(437,536,ls,{
"Letterink-NibData" = {
AngleInDegrees = "92.97373";
};
}),
(546,536,o),
(606,461,o),
(606,343,cs,{
"Letterink-NibData" = {
AngleInDegrees = "180";
};
}),
(606,217,o),
(535,141,o),
(418,141,cs,{
"Letterink-NibData" = {
AngleInDegrees = "270";
};
}),
(387,141,o),
(369,142,o),
(345,146,c),
(345,655,l,{
"Letterink-NibData" = {
AngleInDegrees = "270";
};
}),
(180,655,l,{
"Letterink-NibData" = {
AngleInDegrees = "180";
};
}),
(180,5,l,{
"Letterink-NibData" = {
AngleInDegrees = "95.10217";
};
}),
(250,-3,ls,{
"Letterink-NibData" = {
AngleInDegrees = "95.12819";
};
}),
(290,-8,o),
(323,-9,o),
(403,-10,cs,{
"Letterink-NibData" = {
AngleInDegrees = "90";
};
})
);
}
);
width = 800;
}
);
metricLeft = E;
metricRight = O;
unicode = 68;
userData = {
position = 674;
width = 60;
};
},
{
glyphname = D.ss01;
kernLeft = L;
kernRight = O;
layers = (
{
anchors = (
{
name = bottom;
pos = (306,-10);
},
{
name = center;
pos = (161,367);
},
{
name = top;
pos = (293,681);
}
);
layerId = "0CAF3BED-C4AC-4024-B3E1-4C69D1EF7EC0";
shapes = (
{
closed = 1;
nodes = (
(510,-10,o),
(654,136,o),
(654,342,cs),
(654,535,o),
(532,684,o),
(336,684,c,{
"Letterink-NibData" = {
AngleInDegrees = 270.21459;
};
}),
(79,684,l,{
"Letterink-NibData" = {
AngleInDegrees = 180;
};
}),
(79,608,l,{
"Letterink-NibData" = {
AngleInDegrees = 90;
};
}),
(325,608,l,{
"Letterink-NibData" = {
AngleInDegrees = 92.97373;
};
}),
(481,608,o),
(570,501,o),
(570,339,cs,{
"Letterink-NibData" = {
AngleInDegrees = 180;
};
}),
(570,163,o),
(465,65,o),
(274,65,cs,{
"Letterink-NibData" = {
AngleInDegrees = 270;
};
}),
(243,65,o),
(203,67,o),
(161,70,c),
(161,651,l,{
"Letterink-NibData" = {
AngleInDegrees = 270;
};
}),
(79,651,l,{
"Letterink-NibData" = {
AngleInDegrees = 180;
};
}),
(79,1,l,{
"Letterink-NibData" = {
AngleInDegrees = 95.10217;
};
}),
(135,-4,ls,{
"Letterink-NibData" = {
AngleInDegrees = 95.12819;
};
}),
(201,-10,o),
(203,-10,o),
(306,-10,cs,{
"Letterink-NibData" = {
AngleInDegrees = 90;
};
})
);
}
);
width = 691;
},
{
anchors = (
{
name = bottom;
pos = (315,-9);
},
{
name = center;
pos = (124,358);
},
{
name = top;
pos = (322,692);
}
);
layerId = "49C16FD3-6177-408B-A733-AEB3898BB77C";
shapes = (
{
closed = 1;
nodes = (
(518,-9,o),
(652,131,o),
(652,342,cs),
(652,541,o),
(529,684,o),
(335,684,c,{
"Letterink-NibData" = {
AngleInDegrees = 270.22037;
};
}),
(86,684,l,{
"Letterink-NibData" = {
AngleInDegrees = 180;
};
}),
(86,649,l,{
"Letterink-NibData" = {
AngleInDegrees = 90;
};
}),
(326,649,l,{
"Letterink-NibData" = {
AngleInDegrees = 93.25195;
};
}),
(504,649,o),
(612,525,o),
(612,339,cs,{
"Letterink-NibData" = {
AngleInDegrees = 180;
};
}),
(612,141,o),
(498,26,o),
(293,26,cs,{
"Letterink-NibData" = {
AngleInDegrees = 270;
};
}),
(228,26,o),
(141,29,o),
(124,31,c),
(124,649,l,{
"Letterink-NibData" = {
AngleInDegrees = 270;
};
}),
(86,649,l,{
"Letterink-NibData" = {
AngleInDegrees = 180;
};
}),
(86,0,l,{
"Letterink-NibData" = {
AngleInDegrees = 94.18492;
};
}),
(125,-3,ls,{
"Letterink-NibData" = {
AngleInDegrees = 94.20536;
};
}),
(192,-8,o),
(236,-9,o),
(315,-9,cs,{
"Letterink-NibData" = {
AngleInDegrees = 90;
};
})
);
}
);
width = 700;
},
{
anchors = (
{
name = bottom;
pos = (289,-10);
},
{
name = center;
pos = (181,360);
},
{
name = top;
pos = (305,685);
}
);
layerId = m004;
shapes = (
{
closed = 1;
nodes = (
(524,-14,o),
(663,151,o),
(663,346,cs),
(663,523,o),
(535,684,o),
(325,684,c,{
"Letterink-NibData" = {
AngleInDegrees = "270.21459";
};
}),
(66,684,l,{
"Letterink-NibData" = {
AngleInDegrees = "180";
};
}),
(66,532,l,{
"Letterink-NibData" = {
AngleInDegrees = "90";
};
}),
(323,532,l,{
"Letterink-NibData" = {
AngleInDegrees = "92.97373";
};
}),
(446,532,o),
(495,448,o),
(495,343,cs,{
"Letterink-NibData" = {
AngleInDegrees = "180";
};
}),
(495,212,o),
(419,141,o),
(304,141,cs,{
"Letterink-NibData" = {
AngleInDegrees = "270";
};
}),
(283,141,o),
(256,141,o),
(231,146,c),
(231,655,l,{
"Letterink-NibData" = {
AngleInDegrees = "270";
};
}),
(66,655,l,{
"Letterink-NibData" = {
AngleInDegrees = "180";
};
}),
(66,5,l,{
"Letterink-NibData" = {
AngleInDegrees = "95.10217";
};
}),
(156,-4,ls,{
"Letterink-NibData" = {
AngleInDegrees = "95.12819";
};
}),
(159,-4,o),
(163,-8,o),
(289,-10,cs,{
"Letterink-NibData" = {
AngleInDegrees = "90";
};
})
);
}
);
width = 689;
}
);
metricLeft = "=|H";
metricRight = O;
userData = {
position = 674;
width = 60;
};
},
{
glyphname = D.swsh;
kernLeft = Swash;
kernRight = O;
layers = (
{
hints = (
{
name = _corner.caps_swash;
origin = (0,6);
type = Corner;
}
);
layerId = "0CAF3BED-C4AC-4024-B3E1-4C69D1EF7EC0";
shapes = (
{
closed = 1;
nodes = (
(617,-10,o),
(761,136,o),
(761,342,cs),
(761,535,o),
(634,673,o),
(443,685,c,{
"Letterink-NibData" = {
AngleInDegrees = "270.21459";
};
}),
(186,685,l,{
"Letterink-NibData" = {
AngleInDegrees = "180";
};
}),
(186,608,l,{
"Letterink-NibData" = {
AngleInDegrees = "90";
};
}),
(432,608,l,{
"Letterink-NibData" = {
AngleInDegrees = "92.97373";
};
}),
(589,600,o),
(679,501,o),
(679,339,cs,{
"Letterink-NibData" = {
AngleInDegrees = "180";
};
}),
(679,163,o),
(573,65,o),
(381,65,cs,{
"Letterink-NibData" = {
AngleInDegrees = "270";
};
}),
(350,65,o),
(310,67,o),
(268,70,c),
(268,560,l,{
"Letterink-NibData" = {
AngleInDegrees = "270";
};
}),
(186,560,l,{
"Letterink-NibData" = {
AngleInDegrees = "180";
};
}),
(186,1,l,{
"Letterink-NibData" = {
AngleInDegrees = "95.10217";
};
}),
(242,-4,ls,{
"Letterink-NibData" = {
AngleInDegrees = "95.12819";
};
}),
(308,-10,o),
(310,-10,o),
(413,-10,cs,{
"Letterink-NibData" = {
AngleInDegrees = "90";
};
})
);
}
);
width = 798;
},
{
hints = (
{
name = _corner.caps_swash;
origin = (0,6);
type = Corner;
}
);
layerId = "49C16FD3-6177-408B-A733-AEB3898BB77C";
shapes = (
{
closed = 1;
nodes = (
(598,-9,o),
(732,131,o),
(732,342,cs),
(732,541,o),
(608,685,o),
(415,685,c,{
"Letterink-NibData" = {
AngleInDegrees = "270.22037";
};
}),
(166,685,l,{
"Letterink-NibData" = {
AngleInDegrees = "180";
};
}),
(166,649,l,{
"Letterink-NibData" = {
AngleInDegrees = "90";
};
}),
(406,649,l,{
"Letterink-NibData" = {
AngleInDegrees = 93.25195;
};
}),
(585,649,o),
(693,524,o),
(693,339,cs,{
"Letterink-NibData" = {
AngleInDegrees = "180";
};
}),
(693,141,o),
(579,26,o),
(373,26,cs,{
"Letterink-NibData" = {
AngleInDegrees = "270";
};
}),
(308,26,o),
(221,29,o),
(204,31,c),
(204,569,l,{
"Letterink-NibData" = {
AngleInDegrees = "270";
};
}),
(166,569,l,{
"Letterink-NibData" = {
AngleInDegrees = "180";
};
}),
(166,0,l,{
"Letterink-NibData" = {
AngleInDegrees = 94.18492;
};
}),
(205,-3,ls,{
"Letterink-NibData" = {
AngleInDegrees = "94.20536";
};
}),
(272,-8,o),
(316,-9,o),
(395,-9,cs,{
"Letterink-NibData" = {
AngleInDegrees = "90";
};
})
);
}
);
width = 780;
},
{
hints = (
{
name = _corner.caps_swash;
origin = (0,6);
type = Corner;
}
);
layerId = m004;
shapes = (
{
closed = 1;
nodes = (
(679,-10,o),
(818,151,o),
(818,341,cs),
(818,523,o),
(690,673,o),
(494,685,c,{
"Letterink-NibData" = {
AngleInDegrees = "270.21459";
};
}),
(222,685,l,{
"Letterink-NibData" = {
AngleInDegrees = "180";
};
}),
(222,536,l,{
"Letterink-NibData" = {
AngleInDegrees = "90";
};
}),
(479,536,l,{
"Letterink-NibData" = {
AngleInDegrees = "92.97373";
};
}),
(601,532,o),
(650,448,o),
(650,346,cs,{
"Letterink-NibData" = {
AngleInDegrees = "180";
};
}),
(650,212,o),
(566,141,o),
(457,141,cs,{
"Letterink-NibData" = {
AngleInDegrees = "270";
};
}),
(439,141,o),
(410,143,o),
(387,146,c),
(387,499,l,{
"Letterink-NibData" = {
AngleInDegrees = "270";
};
}),
(222,499,l,{
"Letterink-NibData" = {
AngleInDegrees = "180";
};
}),
(222,5,l,{
"Letterink-NibData" = {
AngleInDegrees = "95.10217";
};
}),
(312,-4,ls,{
"Letterink-NibData" = {
AngleInDegrees = "95.12819";
};
}),
(346,-7,o),
(391,-10,o),
(420,-10,cs,{
"Letterink-NibData" = {
AngleInDegrees = "90";
};
})
);
}
);
width = 844;
}
);
metricLeft = E;
metricRight = O;
userData = {
position = 674;
width = 60;
};
},
{
glyphname = E;
kernLeft = E;
kernRight = E;
layers = (
{
anchors = (
{
name = bottom;
pos = (392,0);
},
{
name = ogonek;
pos = (622,-1);
},
{
name = top;
pos = (392,684);
},
{
name = topleft;
pos = (81,684);
}
);
hints = (
{
name = _corner.caps_left;
origin = (0,10);
type = Corner;
}
);
layerId = "0CAF3BED-C4AC-4024-B3E1-4C69D1EF7EC0";
shapes = (
{
closed = 1;
nodes = (
(622,-1,l),
(622,75,l,{
"Letterink-NibData" = {
AngleInDegrees = "270";
};
}),
(235,75,l),
(235,323,l,{
"Letterink-NibData" = {
AngleInDegrees = "90";
};
}),
(506,323,l),
(506,399,l,{
"Letterink-NibData" = {
AngleInDegrees = "270";
};
}),
(235,399,l),
(235,608,l,{
"Letterink-NibData" = {
AngleInDegrees = "90";
};
}),
(603,608,l),
(603,684,l,{
"Letterink-NibData" = {
AngleInDegrees = "270";
};
}),
(153,684,l,{
"Letterink-NibData" = {
AngleInDegrees = "180";
};
}),
(153,-1,l,{
"Letterink-NibData" = {
AngleInDegrees = "90";
};
})
);
}
);
width = 645;
},
{
anchors = (
{
name = bottom;
pos = (356,7);
},
{
name = ogonek;
pos = (568,1);
},
{
name = top;
pos = (356,684);
},
{
name = topleft;
pos = (42,684);
}
);
hints = (
{
name = _corner.caps_left;
origin = (0,10);
type = Corner;
}
);
layerId = "49C16FD3-6177-408B-A733-AEB3898BB77C";
shapes = (
{
closed = 1;
nodes = (
(569,0,l),
(569,36,l,{
"Letterink-NibData" = {
AngleInDegrees = 270;
};
}),
(183,36,l),
(183,346,l,{
"Letterink-NibData" = {
AngleInDegrees = 90;
};
}),
(446,346,l),
(446,382,l,{
"Letterink-NibData" = {
AngleInDegrees = 270;
};
}),
(183,382,l),
(183,649,l,{
"Letterink-NibData" = {
AngleInDegrees = 90;
};
}),
(571,649,l),
(571,685,l,{
"Letterink-NibData" = {
AngleInDegrees = 269.86613;
};
}),
(145,684,l,{
"Letterink-NibData" = {
AngleInDegrees = 180;
};
}),
(145,0,l,{
"Letterink-NibData" = {
AngleInDegrees = 90;
};
})
);
}
);
width = 602;
},
{
anchors = (
{
name = bottom;
pos = (420,0);
},
{
name = ogonek;
pos = (642,0);
},
{
name = top;
pos = (421,684);
},
{
name = topleft;
pos = (180,684);
}
);
hints = (
{
name = _corner.caps_left;
origin = (0,10);
type = Corner;
}
);
layerId = m004;
shapes = (
{
closed = 1;
nodes = (
(642,0,l),
(642,148,l,{
"Letterink-NibData" = {
AngleInDegrees = "270";
};
}),
(346,148,l),
(346,273,l,{
"Letterink-NibData" = {
AngleInDegrees = "90";
};
}),
(546,273,l),
(546,421,l,{
"Letterink-NibData" = {
AngleInDegrees = "270";
};
}),
(346,421,l),
(346,536,l,{
"Letterink-NibData" = {
AngleInDegrees = "90";
};
}),
(632,536,l),
(632,684,l,{
"Letterink-NibData" = {
AngleInDegrees = "270";
};
}),
(180,684,l,{
"Letterink-NibData" = {
AngleInDegrees = "180";
};
}),
(180,0,l,{
"Letterink-NibData" = {
AngleInDegrees = "90";
};
})
);
}
);
width = 673;
}
);
unicode = 69;
userData = {
position = 130;
width = 61;
};
},
{
glyphname = E.ss01;
kernLeft = L;
kernRight = E;
layers = (
{
anchors = (
{
name = bottom;
pos = (317,0);
},
{
name = ogonek;
pos = (548,-1);
},
{
name = top;
pos = (319,685);
},
{
name = topleft;
pos = (15,684);
}
);
layerId = "0CAF3BED-C4AC-4024-B3E1-4C69D1EF7EC0";
shapes = (
{
closed = 1;
nodes = (
(548,-1,l),
(548,75,l,{
"Letterink-NibData" = {
AngleInDegrees = 270;
};
}),
(161,75,l),
(161,323,l,{
"Letterink-NibData" = {
AngleInDegrees = 90;
};
}),
(432,323,l),
(432,399,l,{
"Letterink-NibData" = {
AngleInDegrees = 270;
};
}),
(161,399,l),
(161,608,l,{
"Letterink-NibData" = {
AngleInDegrees = 90;
};
}),
(529,608,l),
(529,684,l,{
"Letterink-NibData" = {
AngleInDegrees = 270;
};
}),
(79,684,l,{
"Letterink-NibData" = {
AngleInDegrees = 180;
};
}),
(79,-1,l,{
"Letterink-NibData" = {
AngleInDegrees = 90;
};
})
);
}
);
width = 571;
},
{
anchors = (
{
name = bottom;
pos = (314,2);
},
{
name = ogonek;
pos = (536,1);
},
{
name = top;
pos = (312,684);
},
{
name = topleft;
pos = (20,684);
}
);
layerId = "49C16FD3-6177-408B-A733-AEB3898BB77C";
shapes = (
{
closed = 1;
nodes = (
(536,0,l),
(536,36,l,{
"Letterink-NibData" = {
AngleInDegrees = 270;
};
}),
(124,36,l),
(124,346,l,{
"Letterink-NibData" = {
AngleInDegrees = 90;
};
}),
(413,346,l),
(413,382,l,{
"Letterink-NibData" = {
AngleInDegrees = 270;
};
}),
(124,382,l),
(124,649,l,{
"Letterink-NibData" = {
AngleInDegrees = 90;
};
}),
(516,649,l),
(516,685,l,{
"Letterink-NibData" = {
AngleInDegrees = 270;
};
}),
(86,685,l,{
"Letterink-NibData" = {
AngleInDegrees = 180;
};
}),
(86,0,l,{
"Letterink-NibData" = {
AngleInDegrees = 90;
};
})
);
}
);
width = 567;
},
{
anchors = (
{
name = bottom;
pos = (322,0);
},
{
name = ogonek;
pos = (557,0);
},
{
name = top;
pos = (309,687);
},
{
name = topleft;
pos = (65,684);
}
);
layerId = m004;
shapes = (
{
closed = 1;
nodes = (
(557,0,l),
(557,148,l,{
"Letterink-NibData" = {
AngleInDegrees = 270;
};
}),
(231,148,l),
(231,273,l,{
"Letterink-NibData" = {
AngleInDegrees = 90;
};
}),
(461,273,l),
(461,411,l,{
"Letterink-NibData" = {
AngleInDegrees = 270;
};
}),
(231,411,l),
(231,536,l,{
"Letterink-NibData" = {
AngleInDegrees = 90;
};
}),
(547,536,l),
(547,684,l,{
"Letterink-NibData" = {
AngleInDegrees = 270;
};
}),
(66,684,l,{
"Letterink-NibData" = {
AngleInDegrees = 180;
};
}),
(66,0,l,{
"Letterink-NibData" = {
AngleInDegrees = 90;
};
})
);
}
);
width = 588;
}
);
metricLeft = "=|H";
metricRight = E;
userData = {
position = 95;
width = 61;
};
},
{
glyphname = E.swsh;
kernLeft = Swash;
kernRight = E;
layers = (
{
anchors = (
{
name = bottom;
pos = (441,0);
},
{
name = ogonek;
pos = (659,0);
},
{
name = top;
pos = (434,684);
},
{
name = topleft;
pos = (42,684);
}
);
hints = (
{
name = _corner.caps_swash;
origin = (1,2);
type = Corner;
}
);
layerId = "0CAF3BED-C4AC-4024-B3E1-4C69D1EF7EC0";
shapes = (
{
closed = 1;
nodes = (
(659,0,l),
(659,76,l,{
"Letterink-NibData" = {
AngleInDegrees = 270;
};
}),
(293,76,l),
(293,325,l,{
"Letterink-NibData" = {
AngleInDegrees = 90;
};
}),
(543,325,l),
(543,401,l,{
"Letterink-NibData" = {
AngleInDegrees = 270;
};
}),
(293,401,l),
(293,559,l,{
"Letterink-NibData" = {
AngleInDegrees = 270;
};
}),
(211,559,l,{
"Letterink-NibData" = {
AngleInDegrees = 180;
};
}),
(211,0,l,{
"Letterink-NibData" = {
AngleInDegrees = 90;
};
})
);
},
{
closed = 1;
nodes = (
(659,609,l),
(659,685,l,{
"Letterink-NibData" = {
AngleInDegrees = 270;
};
}),
(186,685,l,{
"Letterink-NibData" = {
AngleInDegrees = 180;
};
}),
(186,609,l,{
"Letterink-NibData" = {
AngleInDegrees = 90;
};
})
);
}
);
width = 682;
},
{
anchors = (
{
name = bottom;
pos = (421,0);
},
{
name = ogonek;
pos = (629,0);
},
{
name = top;
pos = (411,684);
},
{
name = topleft;
pos = (15,684);
}
);
hints = (
{
name = _corner.caps_swash;
origin = (1,2);
type = Corner;
}
);
layerId = "49C16FD3-6177-408B-A733-AEB3898BB77C";
shapes = (
{
closed = 1;
nodes = (
(629,0,l),
(629,36,l,{
"Letterink-NibData" = {
AngleInDegrees = 270;
};
}),
(237,36,l),
(237,346,l,{
"Letterink-NibData" = {
AngleInDegrees = 90;
};
}),
(505,346,l),
(505,382,l,{
"Letterink-NibData" = {
AngleInDegrees = 270;
};
}),
(237,382,l),
(237,570,l,{
"Letterink-NibData" = {
AngleInDegrees = 270;
};
}),
(200,570,l,{
"Letterink-NibData" = {
AngleInDegrees = 180;
};
}),
(200,0,l,{
"Letterink-NibData" = {
AngleInDegrees = 90;
};
})
);
},
{
closed = 1;
nodes = (
(629,648,l),
(629,684,l,{
"Letterink-NibData" = {
AngleInDegrees = 270;
};
}),
(166,684,l,{
"Letterink-NibData" = {
AngleInDegrees = 180;
};
}),
(166,648,l,{
"Letterink-NibData" = {
AngleInDegrees = 90;
};
})
);
}
);
width = 660;
},
{
anchors = (
{
name = bottom;
pos = (473,0);
},
{
name = ogonek;
pos = (704,0);
},
{
name = top;
pos = (461,684);
},
{
name = topleft;
pos = (13,728);
}
);
hints = (
{
name = _corner.caps_swash;
origin = (1,2);
type = Corner;
}
);
layerId = m004;
shapes = (
{
closed = 1;
nodes = (
(704,0,l),
(704,148,l,{
"Letterink-NibData" = {
AngleInDegrees = "270";
};
}),
(388,148,l),
(388,276,l,{
"Letterink-NibData" = {
AngleInDegrees = "90";
};
}),
(608,276,l),
(608,414,l,{
"Letterink-NibData" = {
AngleInDegrees = "270";
};
}),
(388,414,l),
(388,501,l,{
"Letterink-NibData" = {
AngleInDegrees = "90";
};
}),
(222,500,l,{
"Letterink-NibData" = {
AngleInDegrees = "180";
};
}),
(222,0,l,{
"Letterink-NibData" = {
AngleInDegrees = "90";
};
})
);
},
{
closed = 1;
nodes = (
(694,536,l),
(694,684,l,{
"Letterink-NibData" = {
AngleInDegrees = "270";
};
}),
(222,684,l,{
"Letterink-NibData" = {
AngleInDegrees = "180";
};
}),
(222,536,l)
);
}
);
width = 735;
}
);
metricLeft = E;
metricRight = E;
userData = {
position = 130;
width = 61;
};
},
{
glyphname = Schwa;
kernLeft = O;
kernRight = O;
layers = (
{
anchors = (
{
name = bottom;
pos = (313,-14);
},
{
name = ogonek;
pos = (534,85);
},
{
name = top;
pos = (314,701);
}
);
layerId = "49C16FD3-6177-408B-A733-AEB3898BB77C";
shapes = (
{
closed = 1;
nodes = (
(493,-16,o),
(619,128,o),
(619,365,cs,{
"Letterink-NibData" = {
AngleInDegrees = 180;
};
}),
(619,566,o),
(512,701,o),
(314,701,cs,{
"Letterink-NibData" = {
AngleInDegrees = 90;
};
}),
(228,701,o),
(146,679,o),
(75,630,c,{
"Letterink-NibData" = {
AngleInDegrees = 328.49573;
};
}),
(91,604,l,{
"Letterink-NibData" = {
AngleInDegrees = 241.38954;
};
}),
(169,648,o),
(229,668,o),
(304,668,cs,{
"Letterink-NibData" = {
AngleInDegrees = 270;
};
}),
(561,668,o),
(584,442,o),
(584,359,cs),
(584,168,o),
(476,16,o),
(311,16,cs,{
"Letterink-NibData" = {
AngleInDegrees = 90;
};
}),
(188,16,o),
(84,121,o),
(84,267,cs,{
"Letterink-NibData" = {
AngleInDegrees = 180;
};
}),
(84,278,o),
(85,315,o),
(92,351,c,{
"Letterink-NibData" = {
AngleInDegrees = 90;
};
}),
(53,351,l,{
"Letterink-NibData" = {
AngleInDegrees = 4.96974;
};
}),
(50,316,o),
(48,291,o),
(48,270,cs),
(48,99,o),
(156,-12,o),
(313,-14,cs,{
"Letterink-NibData" = {
AngleInDegrees = 270.42128;
};
})
);
},
{
closed = 1;
nodes = (
(591,318,l,{
"Letterink-NibData" = {
AngleInDegrees = 180;
};
}),
(591,351,l,{
"Letterink-NibData" = {
AngleInDegrees = 90;
};
}),
(79,351,l),
(79,318,l,{
"Letterink-NibData" = {
AngleInDegrees = 270;
};
})
);
}
);
userData = {
RMXScaler = {
height = 140;
weight = -145;
width = 135;
};
};
width = 667;
},
{
anchors = (
{
name = bottom;
pos = (319,0);
},
{
name = ogonek;
pos = (607,68);
},
{
name = top;
pos = (319,712);
}
);
layerId = "0CAF3BED-C4AC-4024-B3E1-4C69D1EF7EC0";
shapes = (
{
closed = 1;
nodes = (
(523,-15,o),
(633,177,o),
(633,369,cs,{
"Letterink-NibData" = {
AngleInDegrees = 180;
};
}),
(633,568,o),
(521,712,o),
(319,712,cs,{
"Letterink-NibData" = {
AngleInDegrees = 90;
};
}),
(226,712,o),
(131,683,o),
(63,629,c,{
"Letterink-NibData" = {
AngleInDegrees = 328.49573;
};
}),
(99,569,l,{
"Letterink-NibData" = {
AngleInDegrees = 235.0806;
};
}),
(178,621,o),
(240,635,o),
(314,635,cs,{
"Letterink-NibData" = {
AngleInDegrees = 270;
};
}),
(536,635,o),
(549,442,o),
(549,370,cs),
(549,169,o),
(444,62,o),
(319,62,cs,{
"Letterink-NibData" = {
AngleInDegrees = 90;
};
}),
(209,62,o),
(121,153,o),
(121,273,cs,{
"Letterink-NibData" = {
AngleInDegrees = 180;
};
}),
(121,301,o),
(125,337,o),
(131,377,c,{
"Letterink-NibData" = {
AngleInDegrees = 90;
};
}),
(43,377,l,{
"Letterink-NibData" = {
AngleInDegrees = 4.08562;
};
}),
(41,342,o),
(37,313,o),
(37,277,cs),
(37,113,o),
(160,-15,o),
(318,-15,cs,{
"Letterink-NibData" = {
AngleInDegrees = 270;
};
})
);
},
{
closed = 1;
nodes = (
(606,300,l,{
"Letterink-NibData" = {
AngleInDegrees = 180;
};
}),
(606,377,l,{
"Letterink-NibData" = {
AngleInDegrees = 90;
};
}),
(74,377,l),
(74,300,l,{
"Letterink-NibData" = {
AngleInDegrees = 270;
};
})
);
}
);
userData = {
RMXScaler = {
height = 140;
weight = -120;
width = 135;
};
};
width = 670;
},
{
anchors = (
{
name = bottom;
pos = (352,48);
},
{
name = ogonek;
pos = (656,96);
},
{
name = top;
pos = (348,697);
}
);
layerId = m004;
shapes = (
{
closed = 1;
nodes = (
(530,-20,o),
(651,161,o),
(651,354,cs,{
"Letterink-NibData" = {
AngleInDegrees = 180;
};
}),
(651,549,o),
(532,705,o),
(321,705,cs,{
"Letterink-NibData" = {
AngleInDegrees = 90;
};
}),
(205,705,o),
(90,659,o),
(36,592,c,{
"Letterink-NibData" = {
AngleInDegrees = 328.49573;
};
}),
(118,476,l,{
"Letterink-NibData" = {
AngleInDegrees = 235.0806;
};
}),
(169,529,o),
(241,558,o),
(310,558,cs,{
"Letterink-NibData" = {
AngleInDegrees = 270;
};
}),
(451,558,o),
(471,437,o),
(471,354,cs),
(471,198,o),
(397,129,o),
(321,129,cs,{
"Letterink-NibData" = {
AngleInDegrees = 90;
};
}),
(256,129,o),
(201,184,o),
(201,264,cs,{
"Letterink-NibData" = {
AngleInDegrees = 180;
};
}),
(201,299,o),
(201,334,o),
(212,399,c,{
"Letterink-NibData" = {
AngleInDegrees = 90;
};
}),
(35,399,l,{
"Letterink-NibData" = {
AngleInDegrees = 4.08562;
};
}),
(29,354,o),
(26,316,o),
(26,268,cs),
(26,100,o),
(150,-18,o),
(318,-19,cs,{
"Letterink-NibData" = {
AngleInDegrees = 270;
};
})
);
},
{
closed = 1;
nodes = (
(633,261,l,{
"Letterink-NibData" = {
AngleInDegrees = 180;
};
}),
(633,399,l,{
"Letterink-NibData" = {
AngleInDegrees = 90;
};
}),
(46,399,l),
(46,261,l,{
"Letterink-NibData" = {
AngleInDegrees = 270;
};
})
);
}
);
userData = {
RMXScaler = {
height = 140;
weight = 200;
width = 135;
};
};
width = 677;
}
);
metricLeft = O;
metricRight = O;
unicode = 399;
userData = {
RMXScaler = {
source = e.ss01;
};
};
},
{
glyphname = F;
kernLeft = E;
kernRight = F;
layers = (
{
anchors = (
{
name = bottom;
pos = (367,0);
},
{
name = top;
pos = (368,684);
}
);
hints = (
{
name = _corner.caps_left;
origin = (0,8);
type = Corner;
}
);
layerId = "0CAF3BED-C4AC-4024-B3E1-4C69D1EF7EC0";
shapes = (
{
closed = 1;
nodes = (
(236,-1,l),
(236,323,l,{
"Letterink-NibData" = {
AngleInDegrees = 90;
};
}),
(486,323,l),
(486,400,l,{
"Letterink-NibData" = {
AngleInDegrees = 270;
};
}),
(236,400,l),
(236,609,l,{
"Letterink-NibData" = {
AngleInDegrees = 90;
};
}),
(572,609,l),
(572,685,l,{
"Letterink-NibData" = {
AngleInDegrees = 270;
};
}),
(153,685,l,{
"Letterink-NibData" = {
AngleInDegrees = 179.91648;
};
}),
(154,-1,l,{
"Letterink-NibData" = {
AngleInDegrees = 90;
};
})
);
}
);
width = 590;
},
{
anchors = (
{
name = bottom;
pos = (359,-18);
},
{
name = top;
pos = (361,684);
}
);
hints = (
{
name = _corner.caps_left;
origin = (0,8);
type = Corner;
}
);
layerId = "49C16FD3-6177-408B-A733-AEB3898BB77C";
shapes = (
{
closed = 1;
nodes = (
(183,0,l),
(183,345,l,{
"Letterink-NibData" = {
AngleInDegrees = 90;
};
}),
(455,345,l),
(455,381,l,{
"Letterink-NibData" = {
AngleInDegrees = 270;
};
}),
(183,381,l),
(183,648,l,{
"Letterink-NibData" = {
AngleInDegrees = 90;
};
}),
(543,648,l),
(543,684,l,{
"Letterink-NibData" = {
AngleInDegrees = 270;
};
}),
(145,684,l,{
"Letterink-NibData" = {
AngleInDegrees = 180;
};
}),
(145,0,l,{
"Letterink-NibData" = {
AngleInDegrees = 90;
};
})
);
}
);
width = 568;
},
{
anchors = (
{
name = bottom;
pos = (423,-3);
},
{
name = top;
pos = (425,684);
}
);
hints = (
{
name = _corner.caps_left;
origin = (0,8);
type = Corner;
}
);
layerId = m004;
shapes = (
{
closed = 1;
nodes = (
(347,0,l),
(346,263,l,{
"Letterink-NibData" = {
AngleInDegrees = "90";
};
}),
(546,263,l),
(546,401,l,{
"Letterink-NibData" = {
AngleInDegrees = "270";
};
}),
(346,401,l),
(346,536,l,{
"Letterink-NibData" = {
AngleInDegrees = "90";
};
}),
(632,536,l),
(632,684,l,{
"Letterink-NibData" = {
AngleInDegrees = "270";
};
}),
(180,684,l,{
"Letterink-NibData" = {
AngleInDegrees = "180";
};
}),
(180,0,l,{
"Letterink-NibData" = {
AngleInDegrees = "90";
};
})
);
}
);
width = 657;
}
);
metricLeft = E;
metricRight = "=E*.8";
unicode = 70;
userData = {
position = 129;
width = 61;
};
},
{
glyphname = F.ss01;
kernLeft = L;
kernRight = F;
layers = (
{
anchors = (
{
name = bottom;
pos = (292,0);
},
{
name = top;
pos = (293,684);
}
);
layerId = "0CAF3BED-C4AC-4024-B3E1-4C69D1EF7EC0";
shapes = (
{
closed = 1;
nodes = (
(161,-1,l),
(161,315,l,{
"Letterink-NibData" = {
AngleInDegrees = 90;
};
}),
(439,315,l),
(439,393,l,{
"Letterink-NibData" = {
AngleInDegrees = 270;
};
}),
(161,393,l),
(161,608,l,{
"Letterink-NibData" = {
AngleInDegrees = 90;
};
}),
(507,608,l),
(507,686,l,{
"Letterink-NibData" = {
AngleInDegrees = 270;
};
}),
(79,686,l,{
"Letterink-NibData" = {
AngleInDegrees = 180;
};
}),
(79,-1,l,{
"Letterink-NibData" = {
AngleInDegrees = 90;
};
})
);
}
);
width = 525;
},
{
anchors = (
{
name = bottom;
pos = (284,0);
},
{
name = top;
pos = (286,684);
}
);
layerId = "49C16FD3-6177-408B-A733-AEB3898BB77C";
shapes = (
{
closed = 1;
nodes = (
(124,1,l),
(124,337,l,{
"Letterink-NibData" = {
AngleInDegrees = 90;
};
}),
(421,337,l),
(421,372,l,{
"Letterink-NibData" = {
AngleInDegrees = 270;
};
}),
(124,372,l),
(124,648,l,{
"Letterink-NibData" = {
AngleInDegrees = 90;
};
}),
(493,648,l),
(493,685,l,{
"Letterink-NibData" = {
AngleInDegrees = 270;
};
}),
(86,685,l,{
"Letterink-NibData" = {
AngleInDegrees = 180;
};
}),
(86,1,l,{
"Letterink-NibData" = {
AngleInDegrees = 90;
};
})
);
}
);
width = 518;
},
{
anchors = (
{
name = bottom;
pos = (300,-11);
},
{
name = top;
pos = (302,684);
}
);
layerId = m004;
shapes = (
{
closed = 1;
nodes = (
(233,1,l),
(232,263,l,{
"Letterink-NibData" = {
AngleInDegrees = "90";
};
}),
(452,263,l),
(452,401,l,{
"Letterink-NibData" = {
AngleInDegrees = "270";
};
}),
(232,401,l),
(232,536,l,{
"Letterink-NibData" = {
AngleInDegrees = "90";
};
}),
(538,536,l),
(538,684,l,{
"Letterink-NibData" = {
AngleInDegrees = "270";
};
}),
(66,684,l,{
"Letterink-NibData" = {
AngleInDegrees = "180";
};
}),
(66,1,l,{
"Letterink-NibData" = {
AngleInDegrees = "90";
};
})
);
}
);
width = 563;
}
);
metricLeft = N.ss01;
metricRight = F;
userData = {
position = 95;
width = 61;
};
},
{
glyphname = F.swsh;
kernLeft = Swash;
kernRight = F;
layers = (
{
anchors = (
{
name = bottom;
pos = (404,0);
},
{
name = top;
pos = (398,684);
}
);
hints = (
{
name = _corner.caps_swash;
origin = (1,2);
type = Corner;
}
);
layerId = "0CAF3BED-C4AC-4024-B3E1-4C69D1EF7EC0";
shapes = (
{
closed = 1;
nodes = (
(295,-1,l),
(295,360,l,{
"Letterink-NibData" = {
AngleInDegrees = 90;
};
}),
(259,324,l,{
"Letterink-NibData" = {
AngleInDegrees = 90;
};
}),
(544,324,l),
(544,400,l,{
"Letterink-NibData" = {
AngleInDegrees = 270;
};
}),
(259,400,l),
(295,364,l),
(295,559,l,{
"Letterink-NibData" = {
AngleInDegrees = 270;
};
}),
(212,559,l,{
"Letterink-NibData" = {
AngleInDegrees = 180;
};
}),
(212,-1,l,{
"Letterink-NibData" = {
AngleInDegrees = 90;
};
})
);
},
{
closed = 1;
nodes = (
(640,608,l),
(640,684,l,{
"Letterink-NibData" = {
AngleInDegrees = 270;
};
}),
(186,684,l,{
"Letterink-NibData" = {
AngleInDegrees = 180;
};
}),
(186,608,l,{
"Letterink-NibData" = {
AngleInDegrees = 90;
};
})
);
}
);
width = 658;
},
{
anchors = (
{
name = bottom;
pos = (381,0);
},
{
name = top;
pos = (377,684);
}
);
hints = (
{
name = _corner.caps_swash;
origin = (1,2);
type = Corner;
}
);
layerId = "49C16FD3-6177-408B-A733-AEB3898BB77C";
shapes = (
{
closed = 1;
nodes = (
(237,0,l),
(237,361,l,{
"Letterink-NibData" = {
AngleInDegrees = 90;
};
}),
(221,345,l,{
"Letterink-NibData" = {
AngleInDegrees = 90;
};
}),
(505,345,l),
(505,381,l,{
"Letterink-NibData" = {
AngleInDegrees = 270;
};
}),
(221,381,l),
(237,365,l),
(237,570,l,{
"Letterink-NibData" = {
AngleInDegrees = 270;
};
}),
(199,570,l,{
"Letterink-NibData" = {
AngleInDegrees = 180;
};
}),
(199,0,l,{
"Letterink-NibData" = {
AngleInDegrees = 90;
};
})
);
},
{
closed = 1;
nodes = (
(609,648,l),
(609,684,l,{
"Letterink-NibData" = {
AngleInDegrees = 270;
};
}),
(166,684,l,{
"Letterink-NibData" = {
AngleInDegrees = 180;
};
}),
(166,648,l,{
"Letterink-NibData" = {
AngleInDegrees = 90;
};
})
);
}
);
width = 634;
},
{
anchors = (
{
name = bottom;
pos = (474,-4);
},
{
name = top;
pos = (477,684);
}
);
hints = (
{
name = _corner.caps_swash;
origin = (1,2);
type = Corner;
}
);
layerId = m004;
shapes = (
{
closed = 1;
nodes = (
(388,0,l),
(388,334,l,{
"Letterink-NibData" = {
AngleInDegrees = "90";
};
}),
(317,263,l,{
"Letterink-NibData" = {
AngleInDegrees = "90";
};
}),
(608,263,l),
(608,401,l,{
"Letterink-NibData" = {
AngleInDegrees = "270";
};
}),
(317,401,l),
(388,340,l),
(388,499,l,{
"Letterink-NibData" = {
AngleInDegrees = "90";
};
}),
(222,499,l),
(222,0,l,{
"Letterink-NibData" = {
AngleInDegrees = "90";
};
})
);
},
{
closed = 1;
nodes = (
(694,536,l),
(694,684,l,{
"Letterink-NibData" = {
AngleInDegrees = "270";
};
}),
(222,684,l,{
"Letterink-NibData" = {
AngleInDegrees = "180";
};
}),
(222,536,l)
);
}
);
width = 719;
}
);
metricLeft = E.swsh;
metricRight = F;
userData = {
position = 129;
width = 61;
};
},
{
glyphname = G;
kernLeft = O;
kernRight = O;
layers = (
{
anchors = (
{
name = bottom;
pos = (373,-9);
},
{
name = top;
pos = (373,689);
}
);
layerId = "0CAF3BED-C4AC-4024-B3E1-4C69D1EF7EC0";
shapes = (
{
closed = 1;
nodes = (
(589,-21,o),
(697,136,o),
(691,332,cs),
(691,342,l),
(375,342,l),
(375,272,l),
(654,272,l),
(613,303,l),
(614,157,o),
(535,53,o),
(379,53,cs),
(236,53,o),
(119,163,o),
(119,339,cs),
(119,505,o),
(234,629,o),
(387,629,cs),
(519,629,o),
(565,576,o),
(565,541,cs),
(565,527,o),
(556,508,o),
(539,508,cs),
(533,508,o),
(524,509,o),
(516,514,c),
(476,454,l),
(498,439,o),
(521,434,o),
(539,434,cs),
(593,434,o),
(643,477,o),
(643,541,cs),
(643,654,o),
(521,703,o),
(387,703,cs),
(196,703,o),
(37,539,o),
(37,339,cs),
(37,127,o),
(190,-21,o),
(379,-21,cs)
);
}
);
width = 722;
},
{
anchors = (
{
name = bottom;
pos = (386,0);
},
{
name = top;
pos = (384,688);
}
);
layerId = "49C16FD3-6177-408B-A733-AEB3898BB77C";
shapes = (
{
closed = 1;
nodes = (
(570,-14,o),
(693,118,o),
(693,311,cs),
(693,330,l),
(403,330,l),
(403,292,l),
(675,292,l),
(656,311,l),
(651,132,o),
(549,20,o),
(392,20,cs),
(206,20,o),
(88,150,o),
(88,340,cs),
(88,530,o),
(219,662,o),
(384,662,cs),
(528,662,o),
(599,587,o),
(600,538,cs),
(601,514,o),
(585,485,o),
(556,485,cs),
(545,485,o),
(533,488,o),
(524,494,c),
(504,465,l),
(521,449,o),
(541,448,o),
(556,448,cs),
(597,448,o),
(638,485,o),
(638,538,cs),
(638,620,o),
(538,696,o),
(384,696,cs),
(201,696,o),
(48,555,o),
(48,340,cs),
(48,130,o),
(188,-14,o),
(392,-14,cs)
);
}
);
width = 732;
},
{
anchors = (
{
name = bottom;
pos = (378,-10);
},
{
name = top;
pos = (378,703);
}
);
layerId = m004;
shapes = (
{
closed = 1;
nodes = (
(595,-28,o),
(722,115,o),
(707,342,cs),
(706,357,l),
(385,357,l),
(385,229,l),
(631,229,l),
(556,285,l),
(559,181,o),
(496,116,o),
(391,116,cs),
(269,116,o),
(191,202,o),
(191,336,cs),
(191,474,o),
(275,569,o),
(398,569,cs),
(461,569,o),
(525,546,o),
(525,516,cs),
(525,508,o),
(521,504,o),
(515,504,cs),
(509,504,o),
(505,507,o),
(501,510,c),
(433,422,l),
(455,400,o),
(487,388,o),
(522,388,cs),
(600,388,o),
(664,450,o),
(664,527,cs),
(664,632,o),
(548,713,o),
(395,713,cs),
(181,713,o),
(26,554,o),
(26,336,cs),
(26,124,o),
(173,-28,o),
(387,-28,cs)
);
}
);
width = 732;
}
);
metricLeft = O;
note = "Bold: 98/95.5%";
unicode = 71;
userData = {
position = 593;
width = 57;
};
},
{
glyphname = G.ss01;
kernLeft = O;
kernRight = O;
layers = (
{
anchors = (
{
name = bottom;
pos = (382,-6);
},
{
name = top;
pos = (379,691);
}
);
layerId = "0CAF3BED-C4AC-4024-B3E1-4C69D1EF7EC0";
shapes = (
{
closed = 1;
nodes = (
(572,-17,o),
(698,117,o),
(698,320,cs),
(698,358,l),
(390,358,l),
(390,282,l),
(660,282,l),
(622,320,l),
(622,162,o),
(528,59,o),
(384,59,cs),
(228,59,o),
(117,178,o),
(117,345,cs),
(117,512,o),
(230,633,o),
(386,633,cs),
(485,633,o),
(567,584,o),
(589,513,c),
(661,535,l),
(631,639,o),
(519,709,o),
(385,709,cs),
(183,709,o),
(37,556,o),
(37,344,cs),
(37,133,o),
(180,-17,o),
(382,-17,cs)
);
}
);
width = 735;
},
{
anchors = (
{
name = bottom;
pos = (385,-2);
},
{
name = top;
pos = (392,694);
}
);
layerId = "49C16FD3-6177-408B-A733-AEB3898BB77C";
shapes = (
{
closed = 1;
nodes = (
(573,-12,o),
(694,120,o),
(694,319,cs),
(694,336,l),
(394,336,l),
(394,303,l),
(678,303,l),
(661,319,l),
(661,141,o),
(551,22,o),
(390,22,cs),
(215,22,o),
(86,152,o),
(86,339,cs),
(86,536,o),
(218,666,o),
(392,666,cs),
(521,666,o),
(603,596,o),
(625,524,c),
(657,535,l),
(628,625,o),
(529,699,o),
(392,699,cs),
(199,699,o),
(48,557,o),
(48,339,cs),
(48,132,o),
(192,-12,o),
(390,-12,cs)
);
}
);
width = 742;
},
{
anchors = (
{
name = bottom;
pos = (372,-12);
},
{
name = top;
pos = (386,698);
}
);
layerId = m004;
shapes = (
{
closed = 1;
nodes = (
(580,-31,o),
(717,116,o),
(717,340,c),
(717,377,l),
(400,377,l),
(400,249,l),
(643,249,l),
(569,313,l),
(569,193,o),
(503,117,o),
(388,117,cs),
(271,117,o),
(191,201,o),
(191,338,cs),
(191,467,o),
(269,565,o),
(392,565,cs),
(471,565,o),
(524,522,o),
(535,485,c),
(677,527,l),
(642,648,o),
(521,713,o),
(388,713,cs),
(181,713,o),
(26,559,o),
(26,340,cs),
(26,118,o),
(177,-31,o),
(378,-31,cs)
);
}
);
width = 743;
}
);
metricLeft = O;
metricRight = O;
userData = {
position = 593;
width = 57;
};
},
{
glyphname = G.swsh;
kernLeft = O;
kernRight = O;
layers = (
{
layerId = "0CAF3BED-C4AC-4024-B3E1-4C69D1EF7EC0";
shapes = (
{
closed = 1;
nodes = (
(624,-266,o),
(691,-216,o),
(691,-110,cs),
(691,342,l),
(615,342,l),
(615,-110,ls),
(615,-156,o),
(593,-190,o),
(553,-190,cs),
(533,-190,o),
(510,-177,o),
(498,-153,c),
(430,-187,l),
(454,-235,o),
(501,-266,o),
(553,-266,cs)
);
},
{
ref = G;
}
);
width = 725;
},
{
layerId = "49C16FD3-6177-408B-A733-AEB3898BB77C";
shapes = (
{
closed = 1;
nodes = (
(631,-258,o),
(690,-215,o),
(690,-125,cs),
(690,330,l),
(654,330,l),
(654,-125,ls),
(654,-186,o),
(615,-224,o),
(567,-224,cs),
(537,-224,o),
(509,-207,o),
(494,-176,c),
(464,-193,l),
(485,-234,o),
(521,-258,o),
(567,-258,cs)
);
},
{
ref = G;
}
);
width = 736;
},
{
layerId = m004;
shapes = (
{
closed = 1;
nodes = (
(623,-262,o),
(707,-196,o),
(707,-50,cs),
(707,312,l),
(559,312,l),
(559,-50,ls),
(559,-83,o),
(552,-114,o),
(523,-114,cs),
(513,-114,o),
(494,-105,o),
(485,-87,c),
(353,-153,l),
(386,-219,o),
(449,-262,o),
(523,-262,cs)
);
},
{
ref = G;
}
);
width = 734;
}
);
metricLeft = O;
metricRight = "=G*1.1";
userData = {
position = 593;
width = 57;
};
},
{
glyphname = H;
kernLeft = E;
layers = (
{
anchors = (
{
name = bottom;
pos = (400,0);
},
{
name = center;
pos = (400,500);
},
{
name = leftstem;
pos = (176,0);
},
{
name = top;
pos = (400,675);
},
{
name = topleft;
pos = (41,684);
}
);
hints = (
{
name = _corner.caps_vert;
origin = (0,9);
type = Corner;
}
);
layerId = "0CAF3BED-C4AC-4024-B3E1-4C69D1EF7EC0";
shapes = (
{
closed = 1;
nodes = (
(217,0,l),
(217,319,l,{
"Letterink-NibData" = {
AngleInDegrees = 90;
};
}),
(583,319,l,{
"Letterink-NibData" = {
AngleInDegrees = 180;
};
}),
(583,0,l,{
"Letterink-NibData" = {
AngleInDegrees = 90;
};
}),
(665,0,l),
(665,686,l,{
"Letterink-NibData" = {
AngleInDegrees = 270;
};
}),
(583,686,l,{
"Letterink-NibData" = {
AngleInDegrees = 180;
};
}),
(583,395,l,{
"Letterink-NibData" = {
AngleInDegrees = 270;
};
}),
(217,395,l),
(217,585,l,{
"Letterink-NibData" = {
AngleInDegrees = 269.30131;
};
}),
(135,584,l,{
"Letterink-NibData" = {
AngleInDegrees = 180;
};
}),
(135,0,l,{
"Letterink-NibData" = {
AngleInDegrees = 90;
};
})
);
}
);
width = 744;
},
{
anchors = (
{
name = bottom;
pos = (396,0);
},
{
name = center;
pos = (396,489);
},
{
name = leftstem;
pos = (164,0);
},
{
name = top;
pos = (396,685);
},
{
name = topleft;
pos = (69,684);
}
);
hints = (
{
name = _corner.caps_vert;
origin = (0,9);
type = Corner;
}
);
layerId = "49C16FD3-6177-408B-A733-AEB3898BB77C";
shapes = (
{
closed = 1;
nodes = (
(183,0,l),
(183,340,l,{
"Letterink-NibData" = {
AngleInDegrees = 90;
};
}),
(606,340,l,{
"Letterink-NibData" = {
AngleInDegrees = 180;
};
}),
(606,0,l,{
"Letterink-NibData" = {
AngleInDegrees = 90;
};
}),
(643,0,l),
(643,685,l,{
"Letterink-NibData" = {
AngleInDegrees = 270;
};
}),
(606,685,l,{
"Letterink-NibData" = {
AngleInDegrees = 180;
};
}),
(606,376,l,{
"Letterink-NibData" = {
AngleInDegrees = 270;
};
}),
(183,376,l),
(183,595,l,{
"Letterink-NibData" = {
AngleInDegrees = 270;
};
}),
(145,595,l,{
"Letterink-NibData" = {
AngleInDegrees = 180;
};
}),
(145,0,l,{
"Letterink-NibData" = {
AngleInDegrees = 90;
};
})
);
}
);
width = 729;
},
{
anchors = (
{
name = bottom;
pos = (428,0);
},
{
name = center;
pos = (428,500);
},
{
name = leftstem;
pos = (223,0);
},
{
name = top;
pos = (427,684);
},
{
name = topleft;
pos = (105,684);
}
);
hints = (
{
name = _corner.caps_vert;
origin = (0,9);
type = Corner;
}
);
layerId = m004;
shapes = (
{
closed = 1;
nodes = (
(308,0,l),
(308,275,l,{
"Letterink-NibData" = {
AngleInDegrees = "90";
};
}),
(548,275,l,{
"Letterink-NibData" = {
AngleInDegrees = "180";
};
}),
(548,0,l,{
"Letterink-NibData" = {
AngleInDegrees = "90";
};
}),
(713,0,l),
(713,684,l,{
"Letterink-NibData" = {
AngleInDegrees = "270";
};
}),
(548,684,l,{
"Letterink-NibData" = {
AngleInDegrees = "180";
};
}),
(548,413,l,{
"Letterink-NibData" = {
AngleInDegrees = "270";
};
}),
(308,413,l),
(308,526,l,{
"Letterink-NibData" = {
AngleInDegrees = "270";
};
}),
(143,526,l,{
"Letterink-NibData" = {
AngleInDegrees = "180";
};
}),
(143,0,l,{
"Letterink-NibData" = {
AngleInDegrees = "90";
};
})
);
}
);
width = 779;
}
);
unicode = 72;
userData = {
position = 554;
width = 61;
};
},
{
glyphname = H.ss01;
kernLeft = L;
layers = (
{
anchors = (
{
name = bottom;
pos = (352,0);
},
{
name = center;
pos = (352,512);
},
{
name = top;
pos = (352,684);
},
{
name = topleft;
pos = (35,684);
}
);
layerId = "0CAF3BED-C4AC-4024-B3E1-4C69D1EF7EC0";
shapes = (
{
closed = 1;
nodes = (
(161,-1,l),
(161,321,l,{
"Letterink-NibData" = {
AngleInDegrees = 90;
};
}),
(539,321,l,{
"Letterink-NibData" = {
AngleInDegrees = 180;
};
}),
(539,-1,l,{
"Letterink-NibData" = {
AngleInDegrees = 90;
};
}),
(621,-1,l),
(621,684,l,{
"Letterink-NibData" = {
AngleInDegrees = 270;
};
}),
(539,684,l,{
"Letterink-NibData" = {
AngleInDegrees = 180;
};
}),
(539,397,l,{
"Letterink-NibData" = {
AngleInDegrees = 270;
};
}),
(161,397,l),
(161,684,l,{
"Letterink-NibData" = {
AngleInDegrees = 270;
};
}),
(79,684,l,{
"Letterink-NibData" = {
AngleInDegrees = 180;
};
}),
(79,-1,l,{
"Letterink-NibData" = {
AngleInDegrees = 90;
};
})
);
}
);
width = 700;
},
{
anchors = (
{
name = bottom;
pos = (336,0);
},
{
name = center;
pos = (338,498);
},
{
name = top;
pos = (337,684);
},
{
name = topleft;
pos = (27,684);
}
);
layerId = "49C16FD3-6177-408B-A733-AEB3898BB77C";
shapes = (
{
closed = 1;
nodes = (
(124,0,l),
(124,348,l,{
"Letterink-NibData" = {
AngleInDegrees = 90;
};
}),
(552,348,l,{
"Letterink-NibData" = {
AngleInDegrees = 180;
};
}),
(552,0,l,{
"Letterink-NibData" = {
AngleInDegrees = 90;
};
}),
(590,0,l),
(590,684,l,{
"Letterink-NibData" = {
AngleInDegrees = 270;
};
}),
(552,684,l,{
"Letterink-NibData" = {
AngleInDegrees = 180;
};
}),
(552,384,l,{
"Letterink-NibData" = {
AngleInDegrees = 270;
};
}),
(124,384,l),
(124,684,l,{
"Letterink-NibData" = {
AngleInDegrees = 270;
};
}),
(86,684,l,{
"Letterink-NibData" = {
AngleInDegrees = 180;
};
}),
(86,0,l,{
"Letterink-NibData" = {
AngleInDegrees = 90;
};
})
);
}
);
width = 676;
},
{
anchors = (
{
name = bottom;
pos = (357,0);
},
{
name = center;
pos = (358,508);
},
{
name = top;
pos = (357,684);
},
{
name = topleft;
pos = (23,684);
}
);
layerId = m004;
shapes = (
{
closed = 1;
nodes = (
(231,0,l),
(231,280,l,{
"Letterink-NibData" = {
AngleInDegrees = "90";
};
}),
(482,280,l,{
"Letterink-NibData" = {
AngleInDegrees = "180";
};
}),
(482,0,l,{
"Letterink-NibData" = {
AngleInDegrees = "90";
};
}),
(647,0,l),
(647,684,l,{
"Letterink-NibData" = {
AngleInDegrees = "270";
};
}),
(482,684,l,{
"Letterink-NibData" = {
AngleInDegrees = "180";
};
}),
(482,418,l,{
"Letterink-NibData" = {
AngleInDegrees = "270";
};
}),
(231,418,l),
(231,684,l,{
"Letterink-NibData" = {
AngleInDegrees = "270";
};
}),
(66,684,l,{
"Letterink-NibData" = {
AngleInDegrees = "180";
};
}),
(66,0,l,{
"Letterink-NibData" = {
AngleInDegrees = "90";
};
})
);
}
);
width = 713;
}
);
metricLeft = "=|H";
metricRight = H;
userData = {
position = 525;
width = 61;
};
},
{
glyphname = H.swsh;
kernLeft = Swash;
layers = (
{
anchors = (
{
name = bottom;
pos = (440,0);
},
{
name = center;
pos = (440,478);
},
{
name = top;
pos = (440,675);
},
{
name = topleft;
pos = (78,684);
}
);
hints = (
{
name = _corner.caps_swash_vert;
origin = (0,9);
type = Corner;
}
);
layerId = "0CAF3BED-C4AC-4024-B3E1-4C69D1EF7EC0";
shapes = (
{
closed = 1;
nodes = (
(264,-1,l),
(264,317,l,{
"Letterink-NibData" = {
AngleInDegrees = 90;
};
}),
(630,317,l,{
"Letterink-NibData" = {
AngleInDegrees = 180;
};
}),
(630,-1,l,{
"Letterink-NibData" = {
AngleInDegrees = 90;
};
}),
(712,-1,l),
(712,686,l,{
"Letterink-NibData" = {
AngleInDegrees = 270;
};
}),
(630,686,l,{
"Letterink-NibData" = {
AngleInDegrees = 180;
};
}),
(630,395,l,{
"Letterink-NibData" = {
AngleInDegrees = 270;
};
}),
(264,395,l),
(264,559,l,{
"Letterink-NibData" = {
AngleInDegrees = 270;
};
}),
(182,559,l,{
"Letterink-NibData" = {
AngleInDegrees = 180;
};
}),
(182,-1,l,{
"Letterink-NibData" = {
AngleInDegrees = 90;
};
})
);
}
);
width = 791;
},
{
anchors = (
{
name = bottom;
pos = (428,0);
},
{
name = center;
pos = (428,450);
},
{
name = top;
pos = (428,684);
},
{
name = topleft;
pos = (95,684);
}
);
hints = (
{
name = _corner.caps_swash_vert;
origin = (0,9);
type = Corner;
}
);
layerId = "49C16FD3-6177-408B-A733-AEB3898BB77C";
shapes = (
{
closed = 1;
nodes = (
(223,1,l),
(223,340,l,{
"Letterink-NibData" = {
AngleInDegrees = 90;
};
}),
(644,340,l,{
"Letterink-NibData" = {
AngleInDegrees = 180;
};
}),
(644,1,l,{
"Letterink-NibData" = {
AngleInDegrees = 90;
};
}),
(682,1,l),
(682,685,l,{
"Letterink-NibData" = {
AngleInDegrees = 270;
};
}),
(644,685,l,{
"Letterink-NibData" = {
AngleInDegrees = 180;
};
}),
(644,376,l,{
"Letterink-NibData" = {
AngleInDegrees = 270;
};
}),
(223,376,l),
(223,570,l,{
"Letterink-NibData" = {
AngleInDegrees = 270;
};
}),
(185,570,l,{
"Letterink-NibData" = {
AngleInDegrees = 180;
};
}),
(185,1,l,{
"Letterink-NibData" = {
AngleInDegrees = 90;
};
})
);
}
);
width = 768;
},
{
anchors = (
{
name = bottom;
pos = (492,0);
},
{
name = center;
pos = (492,512);
},
{
name = top;
pos = (492,684);
},
{
name = topleft;
pos = (165,684);
}
);
hints = (
{
name = _corner.caps_swash_vert;
origin = (0,9);
type = Corner;
}
);
layerId = m004;
shapes = (
{
closed = 1;
nodes = (
(375,-1,l),
(375,275,l,{
"Letterink-NibData" = {
AngleInDegrees = "90";
};
}),
(615,275,l,{
"Letterink-NibData" = {
AngleInDegrees = "180";
};
}),
(615,-1,l,{
"Letterink-NibData" = {
AngleInDegrees = "90";
};
}),
(780,-1,l),
(780,684,l,{
"Letterink-NibData" = {
AngleInDegrees = "270";
};
}),
(615,684,l,{
"Letterink-NibData" = {
AngleInDegrees = "180";
};
}),
(615,413,l,{
"Letterink-NibData" = {
AngleInDegrees = "270";
};
}),
(375,413,l),
(375,503,l,{
"Letterink-NibData" = {
AngleInDegrees = "270";
};
}),
(210,503,l,{
"Letterink-NibData" = {
AngleInDegrees = "180";
};
}),
(210,-1,l,{
"Letterink-NibData" = {
AngleInDegrees = "90";
};
})
);
}
);
width = 846;
}
);
metricLeft = "=H";
metricRight = H;
userData = {
position = 554;
width = 61;
};
},
{
glyphname = I;
layers = (
{
anchors = (
{
name = bottom;
pos = (120,0);
},
{
name = center;
pos = (119,370);
},
{
name = ogonek;
pos = (161,-1);
},
{
name = top;
pos = (118,684);
},
{
name = topleft;
pos = (13,684);
}
);
layerId = "0CAF3BED-C4AC-4024-B3E1-4C69D1EF7EC0";
shapes = (
{
closed = 1;
nodes = (
(161,-1,l),
(161,684,l,{
"Letterink-NibData" = {
AngleInDegrees = 270;
};
}),
(79,684,l,{
"Letterink-NibData" = {
AngleInDegrees = 180;
};
}),
(79,-1,l,{
"Letterink-NibData" = {
AngleInDegrees = 90;
};
})
);
}
);
width = 240;
},
{
anchors = (
{
name = bottom;
pos = (103,0);
},
{
name = center;
pos = (103,373);
},
{
name = ogonek;
pos = (124,1);
},
{
name = top;
pos = (105,685);
},
{
name = topleft;
pos = (17,684);
}
);
layerId = "49C16FD3-6177-408B-A733-AEB3898BB77C";
shapes = (
{
closed = 1;
nodes = (
(124,1,l),
(124,684,l,{
"Letterink-NibData" = {
AngleInDegrees = 270;
};
}),
(86,684,l,{
"Letterink-NibData" = {
AngleInDegrees = 180;
};
}),
(86,1,l,{
"Letterink-NibData" = {
AngleInDegrees = 90;
};
})
);
}
);
width = 210;
},
{
anchors = (
{
name = bottom;
pos = (149,-1);
},
{
name = center;
pos = (149,339);
},
{
name = ogonek;
pos = (231,0);
},
{
name = top;
pos = (148,684);
},
{
name = topleft;
pos = (4,684);
}
);
layerId = m004;
shapes = (
{
closed = 1;
nodes = (
(231,0,l),
(231,684,l,{
"Letterink-NibData" = {
AngleInDegrees = 270;
};
}),
(66,684,l,{
"Letterink-NibData" = {
AngleInDegrees = 180;
};
}),
(66,0,l,{
"Letterink-NibData" = {
AngleInDegrees = 90;
};
})
);
}
);
width = 297;
}
);
metricLeft = "=|H";
metricRight = H;
unicode = 73;
userData = {
position = 54;
width = 61;
};
},
{
glyphname = I.swsh;
kernLeft = Swash;
layers = (
{
anchors = (
{
name = bottom;
pos = (247,0);
},
{
name = center;
pos = (246,340);
},
{
name = ogonek;
pos = (288,-1);
},
{
name = top;
pos = (247,684);
},
{
name = topleft;
pos = (140,684);
}
);
hints = (
{
name = _corner.caps_swash;
origin = (1,2);
type = Corner;
}
);
layerId = "0CAF3BED-C4AC-4024-B3E1-4C69D1EF7EC0";
shapes = (
{
closed = 1;
nodes = (
(288,0,l),
(288,684,l,{
"Letterink-NibData" = {
AngleInDegrees = 270;
};
}),
(206,684,l,{
"Letterink-NibData" = {
AngleInDegrees = 180;
};
}),
(206,0,l,{
"Letterink-NibData" = {
AngleInDegrees = 90;
};
})
);
},
{
closed = 1;
nodes = (
(251,608,l),
(251,684,l),
(186,684,l),
(186,608,l)
);
}
);
width = 367;
},
{
anchors = (
{
name = bottom;
pos = (234,0);
},
{
name = center;
pos = (233,342);
},
{
name = ogonek;
pos = (256,1);
},
{
name = top;
pos = (233,684);
},
{
name = topleft;
pos = (145,684);
}
);
hints = (
{
name = _corner.caps_swash;
origin = (1,2);
type = Corner;
}
);
layerId = "49C16FD3-6177-408B-A733-AEB3898BB77C";
shapes = (
{
closed = 1;
nodes = (
(251,1,l),
(251,684,l,{
"Letterink-NibData" = {
AngleInDegrees = 270;
};
}),
(214,684,l,{
"Letterink-NibData" = {
AngleInDegrees = 180;
};
}),
(214,1,l,{
"Letterink-NibData" = {
AngleInDegrees = 90;
};
})
);
},
{
closed = 1;
nodes = (
(220,648,l),
(220,684,l),
(166,684,l),
(166,648,l)
);
}
);
width = 337;
},
{
anchors = (
{
name = bottom;
pos = (315,0);
},
{
name = center;
pos = (319,341);
},
{
name = ogonek;
pos = (398,-1);
},
{
name = top;
pos = (318,684);
},
{
name = topleft;
pos = (167,684);
}
);
hints = (
{
name = _corner.caps_swash;
origin = (1,2);
type = Corner;
}
);
layerId = m004;
shapes = (
{
closed = 1;
nodes = (
(398,-1,l),
(398,684,l,{
"Letterink-NibData" = {
AngleInDegrees = 270;
};
}),
(233,684,l,{
"Letterink-NibData" = {
AngleInDegrees = 180;
};
}),
(233,-1,l,{
"Letterink-NibData" = {
AngleInDegrees = 90;
};
})
);
},
{
closed = 1;
nodes = (
(360,536,l),
(360,684,l),
(222,684,l,{
"Letterink-NibData" = {
AngleInDegrees = 180;
};
}),
(222,536,l)
);
}
);
width = 464;
}
);
metricLeft = E.swsh;
metricRight = H;
userData = {
position = 54;
width = 61;
};
},
{
glyphname = IJ;
kernRight = J;
layers = (
{
anchors = (
{
name = bottom;
pos = (318,0);
},
{
name = top;
pos = (318,684);
}
);
layerId = "0CAF3BED-C4AC-4024-B3E1-4C69D1EF7EC0";
shapes = (
{
closed = 1;
nodes = (
(466,-13,o),
(562,74,o),
(562,236,cs),
(562,684,l,{
"Letterink-NibData" = {
AngleInDegrees = "270";
};
}),
(487,684,l,{
"Letterink-NibData" = {
AngleInDegrees = "211.6075";
};
}),
(480,654,l),
(480,243,ls,{
"Letterink-NibData" = {
AngleInDegrees = "180";
};
}),
(480,122,o),
(417,63,o),
(318,63,cs,{
"Letterink-NibData" = {
AngleInDegrees = "270";
};
}),
(215,63,o),
(163,139,o),
(162,196,c),
(83,185,l),
(85,79,o),
(175,-13,o),
(315,-13,cs,{
"Letterink-NibData" = {
AngleInDegrees = "90";
};
})
);
},
{
pos = (0,285);
ref = I;
scale = (1,0.5845);
},
{
closed = 1;
nodes = (
(500,598,o),
(555,637,o),
(562,684,c,{
"Letterink-NibData" = {
AngleInDegrees = "270";
};
}),
(482,684,l),
(473,678,o),
(461,674,o),
(440,674,cs),
(410,674,o),
(386,699,o),
(334,699,cs),
(296,699,o),
(257,690,o),
(217,663,c),
(253,601,l),
(280,619,o),
(307,623,o),
(334,623,cs),
(364,623,o),
(388,598,o),
(440,598,cs)
);
}
);
width = 637;
},
{
anchors = (
{
name = bottom;
pos = (352,0);
},
{
name = top;
pos = (368,684);
}
);
layerId = "49C16FD3-6177-408B-A733-AEB3898BB77C";
shapes = (
{
closed = 1;
nodes = (
(454,-6,o),
(539,82,o),
(539,219,cs),
(539,684,l,{
"Letterink-NibData" = {
AngleInDegrees = "268.5679";
};
}),
(503,684,l,{
"Letterink-NibData" = {
AngleInDegrees = "184.66686";
};
}),
(501,653,l),
(501,222,ls,{
"Letterink-NibData" = {
AngleInDegrees = "180";
};
}),
(501,103,o),
(429,30,o),
(318,30,cs,{
"Letterink-NibData" = {
AngleInDegrees = "270";
};
}),
(217,30,o),
(147,85,o),
(138,177,c),
(100,172,l),
(110,64,o),
(192,-6,o),
(319,-6,cs,{
"Letterink-NibData" = {
AngleInDegrees = "90";
};
})
);
},
{
alignment = -1;
pos = (0,264);
ref = I;
scale = (1,0.6157);
},
{
closed = 1;
nodes = (
(485,633,o),
(526,649,o),
(538,684,c),
(500,684,l),
(490,673,o),
(470,669,o),
(443,669,cs),
(401,669,o),
(377,693,o),
(321,693,cs),
(286,693,o),
(246,680,o),
(221,662,c),
(240,632,l),
(258,645,o),
(293,657,o),
(321,657,cs),
(361,657,o),
(385,633,o),
(443,633,cs)
);
}
);
width = 621;
},
{
anchors = (
{
name = bottom;
pos = (384,0);
},
{
name = top;
pos = (359,684);
}
);
layerId = m004;
shapes = (
{
closed = 1;
nodes = (
(527,-27,o),
(638,77,o),
(638,244,cs),
(638,684,l,{
"Letterink-NibData" = {
AngleInDegrees = "270";
};
}),
(516,684,l,{
"Letterink-NibData" = {
AngleInDegrees = "211.6075";
};
}),
(473,632,l),
(473,247,ls,{
"Letterink-NibData" = {
AngleInDegrees = "180";
};
}),
(473,187,o),
(429,125,o),
(351,125,cs,{
"Letterink-NibData" = {
AngleInDegrees = "270";
};
}),
(284,125,o),
(227,165,o),
(221,225,c),
(69,212,l),
(76,77,o),
(182,-27,o),
(352,-27,cs,{
"Letterink-NibData" = {
AngleInDegrees = "90";
};
})
);
},
{
pos = (0,300);
ref = I;
scale = (1,0.5611);
},
{
closed = 1;
nodes = (
(549,525,o),
(637,602,o),
(638,684,c,{
"Letterink-NibData" = {
AngleInDegrees = "270";
};
}),
(500,684,l),
(498,679,o),
(487,673,o),
(472,673,cs),
(449,673,o),
(409,698,o),
(351,698,cs),
(316,698,o),
(273,688,o),
(239,666,c),
(307,538,l),
(326,548,o),
(336,550,o),
(351,550,cs),
(378,550,o),
(417,525,o),
(472,525,cs)
);
}
);
width = 701;
}
);
metricLeft = I;
metricRight = J;
unicode = 306;
userData = {
position = 507;
width = 53;
};
},
{
glyphname = IJ.ss01;
kernRight = J;
layers = (
{
layerId = "0CAF3BED-C4AC-4024-B3E1-4C69D1EF7EC0";
shapes = (
{
closed = 1;
nodes = (
(437,-13,o),
(527,74,o),
(527,212,cs),
(527,684,l,{
"Letterink-NibData" = {
AngleInDegrees = "270";
};
}),
(446,684,l,{
"Letterink-NibData" = {
AngleInDegrees = "211.6075";
};
}),
(445,215,ls,{
"Letterink-NibData" = {
AngleInDegrees = "180";
};
}),
(445,122,o),
(388,63,o),
(298,63,cs,{
"Letterink-NibData" = {
AngleInDegrees = "270";
};
}),
(208,63,o),
(163,123,o),
(162,176,c),
(83,165,l),
(85,69,o),
(167,-13,o),
(295,-13,cs,{
"Letterink-NibData" = {
AngleInDegrees = "90";
};
})
);
},
{
pos = (0,241);
ref = I;
scale = (1,0.6481);
}
);
width = 602;
},
{
layerId = "49C16FD3-6177-408B-A733-AEB3898BB77C";
shapes = (
{
closed = 1;
nodes = (
(427,-6,o),
(510,80,o),
(510,214,cs),
(510,685,l,{
"Letterink-NibData" = {
AngleInDegrees = 268.5679;
};
}),
(472,684,l,{
"Letterink-NibData" = {
AngleInDegrees = 184.66686;
};
}),
(472,217,ls,{
"Letterink-NibData" = {
AngleInDegrees = 180;
};
}),
(472,101,o),
(402,30,o),
(294,30,cs,{
"Letterink-NibData" = {
AngleInDegrees = 270;
};
}),
(204,30,o),
(136,88,o),
(127,167,c),
(89,162,l),
(98,71,o),
(174,-6,o),
(295,-6,cs,{
"Letterink-NibData" = {
AngleInDegrees = 90;
};
})
);
},
{
alignment = -1;
pos = (0,234);
ref = I;
scale = (1,0.6583);
}
);
width = 592;
},
{
layerId = m004;
shapes = (
{
closed = 1;
nodes = (
(490,-22,o),
(586,78,o),
(586,239,cs),
(586,684,l,{
"Letterink-NibData" = {
AngleInDegrees = "270";
};
}),
(421,684,l,{
"Letterink-NibData" = {
AngleInDegrees = "211.6075";
};
}),
(421,242,ls,{
"Letterink-NibData" = {
AngleInDegrees = "180";
};
}),
(421,187,o),
(391,130,o),
(323,130,cs,{
"Letterink-NibData" = {
AngleInDegrees = "270";
};
}),
(256,130,o),
(225,170,o),
(220,216,c),
(66,203,l),
(63,82,o),
(154,-22,o),
(324,-22,cs,{
"Letterink-NibData" = {
AngleInDegrees = "90";
};
})
);
},
{
pos = (7,275);
ref = I;
scale = (1,0.5969);
}
);
width = 649;
}
);
metricLeft = I;
metricRight = J;
userData = {
position = 507;
width = 53;
};
},
{
glyphname = J;
kernLeft = J;
kernRight = J;
layers = (
{
anchors = (
{
name = bottom;
pos = (265,0);
},
{
name = top;
pos = (265,689);
}
);
layerId = "0CAF3BED-C4AC-4024-B3E1-4C69D1EF7EC0";
shapes = (
{
closed = 1;
nodes = (
(368,-7,o),
(454,74,o),
(454,203,cs),
(454,689,l,{
"Letterink-NibData" = {
AngleInDegrees = 270;
};
}),
(385,689,l,{
"Letterink-NibData" = {
AngleInDegrees = 211.6075;
};
}),
(377,676,o),
(347,663,o),
(327,663,cs,{
"Letterink-NibData" = {
AngleInDegrees = 270;
};
}),
(285,663,o),
(252,698,o),
(202,698,cs,{
"Letterink-NibData" = {
AngleInDegrees = 270;
};
}),
(166,698,o),
(134,692,o),
(77,664,c,{
"Letterink-NibData" = {
AngleInDegrees = 153.09391;
};
}),
(111,597,l,{
"Letterink-NibData" = {
AngleInDegrees = 67.52057;
};
}),
(140,609,o),
(169,620,o),
(194,620,cs,{
"Letterink-NibData" = {
AngleInDegrees = 90;
};
}),
(242,620,o),
(279,587,o),
(322,587,cs,{
"Letterink-NibData" = {
AngleInDegrees = 90;
};
}),
(344,587,o),
(359,589,o),
(372,594,c,{
"Letterink-NibData" = {
AngleInDegrees = 180;
};
}),
(372,206,ls,{
"Letterink-NibData" = {
AngleInDegrees = 180;
};
}),
(372,122,o),
(319,69,o),
(235,69,cs,{
"Letterink-NibData" = {
AngleInDegrees = 270;
};
}),
(147,69,o),
(94,125,o),
(98,204,c,{
"Letterink-NibData" = {
AngleInDegrees = 274.39871;
};
}),
(20,204,l,{
"Letterink-NibData" = {
AngleInDegrees = 181.88819;
};
}),
(16,75,o),
(98,-7,o),
(232,-7,cs,{
"Letterink-NibData" = {
AngleInDegrees = 90;
};
})
);
}
);
width = 529;
},
{
anchors = (
{
name = bottom;
pos = (263,0);
},
{
name = top;
pos = (279,689);
}
);
layerId = "49C16FD3-6177-408B-A733-AEB3898BB77C";
shapes = (
{
closed = 1;
nodes = (
(357,-6,o),
(439,72,o),
(439,194,cs),
(439,688,l,{
"Letterink-NibData" = {
AngleInDegrees = "270";
};
}),
(394,688,l,{
"Letterink-NibData" = {
AngleInDegrees = "209.35776";
};
}),
(384,671,o),
(357,660,o),
(335,660,cs,{
"Letterink-NibData" = {
AngleInDegrees = "270";
};
}),
(294,660,o),
(234,696,o),
(191,696,cs,{
"Letterink-NibData" = {
AngleInDegrees = "270";
};
}),
(166,696,o),
(141,696,o),
(95,672,c,{
"Letterink-NibData" = {
AngleInDegrees = "153.43495";
};
}),
(111,640,l,{
"Letterink-NibData" = {
AngleInDegrees = 70.82099;
};
}),
(129,650,o),
(157,661,o),
(187,661,cs,{
"Letterink-NibData" = {
AngleInDegrees = "90";
};
}),
(251,661,o),
(269,625,o),
(333,625,cs,{
"Letterink-NibData" = {
AngleInDegrees = "90";
};
}),
(360,625,o),
(384,632,o),
(401,650,c,{
"Letterink-NibData" = {
AngleInDegrees = "180";
};
}),
(401,197,ls,{
"Letterink-NibData" = {
AngleInDegrees = "180";
};
}),
(401,94,o),
(335,30,o),
(232,30,cs,{
"Letterink-NibData" = {
AngleInDegrees = "270";
};
}),
(123,30,o),
(68,89,o),
(66,168,c,{
"Letterink-NibData" = {
AngleInDegrees = "275.5722";
};
}),
(29,168,l,{
"Letterink-NibData" = {
AngleInDegrees = "176.71075";
};
}),
(36,62,o),
(110,-6,o),
(229,-6,cs,{
"Letterink-NibData" = {
AngleInDegrees = "90";
};
})
);
}
);
width = 521;
},
{
anchors = (
{
name = bottom;
pos = (313,0);
},
{
name = top;
pos = (288,689);
}
);
layerId = m004;
shapes = (
{
closed = 1;
nodes = (
(419,-22,o),
(513,70,o),
(513,217,cs),
(513,697,l,{
"Letterink-NibData" = {
AngleInDegrees = 270;
};
}),
(406,697,l,{
"Letterink-NibData" = {
AngleInDegrees = 211.6075;
};
}),
(390,682,o),
(365,674,o),
(342,674,cs,{
"Letterink-NibData" = {
AngleInDegrees = 270;
};
}),
(300,674,o),
(260,696,o),
(187,696,cs,{
"Letterink-NibData" = {
AngleInDegrees = 270;
};
}),
(128,696,o),
(92,686,o),
(42,653,c,{
"Letterink-NibData" = {
AngleInDegrees = 153.09391;
};
}),
(110,521,l,{
"Letterink-NibData" = {
AngleInDegrees = 67.52057;
};
}),
(139,534,o),
(172,541,o),
(202,541,cs,{
"Letterink-NibData" = {
AngleInDegrees = 90;
};
}),
(247,541,o),
(275,524,o),
(307,524,cs,{
"Letterink-NibData" = {
AngleInDegrees = 90;
};
}),
(329,524,o),
(344,529,o),
(348,533,c,{
"Letterink-NibData" = {
AngleInDegrees = 180;
};
}),
(348,220,ls,{
"Letterink-NibData" = {
AngleInDegrees = 180;
};
}),
(348,172,o),
(319,130,o),
(264,130,cs,{
"Letterink-NibData" = {
AngleInDegrees = 270;
};
}),
(206,130,o),
(173,168,o),
(173,237,c,{
"Letterink-NibData" = {
AngleInDegrees = 274.39871;
};
}),
(19,237,l,{
"Letterink-NibData" = {
AngleInDegrees = 181.88819;
};
}),
(10,94,o),
(101,-22,o),
(265,-22,cs,{
"Letterink-NibData" = {
AngleInDegrees = 90;
};
})
);
}
);
width = 576;
}
);
metricRight = "=H*.95";
unicode = 74;
userData = {
position = 333;
width = 53;
};
},
{
glyphname = J.ss01;
kernLeft = Jtext;
kernRight = J;
layers = (
{
anchors = (
{
name = bottom;
pos = (222,-9);
},
{
name = top;
pos = (401,684);
}
);
layerId = "0CAF3BED-C4AC-4024-B3E1-4C69D1EF7EC0";
shapes = (
{
closed = 1;
nodes = (
(360,-9,o),
(444,82,o),
(444,226,cs),
(444,684,l,{
"Letterink-NibData" = {
AngleInDegrees = 270;
};
}),
(362,684,l,{
"Letterink-NibData" = {
AngleInDegrees = 180;
};
}),
(362,229,ls,{
"Letterink-NibData" = {
AngleInDegrees = 180;
};
}),
(362,120,o),
(300,67,o),
(231,67,cs,{
"Letterink-NibData" = {
AngleInDegrees = 270;
};
}),
(133,67,o),
(84,116,o),
(89,212,c,{
"Letterink-NibData" = {
AngleInDegrees = 274.39871;
};
}),
(15,212,l,{
"Letterink-NibData" = {
AngleInDegrees = 181.88819;
};
}),
(9,77,o),
(83,-9,o),
(228,-9,cs,{
"Letterink-NibData" = {
AngleInDegrees = 90;
};
})
);
}
);
width = 519;
},
{
anchors = (
{
name = bottom;
pos = (211,-6);
},
{
name = top;
pos = (404,684);
}
);
layerId = "49C16FD3-6177-408B-A733-AEB3898BB77C";
shapes = (
{
closed = 1;
nodes = (
(343,-6,o),
(422,78,o),
(422,210,cs),
(422,685,l,{
"Letterink-NibData" = {
AngleInDegrees = 268.5679;
};
}),
(384,684,l,{
"Letterink-NibData" = {
AngleInDegrees = 184.66686;
};
}),
(384,213,ls,{
"Letterink-NibData" = {
AngleInDegrees = 180;
};
}),
(384,99,o),
(318,30,o),
(217,30,cs,{
"Letterink-NibData" = {
AngleInDegrees = 270;
};
}),
(126,30,o),
(65,90,o),
(62,190,c,{
"Letterink-NibData" = {
AngleInDegrees = 275.19443;
};
}),
(22,190,l,{
"Letterink-NibData" = {
AngleInDegrees = 178.68309;
};
}),
(24,72,o),
(99,-6,o),
(218,-6,cs,{
"Letterink-NibData" = {
AngleInDegrees = 90;
};
})
);
}
);
width = 504;
},
{
anchors = (
{
name = bottom;
pos = (254,-7);
},
{
name = top;
pos = (392,684);
}
);
layerId = m004;
shapes = (
{
closed = 1;
nodes = (
(388,-22,o),
(478,74,o),
(478,227,cs),
(478,686,l,{
"Letterink-NibData" = {
AngleInDegrees = "270";
};
}),
(313,686,l,{
"Letterink-NibData" = {
AngleInDegrees = "180";
};
}),
(313,230,ls,{
"Letterink-NibData" = {
AngleInDegrees = "180";
};
}),
(313,169,o),
(287,130,o),
(238,130,cs,{
"Letterink-NibData" = {
AngleInDegrees = "270";
};
}),
(182,130,o),
(163,180,o),
(163,224,c,{
"Letterink-NibData" = {
AngleInDegrees = "274.39871";
};
}),
(16,224,l,{
"Letterink-NibData" = {
AngleInDegrees = "181.88819";
};
}),
(-1,89,o),
(85,-22,o),
(238,-22,cs,{
"Letterink-NibData" = {
AngleInDegrees = "90";
};
})
);
}
);
width = 541;
}
);
metricLeft = "=J*.75";
metricRight = J;
userData = {
position = 333;
width = 53;
};
},
{
glyphname = J.swsh;
kernLeft = J;
kernRight = J;
layers = (
{
anchors = (
{
name = bottom;
pos = (265,0);
},
{
name = top;
pos = (265,684);
}
);
layerId = "0CAF3BED-C4AC-4024-B3E1-4C69D1EF7EC0";
shapes = (
{
closed = 1;
nodes = (
(368,-12,o),
(454,73,o),
(454,208,cs),
(454,685,l,{
"Letterink-NibData" = {
AngleInDegrees = 270;
};
}),
(389,685,l,{
"Letterink-NibData" = {
AngleInDegrees = 211.6075;
};
}),
(372,626,l),
(372,211,ls,{
"Letterink-NibData" = {
AngleInDegrees = 180;
};
}),
(372,121,o),
(321,64,o),
(233,64,cs,{
"Letterink-NibData" = {
AngleInDegrees = 270;
};
}),
(149,64,o),
(95,116,o),
(98,198,c),
(20,190,l),
(24,66,o),
(104,-12,o),
(233,-12,cs,{
"Letterink-NibData" = {
AngleInDegrees = 90;
};
})
);
},
{
closed = 1;
nodes = (
(170,452,o),
(201,466,o),
(220,494,c),
(159,540,l),
(152,531,o),
(144,528,o),
(137,528,cs),
(119,528,o),
(103,548,o),
(103,572,cs),
(103,600,o),
(126,627,o),
(162,627,cs),
(227,627,o),
(302,536,o),
(438,630,c),
(390,685,l),
(293,626,o),
(248,703,o),
(171,703,cs),
(72,703,o),
(26,635,o),
(25,565,cs),
(24,493,o),
(82,451,o),
(138,452,cs)
);
}
);
width = 529;
},
{
anchors = (
{
name = bottom;
pos = (262,0);
},
{
name = top;
pos = (261,684);
}
);
layerId = "49C16FD3-6177-408B-A733-AEB3898BB77C";
shapes = (
{
closed = 1;
nodes = (
(356,-6,o),
(438,77,o),
(438,204,cs),
(438,686,l,{
"Letterink-NibData" = {
AngleInDegrees = 270;
};
}),
(407,686,l,{
"Letterink-NibData" = {
AngleInDegrees = 180;
};
}),
(400,662,l),
(400,207,ls,{
"Letterink-NibData" = {
AngleInDegrees = 180;
};
}),
(400,98,o),
(334,30,o),
(228,30,cs,{
"Letterink-NibData" = {
AngleInDegrees = 270;
};
}),
(136,30,o),
(72,82,o),
(65,173,c),
(29,169,l),
(41,61,o),
(117,-6,o),
(230,-6,cs,{
"Letterink-NibData" = {
AngleInDegrees = 90;
};
})
);
},
{
closed = 1;
nodes = (
(168,484,o),
(191,496,o),
(208,519,c),
(182,538,l),
(169,523,o),
(155,516,o),
(139,516,cs),
(106,515,o),
(82,545,o),
(82,581,cs),
(81,624,o),
(114,666,o),
(168,666,cs),
(245,666,o),
(314,580,o),
(424,659,c),
(407,686,l,{
"Letterink-NibData" = {
AngleInDegrees = 180;
};
}),
(316,626,o),
(245,702,o),
(165,702,cs),
(89,702,o),
(44,639,o),
(45,578,cs),
(46,518,o),
(95,481,o),
(143,483,cs)
);
}
);
width = 520;
},
{
anchors = (
{
name = bottom;
pos = (314,0);
},
{
name = top;
pos = (238,692);
}
);
layerId = m004;
shapes = (
{
closed = 1;
nodes = (
(421,-31,o),
(514,62,o),
(514,208,cs),
(514,677,l,{
"Letterink-NibData" = {
AngleInDegrees = 270;
};
}),
(375,677,l,{
"Letterink-NibData" = {
AngleInDegrees = 211.6075;
};
}),
(346,536,l),
(349,211,ls,{
"Letterink-NibData" = {
AngleInDegrees = 180;
};
}),
(349,158,o),
(324,121,o),
(270,121,cs,{
"Letterink-NibData" = {
AngleInDegrees = 270;
};
}),
(213,121,o),
(184,163,o),
(187,231,c),
(31,219,l),
(17,73,o),
(103,-31,o),
(266,-31,cs,{
"Letterink-NibData" = {
AngleInDegrees = 90;
};
})
);
},
{
closed = 1;
nodes = (
(206,377,o),
(266,390,o),
(304,441,c),
(204,519,l),
(200,515,o),
(195,513,o),
(190,513,cs),
(180,513,o),
(170,522,o),
(170,535,cs),
(170,552,o),
(186,558,o),
(204,558,cs),
(270,558,o),
(346,487,o),
(467,577,c),
(375,677,l,{
"Letterink-NibData" = {
AngleInDegrees = 211.6075;
};
}),
(342,654,o),
(261,706,o),
(199,706,cs),
(85,706,o),
(14,623,o),
(18,530,cs),
(21,459,o),
(69,384,o),
(162,379,cs)
);
}
);
width = 577;
}
);
metricLeft = J;
metricRight = J;
userData = {
position = 333;
width = 53;
};
},
{
glyphname = K;
kernLeft = E;
kernRight = K;
layers = (
{
anchors = (
{
name = bottom;
pos = (330,2);
},
{
name = top;
pos = (330,684);
}
);
hints = (
{
name = _corner.caps_vert;
origin = (1,1);
type = Corner;
}
);
layerId = "0CAF3BED-C4AC-4024-B3E1-4C69D1EF7EC0";
shapes = (
{
closed = 1;
nodes = (
(643,-20,o),
(665,1,o),
(679,19,c),
(626,65,l),
(621,58,o),
(613,54,o),
(602,54,cs),
(582,54,o),
(564,73,o),
(546,106,cs),
(493,208,o),
(498,370,o),
(278,381,c),
(275,319,l),
(426,296,o),
(413,183,o),
(475,66,cs),
(500,19,o),
(542,-20,o),
(598,-20,cs)
);
},
{
closed = 1;
nodes = (
(217,0,l),
(217,583,l,{
"Letterink-NibData" = {
AngleInDegrees = 270;
};
}),
(135,583,l,{
"Letterink-NibData" = {
AngleInDegrees = 180;
};
}),
(135,0,l,{
"Letterink-NibData" = {
AngleInDegrees = 90;
};
})
);
},
{
closed = 1;
nodes = (
(265,319,l),
(520,322,o),
(539,522,o),
(582,684,c),
(498,684,l),
(456,527,o),
(449,393,o),
(269,393,c),
(158,393,l),
(158,319,l)
);
}
);
width = 686;
},
{
anchors = (
{
name = bottom;
pos = (326,0);
},
{
name = top;
pos = (326,684);
}
);
hints = (
{
name = _corner.caps_vert;
origin = (1,1);
type = Corner;
}
);
layerId = "49C16FD3-6177-408B-A733-AEB3898BB77C";
shapes = (
{
closed = 1;
nodes = (
(629,-5,o),
(646,18,o),
(652,26,c),
(626,48,l),
(617,37,o),
(607,31,o),
(592,31,cs),
(565,31,o),
(550,53,o),
(525,97,cs),
(464,204,o),
(463,342,o),
(266,379,c),
(261,343,l),
(419,319,o),
(425,198,o),
(494,75,cs),
(509,48,o),
(538,-5,o),
(589,-5,cs)
);
},
{
closed = 1;
nodes = (
(183,2,l,{
"Letterink-NibData" = {
AngleInDegrees = 359.89895;
};
}),
(183,598,l,{
"Letterink-NibData" = {
AngleInDegrees = 270;
};
}),
(145,598,l,{
"Letterink-NibData" = {
AngleInDegrees = 180;
};
}),
(145,2,l,{
"Letterink-NibData" = {
AngleInDegrees = 90;
};
})
);
},
{
closed = 1;
nodes = (
(255,343,l),
(470,343,o),
(530,517,o),
(564,684,c),
(525,684,l),
(497,554,o),
(452,380,o),
(256,380,c),
(161,380,l),
(161,343,l)
);
}
);
width = 674;
},
{
anchors = (
{
name = bottom;
pos = (404,0);
},
{
name = top;
pos = (401,684);
}
);
hints = (
{
name = _corner.caps_vert;
origin = (1,1);
type = Corner;
}
);
layerId = m004;
shapes = (
{
closed = 1;
nodes = (
(679,-24,o),
(722,-2,o),
(755,42,c),
(660,126,l),
(657,122,o),
(653,119,o),
(644,119,cs),
(632,119,o),
(613,144,o),
(600,180,cs),
(580,235,o),
(549,371,o),
(371,384,c),
(343,287,l),
(420,273,o),
(431,175,o),
(462,93,cs),
(489,21,o),
(545,-24,o),
(625,-24,cs)
);
},
{
closed = 1;
nodes = (
(310,-4,l),
(308,528,l,{
"Letterink-NibData" = {
AngleInDegrees = 270;
};
}),
(143,528,l,{
"Letterink-NibData" = {
AngleInDegrees = 180;
};
}),
(143,-4,l,{
"Letterink-NibData" = {
AngleInDegrees = 90;
};
})
);
},
{
closed = 1;
nodes = (
(319,287,l),
(578,287,o),
(636,488,o),
(672,684,c),
(507,684,l),
(481,560,o),
(447,425,o),
(316,425,c),
(217,425,l),
(217,287,l)
);
}
);
width = 758;
}
);
metricLeft = H;
unicode = 75;
userData = {
position = 542;
width = 57;
};
},
{
glyphname = K.ss01;
kernRight = K;
layers = (
{
anchors = (
{
name = bottom;
pos = (306,0);
},
{
name = top;
pos = (306,684);
}
);
layerId = "0CAF3BED-C4AC-4024-B3E1-4C69D1EF7EC0";
shapes = (
{
closed = 1;
nodes = (
(161,0,l),
(161,684,l,{
"Letterink-NibData" = {
AngleInDegrees = 270;
};
}),
(79,684,l,{
"Letterink-NibData" = {
AngleInDegrees = 180;
};
}),
(79,0,l,{
"Letterink-NibData" = {
AngleInDegrees = 90;
};
})
);
},
{
closed = 1;
nodes = (
(226,320,ls),
(437,322,o),
(499,522,o),
(542,684,c),
(458,684,l),
(416,527,o),
(368,393,o),
(227,393,cs),
(118,393,l),
(118,319,l)
);
},
{
closed = 1;
nodes = (
(513,81,o),
(475,158,o),
(433,232,cs),
(384,318,o),
(323,378,o),
(226,383,c),
(226,320,l),
(281,314,o),
(318,268,o),
(361,192,cs),
(403,119,o),
(456,9,o),
(565,-13,c),
(581,67,l)
);
}
);
width = 597;
},
{
anchors = (
{
name = bottom;
pos = (290,0);
},
{
name = top;
pos = (289,684);
}
);
layerId = "49C16FD3-6177-408B-A733-AEB3898BB77C";
shapes = (
{
closed = 1;
nodes = (
(124,1,l,{
"Letterink-NibData" = {
AngleInDegrees = 359.91599;
};
}),
(124,684,l,{
"Letterink-NibData" = {
AngleInDegrees = 270;
};
}),
(86,684,l,{
"Letterink-NibData" = {
AngleInDegrees = 180;
};
}),
(86,1,l,{
"Letterink-NibData" = {
AngleInDegrees = 90;
};
})
);
},
{
closed = 1;
nodes = (
(201,343,l),
(408,343,o),
(476,517,o),
(510,684,c),
(471,684,l),
(443,554,o),
(398,380,o),
(202,380,c),
(107,380,l),
(107,343,l)
);
},
{
closed = 1;
nodes = (
(496.583,44.528,o),
(455.958,134.582,o),
(413.719,213.025,c),
(367.205,298.976,o),
(319,373,o),
(216,373,c),
(216,343,l),
(297,343,o),
(334.795,279.024,o),
(380.281,194.975,c),
(421.947,117.594,o),
(469.612,11.43,o),
(568.033,-9.581,c),
(575.967,27.581,l)
);
}
);
width = 599;
},
{
anchors = (
{
name = bottom;
pos = (334,0);
},
{
name = top;
pos = (334,684);
}
);
layerId = m004;
shapes = (
{
closed = 1;
nodes = (
(231,0,l),
(231,684,l,{
"Letterink-NibData" = {
AngleInDegrees = 270;
};
}),
(66,684,l,{
"Letterink-NibData" = {
AngleInDegrees = 180;
};
}),
(66,0,l,{
"Letterink-NibData" = {
AngleInDegrees = 90;
};
})
);
},
{
closed = 1;
nodes = (
(269,287,ls),
(528,287,o),
(586,488,o),
(622,684,c),
(457,684,l),
(429,560,o),
(397,425,o),
(266,425,cs),
(167,425,l),
(167,287,l)
);
},
{
closed = 1;
nodes = (
(596,136,o),
(566,162,o),
(502,275,cs),
(452,364,o),
(363,418,o),
(259,418,c),
(259,287,l),
(299,283,o),
(332,244,o),
(372,166,cs),
(427,57,o),
(512,-15,o),
(604,-32,c),
(636,130,l)
);
}
);
width = 657;
},
{
anchors = (
{
name = bottom;
pos = (351,0);
},
{
name = top;
pos = (334,684);
}
);
associatedMasterId = m004;
layerId = "08C25A10-20A5-46B3-A5E8-5B31FFDBA5A3";
name = "Oct 30, 24 at 08:42";
shapes = (
{
closed = 1;
nodes = (
(231,0,l),
(231,684,l,{
"Letterink-NibData" = {
AngleInDegrees = 270;
};
}),
(66,684,l,{
"Letterink-NibData" = {
AngleInDegrees = 180;
};
}),
(66,0,l,{
"Letterink-NibData" = {
AngleInDegrees = 90;
};
})
);
},
{
closed = 1;
nodes = (
(642,135,l),
(616,135,o),
(601,142,o),
(582,173,cs),
(526,264,o),
(465,376,o),
(425,416,c),
(309,312,l),
(322,298,o),
(387,182,o),
(447,85,cs),
(480,32,o),
(530,-23,o),
(642,-23,c)
);
},
{
closed = 1;
nodes = (
(289,287,l),
(548,287,o),
(606,488,o),
(642,684,c),
(477,684,l),
(444,560,o),
(417,425,o),
(286,425,c),
(187,425,l),
(187,287,l)
);
},
{
closed = 0;
nodes = (
(317,373,l),
(382,365,o),
(412,301,o),
(458,220,cs),
(500,146,o),
(551,63,o),
(640,45,c)
);
}
);
width = 666;
},
{
anchors = (
{
name = bottom;
pos = (306,0);
},
{
name = top;
pos = (306,684);
}
);
associatedMasterId = "0CAF3BED-C4AC-4024-B3E1-4C69D1EF7EC0";
layerId = "C4F6D6F7-9CB3-4F52-8FD6-72F6E42DA14B";
name = "Oct 30, 24 at 08:45";
shapes = (
{
closed = 1;
nodes = (
(161,0,l),
(161,684,l,{
"Letterink-NibData" = {
AngleInDegrees = 270;
};
}),
(79,684,l,{
"Letterink-NibData" = {
AngleInDegrees = 180;
};
}),
(79,0,l,{
"Letterink-NibData" = {
AngleInDegrees = 90;
};
})
);
},
{
closed = 1;
nodes = (
(603,54,l),
(576,54,o),
(562,75,o),
(541,110,cs),
(486,198,o),
(396,362,o),
(364,394,c),
(306,342,l),
(325,323,o),
(413,165,o),
(471,70,cs),
(501,24,o),
(536,-20,o),
(603,-20,c)
);
},
{
closed = 1;
nodes = (
(204,319,l),
(459,322,o),
(499,522,o),
(542,684,c),
(458,684,l),
(416,527,o),
(379,393,o),
(199,393,c),
(118,393,l),
(118,319,l)
);
}
);
width = 618;
}
);
metricLeft = "=|H";
userData = {
position = 542;
width = 57;
};
},
{
glyphname = K.swsh;
kernLeft = Swash;
kernRight = K;
layers = (
{
anchors = (
{
name = bottom;
pos = (375,0);
},
{
name = top;
pos = (373,684);
}
);
hints = (
{
name = _corner.caps_swash_vert;
origin = (1,1);
type = Corner;
}
);
layerId = "0CAF3BED-C4AC-4024-B3E1-4C69D1EF7EC0";
shapes = (
{
closed = 1;
nodes = (
(703,-20,o),
(743,10,o),
(753,50,c),
(681,73,l),
(677,62,o),
(667,56,o),
(655,56,cs),
(639,56,o),
(625,65,o),
(599,111,cs),
(543,211,o),
(512,380,o),
(335,387,c),
(335,321,l),
(445,306,o),
(464,186,o),
(529,71,cs),
(567,4,o),
(611,-20,o),
(655,-20,cs)
);
},
{
closed = 1;
nodes = (
(264,0,l),
(264,560,l,{
"Letterink-NibData" = {
AngleInDegrees = 270;
};
}),
(182,560,l,{
"Letterink-NibData" = {
AngleInDegrees = 180;
};
}),
(182,0,l,{
"Letterink-NibData" = {
AngleInDegrees = 90;
};
})
);
},
{
closed = 1;
nodes = (
(310,319,l),
(565,322,o),
(584,522,o),
(627,684,c),
(543,684,l),
(501,527,o),
(494,393,o),
(314,393,c),
(203,393,l),
(203,319,l)
);
}
);
width = 762;
},
{
anchors = (
{
name = bottom;
pos = (359,0);
},
{
name = top;
pos = (361,684);
}
);
hints = (
{
name = _corner.caps_swash_vert;
origin = (1,1);
type = Corner;
}
);
layerId = "49C16FD3-6177-408B-A733-AEB3898BB77C";
shapes = (
{
closed = 1;
nodes = (
(671,-9,o),
(705,10,o),
(715,45,c),
(682,54,l),
(676,39,o),
(663,27,o),
(636,27,cs),
(605,27,o),
(578,61,o),
(562,91,cs),
(506,197,o),
(489,357,o),
(318,377,c),
(318,344,l),
(456,326,o),
(469,186,o),
(530,71,cs),
(553,27,o),
(591,-9,o),
(636,-9,cs)
);
},
{
closed = 1;
nodes = (
(226,0,l),
(223,576,l,{
"Letterink-NibData" = {
AngleInDegrees = 270;
};
}),
(185,576,l,{
"Letterink-NibData" = {
AngleInDegrees = 180;
};
}),
(185,0,l,{
"Letterink-NibData" = {
AngleInDegrees = 90;
};
})
);
},
{
closed = 1;
nodes = (
(295,343,l),
(510,343,o),
(570,517,o),
(604,684,c),
(565,684,l),
(537,554,o),
(492,380,o),
(296,380,c),
(201,380,l),
(201,343,l)
);
}
);
width = 738;
},
{
anchors = (
{
name = bottom;
pos = (487,0);
},
{
name = top;
pos = (481,684);
}
);
hints = (
{
name = _corner.caps_swash_vert;
origin = (1,1);
type = Corner;
}
);
layerId = m004;
shapes = (
{
closed = 1;
nodes = (
(782,-31,o),
(855,8,o),
(867,98,c),
(730,132,l),
(728,128,o),
(725,124,o),
(719,124,cs),
(703,124,o),
(691,146,o),
(682,167,cs),
(650,239,o),
(615,373,o),
(455,413,c),
(418,286,l),
(480,269,o),
(515,161,o),
(552,83,cs),
(588,7,o),
(650,-31,o),
(723,-31,cs)
);
},
{
closed = 1;
nodes = (
(378,0,l),
(375,507,l,{
"Letterink-NibData" = {
AngleInDegrees = 270;
};
}),
(210,507,l,{
"Letterink-NibData" = {
AngleInDegrees = 180;
};
}),
(210,0,l,{
"Letterink-NibData" = {
AngleInDegrees = 90;
};
})
);
},
{
closed = 1;
nodes = (
(428,286,l),
(613,285,o),
(706,488,o),
(742,684,c),
(577,684,l),
(551,560,o),
(517,425,o),
(403,425,c),
(287,425,l),
(287,287,l)
);
}
);
width = 874;
}
);
metricLeft = H.swsh;
userData = {
position = 542;
width = 57;
};
},
{
glyphname = L;
kernRight = L;
layers = (
{
anchors = (
{
name = bottom;
pos = (300,0);
},
{
name = center;
pos = (121,406);
},
{
name = top;
pos = (121,684);
},
{
name = topright;
pos = (326,449);
}
);
layerId = "0CAF3BED-C4AC-4024-B3E1-4C69D1EF7EC0";
shapes = (
{
closed = 1;
nodes = (
(508,-1,l),
(508,75,l,{
"Letterink-NibData" = {
AngleInDegrees = 270;
};
}),
(161,75,l),
(161,684,l,{
"Letterink-NibData" = {
AngleInDegrees = 270;
};
}),
(79,684,l,{
"Letterink-NibData" = {
AngleInDegrees = 180;
};
}),
(79,-1,l,{
"Letterink-NibData" = {
AngleInDegrees = 90;
};
})
);
}
);
width = 521;
},
{
anchors = (
{
name = bottom;
pos = (281,0);
},
{
name = center;
pos = (124,394);
},
{
name = top;
pos = (105,683);
},
{
name = topright;
pos = (304,448);
}
);
layerId = "49C16FD3-6177-408B-A733-AEB3898BB77C";
shapes = (
{
closed = 1;
nodes = (
(502,0,l),
(502,36,l,{
"Letterink-NibData" = {
AngleInDegrees = 270;
};
}),
(124,36,l),
(124,684,l,{
"Letterink-NibData" = {
AngleInDegrees = 270;
};
}),
(86,684,l,{
"Letterink-NibData" = {
AngleInDegrees = 180;
};
}),
(86,0,l,{
"Letterink-NibData" = {
AngleInDegrees = 90;
};
})
);
}
);
width = 525;
},
{
anchors = (
{
name = bottom;
pos = (311,1);
},
{
name = center;
pos = (144,390);
},
{
name = top;
pos = (149,684);
},
{
name = topright;
pos = (305,436);
}
);
layerId = m004;
shapes = (
{
closed = 1;
nodes = (
(546,0,l),
(546,148,l,{
"Letterink-NibData" = {
AngleInDegrees = 270;
};
}),
(231,148,l),
(231,684,l,{
"Letterink-NibData" = {
AngleInDegrees = 270;
};
}),
(66,684,l,{
"Letterink-NibData" = {
AngleInDegrees = 180;
};
}),
(66,0,l,{
"Letterink-NibData" = {
AngleInDegrees = 90;
};
})
);
}
);
width = 560;
}
);
metricLeft = "=|H";
unicode = 76;
userData = {
position = 54;
width = 61;
};
},
{
glyphname = L.swsh;
kernLeft = Swash;
kernRight = L;
layers = (
{
anchors = (
{
name = bottom;
pos = (409,11);
},
{
name = center;
pos = (283,342);
},
{
name = top;
pos = (244,684);
},
{
name = topright;
pos = (288,559);
}
);
hints = (
{
name = _corner.caps_swash;
origin = (1,2);
type = Corner;
}
);
layerId = "0CAF3BED-C4AC-4024-B3E1-4C69D1EF7EC0";
shapes = (
{
closed = 1;
nodes = (
(631,-1,l),
(631,75,l,{
"Letterink-NibData" = {
AngleInDegrees = 270;
};
}),
(284,75,l),
(284,684,l,{
"Letterink-NibData" = {
AngleInDegrees = 270;
};
}),
(202,684,l,{
"Letterink-NibData" = {
AngleInDegrees = 180;
};
}),
(202,-1,l,{
"Letterink-NibData" = {
AngleInDegrees = 90;
};
})
);
},
{
closed = 1;
nodes = (
(244,608,l),
(244,684,l),
(186,684,l),
(186,608,l)
);
}
);
width = 644;
},
{
anchors = (
{
name = bottom;
pos = (405,-10);
},
{
name = center;
pos = (355,342);
},
{
name = top;
pos = (405,696);
},
{
name = topright;
pos = (566,684);
}
);
hints = (
{
name = _corner.caps_swash;
origin = (1,2);
type = Corner;
}
);
layerId = "49C16FD3-6177-408B-A733-AEB3898BB77C";
shapes = (
{
closed = 1;
nodes = (
(616,1,l),
(616,37,l,{
"Letterink-NibData" = {
AngleInDegrees = 270;
};
}),
(249,37,l),
(249,683,l,{
"Letterink-NibData" = {
AngleInDegrees = 270;
};
}),
(211,683,l,{
"Letterink-NibData" = {
AngleInDegrees = 180;
};
}),
(211,1,l,{
"Letterink-NibData" = {
AngleInDegrees = 90;
};
})
);
},
{
closed = 1;
nodes = (
(220,647,l),
(220,683,l),
(166,683,l),
(166,647,l)
);
}
);
width = 639;
},
{
anchors = (
{
name = bottom;
pos = (470,0);
},
{
name = center;
pos = (330,345);
},
{
name = top;
pos = (314,683);
},
{
name = topright;
pos = (398,520);
}
);
hints = (
{
name = _corner.caps_swash;
origin = (1,2);
type = Corner;
}
);
layerId = m004;
shapes = (
{
closed = 1;
nodes = (
(704,1,l),
(704,149,l,{
"Letterink-NibData" = {
AngleInDegrees = "270";
};
}),
(395,149,l),
(395,684,l,{
"Letterink-NibData" = {
AngleInDegrees = "270";
};
}),
(230,684,l,{
"Letterink-NibData" = {
AngleInDegrees = "180";
};
}),
(230,1,l,{
"Letterink-NibData" = {
AngleInDegrees = "90";
};
})
);
},
{
closed = 1;
nodes = (
(277,536,l),
(277,684,l),
(222,684,l),
(222,536,l)
);
}
);
width = 718;
}
);
metricLeft = I.swsh;
metricRight = L;
userData = {
position = 54;
width = 61;
};
},
{
glyphname = M;
kernLeft = A;
kernRight = M;
layers = (
{
anchors = (
{
name = bottom;
pos = (528,0);
},
{
name = top;
pos = (526,684);
}
);
hints = (
{
name = _corner.caps_diag;
options = 1;
origin = (0,14);
scale = (-1,1);
type = Corner;
}
);
layerId = "0CAF3BED-C4AC-4024-B3E1-4C69D1EF7EC0";
shapes = (
{
closed = 1;
nodes = (
(569,-1,l,{
"Letterink-NibData" = {
AngleInDegrees = 19.82904;
};
}),
(759,537,l,{
"Letterink-NibData" = {
AngleInDegrees = 10.61966;
};
}),
(764,562,l,{
"Letterink-NibData" = {
AngleInDegrees = 176.42367;
};
}),
(767,537,l,{
"Letterink-NibData" = {
AngleInDegrees = 168.64911;
};
}),
(873,-1,l,{
"Letterink-NibData" = {
AngleInDegrees = 90;
};
}),
(957,-1,l,{
"Letterink-NibData" = {
AngleInDegrees = 348.40167;
};
}),
(816,684,l,{
"Letterink-NibData" = {
AngleInDegrees = 270;
};
}),
(730,684,l,{
"Letterink-NibData" = {
AngleInDegrees = 200.24505;
};
}),
(539,147,l,{
"Letterink-NibData" = {
AngleInDegrees = 195.78075;
};
}),
(529,101,l,{
"Letterink-NibData" = {
AngleInDegrees = 344.21925;
};
}),
(517,146,l,{
"Letterink-NibData" = {
AngleInDegrees = 339.94696;
};
}),
(324,684,l,{
"Letterink-NibData" = {
AngleInDegrees = 270;
};
}),
(241,684,l,{
"Letterink-NibData" = {
AngleInDegrees = 191.97887;
};
}),
(116,82,l,{
"Letterink-NibData" = {
AngleInDegrees = 201.80141;
};
}),
(192,66,l,{
"Letterink-NibData" = {
AngleInDegrees = 11.90108;
};
}),
(288,531,l,{
"Letterink-NibData" = {
AngleInDegrees = 7.76516;
};
}),
(291,556,l,{
"Letterink-NibData" = {
AngleInDegrees = 172.23484;
};
}),
(296,531,l,{
"Letterink-NibData" = {
AngleInDegrees = 160.25072;
};
}),
(486,-1,l,{
"Letterink-NibData" = {
AngleInDegrees = 90;
};
})
);
}
);
width = 979;
},
{
anchors = (
{
name = bottom;
pos = (553,1);
},
{
name = top;
pos = (552,683);
}
);
hints = (
{
name = _corner.caps_diag;
options = 1;
origin = (0,14);
scale = (-1,1);
type = Corner;
}
);
layerId = "49C16FD3-6177-408B-A733-AEB3898BB77C";
shapes = (
{
closed = 1;
nodes = (
(577,1,l,{
"Letterink-NibData" = {
AngleInDegrees = 19.8453;
};
}),
(783,572,l,{
"Letterink-NibData" = {
AngleInDegrees = 15.73201;
};
}),
(805,649,l,{
"Letterink-NibData" = {
AngleInDegrees = 170.40687;
};
}),
(818,572,l,{
"Letterink-NibData" = {
AngleInDegrees = 168.65127;
};
}),
(935,0,l,{
"Letterink-NibData" = {
AngleInDegrees = 90;
};
}),
(974,0,l,{
"Letterink-NibData" = {
AngleInDegrees = 348.43256;
};
}),
(834,685,l,{
"Letterink-NibData" = {
AngleInDegrees = 270;
};
}),
(786,685,l,{
"Letterink-NibData" = {
AngleInDegrees = 200.22945;
};
}),
(571,103,l,{
"Letterink-NibData" = {
AngleInDegrees = 195.70864;
};
}),
(552,35,l,{
"Letterink-NibData" = {
AngleInDegrees = 344.29136;
};
}),
(533,103,l,{
"Letterink-NibData" = {
AngleInDegrees = 339.85787;
};
}),
(319,685,l,{
"Letterink-NibData" = {
AngleInDegrees = 270;
};
}),
(273,685,l,{
"Letterink-NibData" = {
AngleInDegrees = 191.99471;
};
}),
(141,67,l,{
"Letterink-NibData" = {
AngleInDegrees = "202.61986";
};
}),
(177,55,l,{
GSCorner = {
name = _corner.caps_diag;
options = "1";
scale = "{-1, 1}";
};
"Letterink-NibData" = {
AngleInDegrees = "22.1315";
};
}),
(288,571,l,{
"Letterink-NibData" = {
AngleInDegrees = 8.56914;
};
}),
(300,651,l,{
"Letterink-NibData" = {
AngleInDegrees = 164.67849;
};
}),
(322,571,l,{
"Letterink-NibData" = {
AngleInDegrees = 160.21186;
};
}),
(527,1,l,{
"Letterink-NibData" = {
AngleInDegrees = 90;
};
})
);
}
);
width = 1008;
},
{
anchors = (
{
name = bottom;
pos = (536,0);
},
{
name = top;
pos = (536,684);
}
);
hints = (
{
name = _corner.caps_diag;
options = 1;
origin = (0,14);
scale = (-1,1);
type = Corner;
}
);
layerId = m004;
shapes = (
{
closed = 1;
nodes = (
(605,4,l,{
"Letterink-NibData" = {
AngleInDegrees = 19.82904;
};
}),
(754,443,l,{
"Letterink-NibData" = {
AngleInDegrees = 10.61966;
};
}),
(732,495,l,{
"Letterink-NibData" = {
AngleInDegrees = 176.42367;
};
}),
(724,439,l,{
"Letterink-NibData" = {
AngleInDegrees = 168.64911;
};
}),
(814,0,l,{
"Letterink-NibData" = {
AngleInDegrees = 90;
};
}),
(980,0,l,{
"Letterink-NibData" = {
AngleInDegrees = 348.40167;
};
}),
(835,684,l,{
"Letterink-NibData" = {
AngleInDegrees = 270;
};
}),
(685,684,l,{
"Letterink-NibData" = {
AngleInDegrees = 200.24505;
};
}),
(545,302,l,{
"Letterink-NibData" = {
AngleInDegrees = 195.78075;
};
}),
(536,256,l,{
"Letterink-NibData" = {
AngleInDegrees = 344.21925;
};
}),
(527,302,l,{
"Letterink-NibData" = {
AngleInDegrees = 339.94696;
};
}),
(390,684,l,{
"Letterink-NibData" = {
AngleInDegrees = 270;
};
}),
(240,684,l,{
"Letterink-NibData" = {
AngleInDegrees = 191.97887;
};
}),
(136,138,l,{
"Letterink-NibData" = {
AngleInDegrees = 201.80141;
};
}),
(293,106,l,{
"Letterink-NibData" = {
AngleInDegrees = 11.90108;
};
}),
(353,418,l,{
"Letterink-NibData" = {
AngleInDegrees = 7.76516;
};
}),
(346,466,l,{
"Letterink-NibData" = {
AngleInDegrees = 172.23484;
};
}),
(324,418,l,{
"Letterink-NibData" = {
AngleInDegrees = 160.25072;
};
}),
(473,4,l,{
"Letterink-NibData" = {
AngleInDegrees = 90;
};
})
);
}
);
width = 993;
}
);
unicode = 77;
userData = {
position = 664;
width = 20;
};
},
{
glyphname = M.ss01;
layers = (
{
anchors = (
{
name = bottom;
pos = (409,5);
},
{
name = top;
pos = (407,684);
}
);
layerId = "0CAF3BED-C4AC-4024-B3E1-4C69D1EF7EC0";
shapes = (
{
closed = 1;
nodes = (
(737,0,l,{
"Letterink-NibData" = {
AngleInDegrees = "90";
};
}),
(737,695,l,{
"Letterink-NibData" = {
AngleInDegrees = "180";
};
}),
(684,695,l,{
"Letterink-NibData" = {
AngleInDegrees = "270";
};
}),
(402,300,l,{
"Letterink-NibData" = {
AngleInDegrees = 321.44015;
};
}),
(402,206,l),
(425,206,l,{
"Letterink-NibData" = {
AngleInDegrees = 43.21009;
};
}),
(621,471,l,{
"Letterink-NibData" = {
AngleInDegrees = 139.07037;
};
}),
(658,539,l,{
"Letterink-NibData" = {
AngleInDegrees = 143.97263;
};
}),
(655,465,l),
(655,0,l)
);
},
{
closed = 1;
nodes = (
(161,0,l),
(161,465,l),
(158,539,l,{
"Letterink-NibData" = {
AngleInDegrees = 143.97263;
};
}),
(195,471,l,{
"Letterink-NibData" = {
AngleInDegrees = 139.07037;
};
}),
(391,206,l,{
"Letterink-NibData" = {
AngleInDegrees = 43.21009;
};
}),
(414,206,l),
(414,300,l,{
"Letterink-NibData" = {
AngleInDegrees = 321.44015;
};
}),
(132,695,l,{
"Letterink-NibData" = {
AngleInDegrees = 270;
};
}),
(79,695,l,{
"Letterink-NibData" = {
AngleInDegrees = 180;
};
}),
(79,0,l,{
"Letterink-NibData" = {
AngleInDegrees = 90;
};
})
);
}
);
width = 816;
},
{
anchors = (
{
name = bottom;
pos = (392,0);
},
{
name = top;
pos = (392,684);
}
);
layerId = "49C16FD3-6177-408B-A733-AEB3898BB77C";
shapes = (
{
closed = 1;
nodes = (
(701,1,l,{
"Letterink-NibData" = {
AngleInDegrees = "90";
};
}),
(701,693,l,{
"Letterink-NibData" = {
AngleInDegrees = "180";
};
}),
(680,694,l,{
"Letterink-NibData" = {
AngleInDegrees = "270";
};
}),
(390,269,l,{
"Letterink-NibData" = {
AngleInDegrees = 321.67095;
};
}),
(389,219,l),
(402,219,l,{
"Letterink-NibData" = {
AngleInDegrees = 42.83309;
};
}),
(651,580,l,{
"Letterink-NibData" = {
AngleInDegrees = 141.24191;
};
}),
(673,616,l,{
"Letterink-NibData" = {
AngleInDegrees = 150.64224;
};
}),
(663,573,l),
(663,1,l)
);
},
{
closed = 1;
nodes = (
(124,1,l),
(124,573,l),
(114,616,l,{
"Letterink-NibData" = {
AngleInDegrees = 150.64224;
};
}),
(136,580,l,{
"Letterink-NibData" = {
AngleInDegrees = 141.24191;
};
}),
(385,219,l,{
"Letterink-NibData" = {
AngleInDegrees = 42.83309;
};
}),
(397,219,l,{
"Letterink-NibData" = {
AngleInDegrees = 42.83309;
};
}),
(397,269,l,{
"Letterink-NibData" = {
AngleInDegrees = 321.67095;
};
}),
(106,694,l,{
"Letterink-NibData" = {
AngleInDegrees = 270;
};
}),
(86,693,l,{
"Letterink-NibData" = {
AngleInDegrees = 180;
};
}),
(86,1,l,{
"Letterink-NibData" = {
AngleInDegrees = 90;
};
})
);
}
);
width = 787;
},
{
anchors = (
{
name = bottom;
pos = (421,0);
},
{
name = top;
pos = (430,684);
}
);
layerId = m004;
shapes = (
{
closed = 1;
nodes = (
(776,0,l,{
"Letterink-NibData" = {
AngleInDegrees = "90";
};
}),
(776,695,l,{
"Letterink-NibData" = {
AngleInDegrees = "180";
};
}),
(674,695,l,{
"Letterink-NibData" = {
AngleInDegrees = "270";
};
}),
(417,360,l,{
"Letterink-NibData" = {
AngleInDegrees = "321.44015";
};
}),
(393,161,l,{
"Letterink-NibData" = {
AngleInDegrees = 43.21009;
};
}),
(448,161,l,{
"Letterink-NibData" = {
AngleInDegrees = "43.21009";
};
}),
(588,349,l,{
"Letterink-NibData" = {
AngleInDegrees = "139.07037";
};
}),
(613,395,l,{
"Letterink-NibData" = {
AngleInDegrees = "143.97263";
};
}),
(608,319,l),
(611,0,l)
);
},
{
closed = 1;
nodes = (
(231,0,l),
(234,319,l),
(231,395,l,{
"Letterink-NibData" = {
AngleInDegrees = 143.97263;
};
}),
(261,338,l,{
"Letterink-NibData" = {
AngleInDegrees = 139.07037;
};
}),
(394,161,l,{
"Letterink-NibData" = {
AngleInDegrees = 43.21009;
};
}),
(449,161,l,{
"Letterink-NibData" = {
AngleInDegrees = 43.21009;
};
}),
(425,360,l,{
"Letterink-NibData" = {
AngleInDegrees = 321.44015;
};
}),
(168,695,l,{
"Letterink-NibData" = {
AngleInDegrees = 270;
};
}),
(66,695,l,{
"Letterink-NibData" = {
AngleInDegrees = 180;
};
}),
(66,0,l,{
"Letterink-NibData" = {
AngleInDegrees = 90;
};
})
);
}
);
width = 842;
}
);
metricLeft = "=|H";
metricRight = H;
userData = {
position = 658;
width = 61;
};
},
{
glyphname = M.swsh;
kernLeft = A.swsh;
kernRight = M;
layers = (
{
anchors = (
{
name = bottom;
pos = (591,-2);
},
{
name = top;
pos = (584,684);
}
);
hints = (
{
name = _corner.caps_swash_diag;
options = 1;
origin = (0,14);
scale = (-1,1);
type = Corner;
},
{
name = _corner.caps_swash.big;
origin = (1,2);
type = Corner;
}
);
layerId = "0CAF3BED-C4AC-4024-B3E1-4C69D1EF7EC0";
shapes = (
{
closed = 1;
nodes = (
(622,-1,l,{
"Letterink-NibData" = {
AngleInDegrees = 19.93149;
};
}),
(815,534,l,{
"Letterink-NibData" = {
AngleInDegrees = 7.59464;
};
}),
(819,555,l,{
"Letterink-NibData" = {
AngleInDegrees = 172.40536;
};
}),
(821,534,l,{
"Letterink-NibData" = {
AngleInDegrees = 168.58713;
};
}),
(928,-1,l,{
"Letterink-NibData" = {
AngleInDegrees = 90;
};
}),
(1007,-1,l,{
"Letterink-NibData" = {
AngleInDegrees = 348.40167;
};
}),
(866,685,l,{
"Letterink-NibData" = {
AngleInDegrees = 270;
};
}),
(793,685,l,{
"Letterink-NibData" = {
AngleInDegrees = 200.03195;
};
}),
(588,121,l,{
"Letterink-NibData" = {
AngleInDegrees = 184.08562;
};
}),
(586,103,l,{
"Letterink-NibData" = {
AngleInDegrees = 351.8699;
};
}),
(583,121,l,{
"Letterink-NibData" = {
AngleInDegrees = 340.23704;
};
}),
(381,685,l,{
"Letterink-NibData" = {
AngleInDegrees = 270;
};
}),
(306,685,l,{
"Letterink-NibData" = {
AngleInDegrees = 192.03371;
};
}),
(180,104,l,{
"Letterink-NibData" = {
AngleInDegrees = 192.99462;
};
}),
(260,84,l,{
"Letterink-NibData" = {
AngleInDegrees = 11.94652;
};
}),
(349,528,l,{
"Letterink-NibData" = {
AngleInDegrees = 10.7843;
};
}),
(353,554,l,{
"Letterink-NibData" = {
AngleInDegrees = 169.2157;
};
}),
(358,528,l,{
"Letterink-NibData" = {
AngleInDegrees = 160.14745;
};
}),
(549,-1,l,{
"Letterink-NibData" = {
AngleInDegrees = 90;
};
})
);
},
{
closed = 1;
nodes = (
(372,609,l),
(372,685,l,{
"Letterink-NibData" = {
AngleInDegrees = "270";
};
}),
(239,685,l,{
"Letterink-NibData" = {
AngleInDegrees = "180";
};
}),
(239,609,l,{
"Letterink-NibData" = {
AngleInDegrees = "90";
};
})
);
}
);
width = 1029;
},
{
anchors = (
{
name = bottom;
pos = (592,1);
},
{
name = top;
pos = (591,683);
}
);
hints = (
{
name = _corner.caps_swash_diag;
options = 1;
origin = (0,14);
scale = (-1,1);
type = Corner;
},
{
name = _corner.caps_swash.big;
origin = (1,2);
type = Corner;
}
);
layerId = "49C16FD3-6177-408B-A733-AEB3898BB77C";
shapes = (
{
closed = 1;
nodes = (
(612,1,l,{
"Letterink-NibData" = {
AngleInDegrees = 19.90221;
};
}),
(819,573,l,{
"Letterink-NibData" = {
AngleInDegrees = 15.18584;
};
}),
(840,650,l,{
"Letterink-NibData" = {
AngleInDegrees = 170.40687;
};
}),
(853,572,l,{
"Letterink-NibData" = {
AngleInDegrees = 168.65127;
};
}),
(968,1,l,{
"Letterink-NibData" = {
AngleInDegrees = 90;
};
}),
(1008,1,l,{
"Letterink-NibData" = {
AngleInDegrees = 348.43256;
};
}),
(867,685,l,{
"Letterink-NibData" = {
AngleInDegrees = 270;
};
}),
(823,685,l,{
"Letterink-NibData" = {
AngleInDegrees = 200.22945;
};
}),
(610,105,l,{
"Letterink-NibData" = {
AngleInDegrees = 195.70864;
};
}),
(590,36,l,{
"Letterink-NibData" = {
AngleInDegrees = 344.29136;
};
}),
(570,105,l,{
"Letterink-NibData" = {
AngleInDegrees = 339.85787;
};
}),
(357,685,l,{
"Letterink-NibData" = {
AngleInDegrees = 270;
};
}),
(313,685,l,{
"Letterink-NibData" = {
AngleInDegrees = 191.97342;
};
}),
(186,86,l,{
"Letterink-NibData" = {
AngleInDegrees = 196.18921;
};
}),
(223,77,l,{
"Letterink-NibData" = {
AngleInDegrees = 12.01367;
};
}),
(327,571,l,{
"Letterink-NibData" = {
AngleInDegrees = 8.56914;
};
}),
(339,651,l,{
"Letterink-NibData" = {
AngleInDegrees = 165.41108;
};
}),
(360,571,l,{
"Letterink-NibData" = {
AngleInDegrees = 160.21186;
};
}),
(565,1,l,{
"Letterink-NibData" = {
AngleInDegrees = 90;
};
})
);
},
{
closed = 1;
nodes = (
(346,648,l),
(346,684,l,{
"Letterink-NibData" = {
AngleInDegrees = "270";
};
}),
(243,684,l,{
"Letterink-NibData" = {
AngleInDegrees = "180";
};
}),
(243,648,l,{
"Letterink-NibData" = {
AngleInDegrees = "90";
};
})
);
}
);
width = 1042;
},
{
anchors = (
{
name = bottom;
pos = (595,-2);
},
{
name = top;
pos = (630,684);
}
);
hints = (
{
name = _corner.caps_swash_diag;
options = 2;
origin = (0,14);
scale = (-1,1);
type = Corner;
},
{
name = _corner.caps_swash.big;
origin = (1,2);
type = Corner;
}
);
layerId = m004;
shapes = (
{
closed = 1;
nodes = (
(691,-5,l,{
"Letterink-NibData" = {
AngleInDegrees = "19.82904";
};
}),
(840,443,l,{
"Letterink-NibData" = {
AngleInDegrees = "10.61966";
};
}),
(824,495,l,{
"Letterink-NibData" = {
AngleInDegrees = "176.42367";
};
}),
(816,439,l,{
"Letterink-NibData" = {
AngleInDegrees = "168.64911";
};
}),
(895,-5,l,{
"Letterink-NibData" = {
AngleInDegrees = "90";
};
}),
(1060,-5,l,{
"Letterink-NibData" = {
AngleInDegrees = "348.40167";
};
}),
(915,684,l,{
"Letterink-NibData" = {
AngleInDegrees = "270";
};
}),
(779,684,l,{
"Letterink-NibData" = {
AngleInDegrees = "200.24505";
};
}),
(649,338,l,{
"Letterink-NibData" = {
AngleInDegrees = "195.78075";
};
}),
(628,256,l,{
"Letterink-NibData" = {
AngleInDegrees = "344.21925";
};
}),
(608,338,l,{
"Letterink-NibData" = {
AngleInDegrees = "339.94696";
};
}),
(480,684,l,{
"Letterink-NibData" = {
AngleInDegrees = "270";
};
}),
(345,684,l,{
"Letterink-NibData" = {
AngleInDegrees = "191.97887";
};
}),
(225,149,l,{
"Letterink-NibData" = {
AngleInDegrees = "201.80141";
};
}),
(383,107,l,{
"Letterink-NibData" = {
AngleInDegrees = "11.90108";
};
}),
(447,418,l,{
"Letterink-NibData" = {
AngleInDegrees = "7.76516";
};
}),
(438,466,l,{
"Letterink-NibData" = {
AngleInDegrees = "172.23484";
};
}),
(421,418,l,{
"Letterink-NibData" = {
AngleInDegrees = "160.25072";
};
}),
(570,-5,l,{
"Letterink-NibData" = {
AngleInDegrees = "90";
};
})
);
},
{
closed = 1;
nodes = (
(461,536,l),
(461,684,l,{
"Letterink-NibData" = {
AngleInDegrees = "270";
};
}),
(289,684,l,{
"Letterink-NibData" = {
AngleInDegrees = "180";
};
}),
(289,536,l)
);
}
);
width = 1073;
}
);
metricRight = M;
userData = {
position = 664;
width = 20;
};
},
{
glyphname = N;
kernLeft = N;
layers = (
{
anchors = (
{
name = bottom;
pos = (407,0);
},
{
name = eng;
pos = (683,-1);
},
{
name = top;
pos = (421,684);
}
);
hints = (
{
name = _corner.caps_vert;
options = 1;
origin = (0,10);
scale = (-1,1);
type = Corner;
}
);
layerId = "0CAF3BED-C4AC-4024-B3E1-4C69D1EF7EC0";
shapes = (
{
closed = 1;
nodes = (
(683,-1,l,{
"Letterink-NibData" = {
AngleInDegrees = "180";
};
}),
(683,696,l,{
"Letterink-NibData" = {
AngleInDegrees = "90";
};
}),
(601,696,l),
(601,243,l,{
"Letterink-NibData" = {
AngleInDegrees = 355.66769;
};
}),
(608,134,l,{
"Letterink-NibData" = {
AngleInDegrees = 143.1301;
};
}),
(546,227,l,{
"Letterink-NibData" = {
AngleInDegrees = 140.24946;
};
}),
(274,592,l),
(185,696,l,{
"Letterink-NibData" = {
AngleInDegrees = "270";
};
}),
(137,696,l,{
"Letterink-NibData" = {
AngleInDegrees = "180";
};
}),
(137,98,l,{
"Letterink-NibData" = {
AngleInDegrees = "90";
};
}),
(219,98,l),
(219,452,l,{
"Letterink-NibData" = {
AngleInDegrees = 355.66769;
};
}),
(212,554,l,{
"Letterink-NibData" = {
AngleInDegrees = 143.1301;
};
}),
(274,466,l,{
"Letterink-NibData" = {
AngleInDegrees = 140.24946;
};
}),
(548,101,l),
(635,-1,l,{
"Letterink-NibData" = {
AngleInDegrees = "270";
};
})
);
}
);
width = 762;
},
{
anchors = (
{
name = bottom;
pos = (411,-8);
},
{
name = eng;
pos = (671,0);
},
{
name = top;
pos = (416,695);
}
);
hints = (
{
name = _corner.caps_vert;
options = 1;
origin = (0,10);
scale = (-1,1);
type = Corner;
}
);
layerId = "49C16FD3-6177-408B-A733-AEB3898BB77C";
shapes = (
{
closed = 1;
nodes = (
(671,0,l,{
"Letterink-NibData" = {
AngleInDegrees = "180";
};
}),
(671,683,l),
(633,683,l,{
"Letterink-NibData" = {
AngleInDegrees = 359.58179;
};
}),
(633,105,l),
(635,61,l,{
"Letterink-NibData" = {
AngleInDegrees = 145.43748;
};
}),
(610,95,l,{
"Letterink-NibData" = {
AngleInDegrees = 141.25478;
};
}),
(239,601,l,{
"Letterink-NibData" = {
AngleInDegrees = 318.39493;
};
}),
(175,683,l,{
"Letterink-NibData" = {
AngleInDegrees = 270;
};
}),
(149,683,l,{
"Letterink-NibData" = {
AngleInDegrees = 180;
};
}),
(149,91,l,{
"Letterink-NibData" = {
AngleInDegrees = 180;
};
}),
(187,91,l,{
"Letterink-NibData" = {
AngleInDegrees = 359.58179;
};
}),
(187,583,l),
(181,618,l,{
"Letterink-NibData" = {
AngleInDegrees = 145.43748;
};
}),
(202,588,l,{
"Letterink-NibData" = {
AngleInDegrees = 141.25478;
};
}),
(576,79,l),
(640,0,l,{
"Letterink-NibData" = {
AngleInDegrees = "270";
};
})
);
}
);
width = 757;
},
{
anchors = (
{
name = bottom;
pos = (441,0);
},
{
name = eng;
pos = (725,-5);
},
{
name = top;
pos = (441,684);
}
);
hints = (
{
name = _corner.caps_vert;
options = 1;
origin = (0,10);
scale = (-1,1);
type = Corner;
}
);
layerId = m004;
shapes = (
{
closed = 1;
nodes = (
(725,-5,l,{
"Letterink-NibData" = {
AngleInDegrees = "180";
};
}),
(725,698,l,{
"Letterink-NibData" = {
AngleInDegrees = "90";
};
}),
(560,698,l),
(560,398,l,{
"Letterink-NibData" = {
AngleInDegrees = 355.66769;
};
}),
(570,285,l,{
"Letterink-NibData" = {
AngleInDegrees = 143.1301;
};
}),
(502,379,l,{
"Letterink-NibData" = {
AngleInDegrees = 140.24946;
};
}),
(304,636,l),
(246,698,l,{
"Letterink-NibData" = {
AngleInDegrees = "270";
};
}),
(141,698,l,{
"Letterink-NibData" = {
AngleInDegrees = "180";
};
}),
(141,159,l,{
"Letterink-NibData" = {
AngleInDegrees = "90";
};
}),
(306,159,l),
(306,301,l,{
"Letterink-NibData" = {
AngleInDegrees = 355.66769;
};
}),
(295,408,l,{
"Letterink-NibData" = {
AngleInDegrees = 143.1301;
};
}),
(375,286,l,{
"Letterink-NibData" = {
AngleInDegrees = 140.24946;
};
}),
(566,53,l),
(620,-5,l,{
"Letterink-NibData" = {
AngleInDegrees = "270";
};
})
);
}
);
width = 791;
}
);
metricLeft = E;
metricRight = H;
unicode = 78;
userData = {
position = 642;
width = 56;
};
},
{
glyphname = N.ss01;
layers = (
{
anchors = (
{
name = bottom;
pos = (355,0);
},
{
name = eng;
pos = (625,-11);
},
{
name = top;
pos = (357,684);
}
);
layerId = "0CAF3BED-C4AC-4024-B3E1-4C69D1EF7EC0";
shapes = (
{
closed = 1;
nodes = (
(625,-11,l,{
"Letterink-NibData" = {
AngleInDegrees = "180";
};
}),
(625,684,l,{
"Letterink-NibData" = {
AngleInDegrees = "90";
};
}),
(543,684,l),
(543,233,l,{
"Letterink-NibData" = {
AngleInDegrees = 355.66769;
};
}),
(550,131,l,{
"Letterink-NibData" = {
AngleInDegrees = 143.1301;
};
}),
(488,219,l,{
"Letterink-NibData" = {
AngleInDegrees = 140.24946;
};
}),
(216,594,l),
(133,696,l,{
"Letterink-NibData" = {
AngleInDegrees = 270;
};
}),
(79,696,l,{
"Letterink-NibData" = {
AngleInDegrees = 180;
};
}),
(79,-1,l,{
"Letterink-NibData" = {
AngleInDegrees = 90;
};
}),
(161,-1,l),
(161,452,l,{
"Letterink-NibData" = {
AngleInDegrees = 355.66769;
};
}),
(154,554,l,{
"Letterink-NibData" = {
AngleInDegrees = 143.1301;
};
}),
(215,466,l,{
"Letterink-NibData" = {
AngleInDegrees = 140.24946;
};
}),
(486,91,l),
(569,-11,l,{
"Letterink-NibData" = {
AngleInDegrees = "270";
};
})
);
}
);
width = 704;
},
{
anchors = (
{
name = bottom;
pos = (354,0);
},
{
name = eng;
pos = (610,-1);
},
{
name = top;
pos = (356,684);
}
);
layerId = "49C16FD3-6177-408B-A733-AEB3898BB77C";
shapes = (
{
closed = 1;
nodes = (
(610,-1,l,{
"Letterink-NibData" = {
AngleInDegrees = "180";
};
}),
(610,685,l),
(572,685,l,{
"Letterink-NibData" = {
AngleInDegrees = 359.58179;
};
}),
(572,107,l),
(575,66,l,{
"Letterink-NibData" = {
AngleInDegrees = 145.43748;
};
}),
(555,97,l,{
"Letterink-NibData" = {
AngleInDegrees = 141.25478;
};
}),
(176,601,l,{
"Letterink-NibData" = {
AngleInDegrees = 318.39493;
};
}),
(112,683,l,{
"Letterink-NibData" = {
AngleInDegrees = "270";
};
}),
(86,683,l,{
"Letterink-NibData" = {
AngleInDegrees = "180";
};
}),
(86,0,l,{
"Letterink-NibData" = {
AngleInDegrees = "180";
};
}),
(124,0,l,{
"Letterink-NibData" = {
AngleInDegrees = 359.58179;
};
}),
(124,583,l),
(122,618,l,{
"Letterink-NibData" = {
AngleInDegrees = 145.43748;
};
}),
(140,588,l,{
"Letterink-NibData" = {
AngleInDegrees = 141.25478;
};
}),
(521,82,l),
(587,-1,l,{
"Letterink-NibData" = {
AngleInDegrees = "270";
};
})
);
}
);
width = 696;
},
{
anchors = (
{
name = bottom;
pos = (364,0);
},
{
name = eng;
pos = (650,-5);
},
{
name = top;
pos = (366,684);
}
);
layerId = m004;
shapes = (
{
closed = 1;
nodes = (
(650,-5,l,{
"Letterink-NibData" = {
AngleInDegrees = "180";
};
}),
(650,684,l,{
"Letterink-NibData" = {
AngleInDegrees = "90";
};
}),
(485,684,l),
(485,364,l,{
"Letterink-NibData" = {
AngleInDegrees = 355.66769;
};
}),
(494,278,l,{
"Letterink-NibData" = {
AngleInDegrees = 143.1301;
};
}),
(451,347,l,{
"Letterink-NibData" = {
AngleInDegrees = 140.24946;
};
}),
(229,636,l),
(177,694,l,{
"Letterink-NibData" = {
AngleInDegrees = "270";
};
}),
(66,694,l,{
"Letterink-NibData" = {
AngleInDegrees = "180";
};
}),
(66,0,l,{
"Letterink-NibData" = {
AngleInDegrees = "90";
};
}),
(231,0,l),
(231,301,l,{
"Letterink-NibData" = {
AngleInDegrees = 355.66769;
};
}),
(220,408,l,{
"Letterink-NibData" = {
AngleInDegrees = 143.1301;
};
}),
(300,286,l,{
"Letterink-NibData" = {
AngleInDegrees = 140.24946;
};
}),
(491,53,l),
(545,-5,l,{
"Letterink-NibData" = {
AngleInDegrees = "270";
};
})
);
}
);
width = 716;
}
);
metricLeft = "=|H";
metricRight = H;
userData = {
position = 605;
width = 61;
};
},
{
glyphname = N.swsh;
kernLeft = N;
layers = (
{
anchors = (
{
name = bottom;
pos = (501,0);
},
{
name = top;
pos = (501,684);
}
);
hints = (
{
name = _corner.caps_swash_vert;
options = 2;
origin = (0,10);
scale = (-1,1);
type = Corner;
},
{
name = _corner.caps_swash.big;
origin = (1,2);
type = Corner;
}
);
layerId = "0CAF3BED-C4AC-4024-B3E1-4C69D1EF7EC0";
shapes = (
{
closed = 1;
nodes = (
(782,-1,l,{
"Letterink-NibData" = {
AngleInDegrees = "180";
};
}),
(782,696,l,{
"Letterink-NibData" = {
AngleInDegrees = "90";
};
}),
(700,696,l),
(700,243,l,{
"Letterink-NibData" = {
AngleInDegrees = 355.66769;
};
}),
(707,141,l,{
"Letterink-NibData" = {
AngleInDegrees = 143.1301;
};
}),
(645,229,l,{
"Letterink-NibData" = {
AngleInDegrees = 140.24946;
};
}),
(373,594,l),
(294,684,l,{
"Letterink-NibData" = {
AngleInDegrees = "270";
};
}),
(236,684,l,{
"Letterink-NibData" = {
AngleInDegrees = "180";
};
}),
(236,119,l,{
"Letterink-NibData" = {
AngleInDegrees = "90";
};
}),
(318,119,l),
(318,452,l,{
"Letterink-NibData" = {
AngleInDegrees = 355.66769;
};
}),
(311,554,l,{
"Letterink-NibData" = {
AngleInDegrees = 143.1301;
};
}),
(373,466,l,{
"Letterink-NibData" = {
AngleInDegrees = 140.24946;
};
}),
(645,101,l),
(734,-1,l,{
"Letterink-NibData" = {
AngleInDegrees = "270";
};
})
);
},
{
closed = 1;
nodes = (
(271,608,l),
(271,684,l,{
"Letterink-NibData" = {
AngleInDegrees = "270";
};
}),
(212,684,l,{
"Letterink-NibData" = {
AngleInDegrees = "180";
};
}),
(212,608,l,{
"Letterink-NibData" = {
AngleInDegrees = "90";
};
})
);
}
);
width = 861;
},
{
anchors = (
{
name = bottom;
pos = (506,-5);
},
{
name = top;
pos = (504,684);
}
);
hints = (
{
name = _corner.caps_swash_vert;
options = 1;
origin = (0,10);
scale = (-1,1);
type = Corner;
},
{
name = _corner.caps_swash.big;
origin = (1,2);
type = Corner;
}
);
layerId = "49C16FD3-6177-408B-A733-AEB3898BB77C";
shapes = (
{
closed = 1;
nodes = (
(785,0,l,{
"Letterink-NibData" = {
AngleInDegrees = "180";
};
}),
(785,683,l),
(745,683,l,{
"Letterink-NibData" = {
AngleInDegrees = 359.58179;
};
}),
(749,105,l),
(749,64,l,{
"Letterink-NibData" = {
AngleInDegrees = 145.43748;
};
}),
(725,96,l,{
"Letterink-NibData" = {
AngleInDegrees = 141.25478;
};
}),
(346,601,l,{
"Letterink-NibData" = {
AngleInDegrees = 318.39493;
};
}),
(283,683,l,{
"Letterink-NibData" = {
AngleInDegrees = "270";
};
}),
(255,683,l,{
"Letterink-NibData" = {
AngleInDegrees = "180";
};
}),
(256,108,l,{
"Letterink-NibData" = {
AngleInDegrees = "180";
};
}),
(294,108,l,{
"Letterink-NibData" = {
AngleInDegrees = 359.58179;
};
}),
(289,583,l),
(287,618,l,{
"Letterink-NibData" = {
AngleInDegrees = 145.43748;
};
}),
(308,588,l,{
"Letterink-NibData" = {
AngleInDegrees = 141.25478;
};
}),
(690,79,l),
(756,0,l,{
"Letterink-NibData" = {
AngleInDegrees = "270";
};
})
);
},
{
closed = 1;
nodes = (
(279,648,l),
(279,684,l,{
"Letterink-NibData" = {
AngleInDegrees = "270";
};
}),
(201,684,l,{
"Letterink-NibData" = {
AngleInDegrees = "180";
};
}),
(201,648,l,{
"Letterink-NibData" = {
AngleInDegrees = "90";
};
})
);
}
);
width = 871;
},
{
anchors = (
{
name = bottom;
pos = (572,0);
},
{
name = top;
pos = (585,684);
}
);
hints = (
{
name = _corner.caps_swash_vert;
options = 2;
origin = (0,10);
scale = (-1,1);
type = Corner;
},
{
name = _corner.caps_swash.big;
origin = (1,2);
type = Corner;
}
);
layerId = m004;
shapes = (
{
closed = 1;
nodes = (
(875,-5,l,{
"Letterink-NibData" = {
AngleInDegrees = "180";
};
}),
(875,699,l,{
"Letterink-NibData" = {
AngleInDegrees = "90";
};
}),
(710,699,l),
(710,398,l,{
"Letterink-NibData" = {
AngleInDegrees = 355.66769;
};
}),
(720,285,l,{
"Letterink-NibData" = {
AngleInDegrees = 143.1301;
};
}),
(652,379,l,{
"Letterink-NibData" = {
AngleInDegrees = 140.24946;
};
}),
(454,636,l),
(398,684,l,{
"Letterink-NibData" = {
AngleInDegrees = "270";
};
}),
(291,684,l,{
"Letterink-NibData" = {
AngleInDegrees = "180";
};
}),
(291,172,l,{
"Letterink-NibData" = {
AngleInDegrees = "90";
};
}),
(456,172,l),
(456,301,l,{
"Letterink-NibData" = {
AngleInDegrees = 355.66769;
};
}),
(445,408,l,{
"Letterink-NibData" = {
AngleInDegrees = 143.1301;
};
}),
(525,286,l,{
"Letterink-NibData" = {
AngleInDegrees = 140.24946;
};
}),
(716,53,l),
(770,-5,l,{
"Letterink-NibData" = {
AngleInDegrees = "270";
};
})
);
},
{
closed = 1;
nodes = (
(390,535,l),
(390,684,l,{
"Letterink-NibData" = {
AngleInDegrees = "270";
};
}),
(248,684,l,{
"Letterink-NibData" = {
AngleInDegrees = "180";
};
}),
(248,535,l)
);
}
);
width = 941;
}
);
metricRight = H;
userData = {
position = 642;
width = 56;
};
},
{
glyphname = O;
kernLeft = O;
kernRight = O;
layers = (
{
anchors = (
{
name = bottom;
pos = (384,-6);
},
{
name = center;
pos = (385,341);
},
{
name = horn;
pos = (488,696);
},
{
name = ogonek;
pos = (602,54);
},
{
name = top;
pos = (384,703);
},
{
name = topleft;
pos = (12,684);
},
{
name = topright;
pos = (787,684);
}
);
layerId = "0CAF3BED-C4AC-4024-B3E1-4C69D1EF7EC0";
shapes = (
{
closed = 1;
nodes = (
(582,-21,o),
(731,135,o),
(731,342,cs,{
"Letterink-NibData" = {
AngleInDegrees = "180";
};
}),
(731,550,o),
(582,706,o),
(384,706,cs,{
"Letterink-NibData" = {
AngleInDegrees = "270";
};
}),
(186,706,o),
(37,550,o),
(37,342,cs,{
"Letterink-NibData" = {
AngleInDegrees = "180";
};
}),
(37,135,o),
(186,-21,o),
(384,-21,cs,{
"Letterink-NibData" = {
AngleInDegrees = "270";
};
})
);
},
{
closed = 1;
nodes = (
(233,55,o),
(119,178,o),
(119,342,cs),
(119,507,o),
(233,630,o),
(384,630,cs,{
"Letterink-NibData" = {
AngleInDegrees = "90";
};
}),
(535,630,o),
(649,507,o),
(649,342,cs),
(649,178,o),
(535,55,o),
(384,55,cs,{
"Letterink-NibData" = {
AngleInDegrees = "90";
};
})
);
}
);
width = 768;
},
{
anchors = (
{
name = bottom;
pos = (379,0);
},
{
name = center;
pos = (378,342);
},
{
name = horn;
pos = (487,684);
},
{
name = ogonek;
pos = (577,52);
},
{
name = top;
pos = (377,695);
},
{
name = topleft;
pos = (7,684);
},
{
name = topright;
pos = (780,684);
}
);
layerId = "49C16FD3-6177-408B-A733-AEB3898BB77C";
shapes = (
{
closed = 1;
nodes = (
(568,-15,o),
(708,136,o),
(708,343,cs,{
"Letterink-NibData" = {
AngleInDegrees = "180";
};
}),
(708,551,o),
(569,702,o),
(378,702,cs,{
"Letterink-NibData" = {
AngleInDegrees = "270";
};
}),
(187,702,o),
(48,551,o),
(48,343,cs,{
"Letterink-NibData" = {
AngleInDegrees = "180";
};
}),
(48,136,o),
(187,-15,o),
(378,-15,cs,{
"Letterink-NibData" = {
AngleInDegrees = "270";
};
})
);
},
{
closed = 1;
nodes = (
(210,21,o),
(86,158,o),
(86,343,cs),
(86,528,o),
(210,666,o),
(377,666,cs,{
"Letterink-NibData" = {
AngleInDegrees = "90";
};
}),
(546,666,o),
(671,528,o),
(671,343,cs),
(671,158,o),
(546,21,o),
(377,21,cs,{
"Letterink-NibData" = {
AngleInDegrees = "90";
};
})
);
}
);
width = 756;
},
{
anchors = (
{
name = bottom;
pos = (395,-15);
},
{
name = center;
pos = (394,337);
},
{
name = horn;
pos = (521,693);
},
{
name = ogonek;
pos = (607,34);
},
{
name = top;
pos = (397,699);
},
{
name = topleft;
pos = (48,643);
},
{
name = topright;
pos = (769,643);
}
);
layerId = m004;
shapes = (
{
closed = 1;
nodes = (
(605,-32,o),
(764,127,o),
(764,337,cs,{
"Letterink-NibData" = {
AngleInDegrees = "180";
};
}),
(764,551,o),
(606,711,o),
(395,711,cs,{
"Letterink-NibData" = {
AngleInDegrees = "270";
};
}),
(186,711,o),
(26,549,o),
(26,337,cs,{
"Letterink-NibData" = {
AngleInDegrees = "180";
};
}),
(26,129,o),
(187,-32,o),
(395,-32,cs,{
"Letterink-NibData" = {
AngleInDegrees = "270";
};
})
);
},
{
closed = 1;
nodes = (
(281,115,o),
(194,211,o),
(194,337,cs),
(194,467,o),
(280,563,o),
(394,563,cs,{
"Letterink-NibData" = {
AngleInDegrees = "90";
};
}),
(512,563,o),
(596,470,o),
(596,337,cs),
(596,208,o),
(511,115,o),
(394,115,cs,{
"Letterink-NibData" = {
AngleInDegrees = "90";
};
})
);
}
);
width = 790;
}
);
unicode = 79;
userData = {
position = 683;
width = 56;
};
},
{
glyphname = OE;
kernLeft = O;
kernRight = E;
layers = (
{
anchors = (
{
name = bottom;
pos = (501,6);
},
{
name = top;
pos = (486,686);
}
);
layerId = "0CAF3BED-C4AC-4024-B3E1-4C69D1EF7EC0";
shapes = (
{
closed = 1;
nodes = (
(423,-15,o),
(464,-8,o),
(501,6,c),
(501,90,l),
(465,72,o),
(424,61,o),
(379,61,cs,{
"Letterink-NibData" = {
AngleInDegrees = "90";
};
}),
(227,61,o),
(115,188,o),
(115,345,cs),
(115,502,o),
(227,630,o),
(379,630,cs,{
"Letterink-NibData" = {
AngleInDegrees = "90";
};
}),
(424,630,o),
(465,619,o),
(501,601,c),
(501,685,l),
(464,699,o),
(423,706,o),
(380,706,cs,{
"Letterink-NibData" = {
AngleInDegrees = "270";
};
}),
(182,706,o),
(33,546,o),
(33,345,cs,{
"Letterink-NibData" = {
AngleInDegrees = "180";
};
}),
(33,144,o),
(182,-15,o),
(380,-15,cs,{
"Letterink-NibData" = {
AngleInDegrees = "270";
};
})
);
},
{
alignment = -1;
pos = (406,2);
ref = E.ss01;
}
);
width = 975;
},
{
anchors = (
{
name = bottom;
pos = (501,-6);
},
{
name = top;
pos = (501,679);
}
);
layerId = "49C16FD3-6177-408B-A733-AEB3898BB77C";
shapes = (
{
closed = 1;
nodes = (
(427,-12,o),
(473,-2,o),
(518,17,c),
(518,59,l),
(475,36,o),
(427,24,o),
(374,24,cs,{
"Letterink-NibData" = {
AngleInDegrees = "90";
};
}),
(205,24,o),
(81,161,o),
(81,345,cs),
(81,528,o),
(205,666,o),
(374,666,cs,{
"Letterink-NibData" = {
AngleInDegrees = "90";
};
}),
(427,666,o),
(475,653,o),
(518,630,c),
(518,672,l),
(474,691,o),
(426,702,o),
(375,702,cs,{
"Letterink-NibData" = {
AngleInDegrees = "270";
};
}),
(182,702,o),
(43,551,o),
(43,345,cs,{
"Letterink-NibData" = {
AngleInDegrees = "180";
};
}),
(43,138,o),
(182,-12,o),
(375,-12,cs,{
"Letterink-NibData" = {
AngleInDegrees = "270";
};
})
);
},
{
alignment = -1;
pos = (416,-2);
ref = E.ss01;
}
);
width = 980;
},
{
anchors = (
{
name = bottom;
pos = (503,0);
},
{
name = top;
pos = (489,695);
}
);
layerId = m004;
shapes = (
{
closed = 1;
nodes = (
(432,-12,o),
(478,-3,o),
(521,14,c),
(521,195,l),
(486,157,o),
(437,135,o),
(381,135,cs,{
"Letterink-NibData" = {
AngleInDegrees = "90";
};
}),
(272,135,o),
(188,227,o),
(188,347,cs),
(188,471,o),
(271,563,o),
(381,563,cs,{
"Letterink-NibData" = {
AngleInDegrees = "90";
};
}),
(438,563,o),
(486,541,o),
(521,503,c),
(521,685,l),
(479,702,o),
(432,711,o),
(382,711,cs,{
"Letterink-NibData" = {
AngleInDegrees = "270";
};
}),
(179,711,o),
(23,553,o),
(23,347,cs,{
"Letterink-NibData" = {
AngleInDegrees = "180";
};
}),
(23,145,o),
(180,-12,o),
(382,-12,cs,{
"Letterink-NibData" = {
AngleInDegrees = "270";
};
})
);
},
{
alignment = -1;
pos = (434,6);
ref = E.ss01;
}
);
width = 1019;
}
);
metricLeft = "=O*.9";
metricRight = "=E*.9";
unicode = 338;
userData = {
position = 502;
width = 61;
};
},
{
glyphname = P;
kernLeft = E;
kernRight = P;
layers = (
{
anchors = (
{
name = bottom;
pos = (300,0);
},
{
name = top;
pos = (300,684);
}
);
hints = (
{
name = _corner.caps_left;
origin = (0,22);
type = Corner;
}
);
layerId = "0CAF3BED-C4AC-4024-B3E1-4C69D1EF7EC0";
shapes = (
{
closed = 1;
nodes = (
(233,-1,l),
(233,610,l,{
"Letterink-NibData" = {
AngleInDegrees = 90;
};
}),
(359,610,ls,{
"Letterink-NibData" = {
AngleInDegrees = 90;
};
}),
(449,610,o),
(510,559,o),
(510,458,cs,{
"Letterink-NibData" = {
AngleInDegrees = 180;
};
}),
(510,343,o),
(430,301,o),
(360,301,cs,{
"Letterink-NibData" = {
AngleInDegrees = 270;
};
}),
(343,301,o),
(315,302,o),
(269,308,c,{
"Letterink-NibData" = {
AngleInDegrees = 180;
};
}),
(269,235,l,{
"Letterink-NibData" = {
AngleInDegrees = 104.03624;
};
}),
(310,227,o),
(342,225,o),
(364,225,cs,{
"Letterink-NibData" = {
AngleInDegrees = 90;
};
}),
(473,225,o),
(592,297,o),
(592,459,cs),
(592,580,o),
(512,686,o),
(373,686,cs,{
"Letterink-NibData" = {
AngleInDegrees = 270;
};
}),
(151,686,l,{
"Letterink-NibData" = {
AngleInDegrees = 180;
};
}),
(151,-1,l,{
"Letterink-NibData" = {
AngleInDegrees = 90;
};
})
);
}
);
width = 621;
},
{
anchors = (
{
name = bottom;
pos = (279,0);
},
{
name = top;
pos = (300,684);
}
);
hints = (
{
name = _corner.caps_left;
origin = (0,22);
type = Corner;
}
);
layerId = "49C16FD3-6177-408B-A733-AEB3898BB77C";
shapes = (
{
closed = 1;
nodes = (
(179,0,l),
(179,649,l,{
"Letterink-NibData" = {
AngleInDegrees = 90;
};
}),
(337,649,ls,{
"Letterink-NibData" = {
AngleInDegrees = 90;
};
}),
(439,649,o),
(516,590,o),
(516,466,cs,{
"Letterink-NibData" = {
AngleInDegrees = 180;
};
}),
(516,333,o),
(432,283,o),
(322,283,cs,{
"Letterink-NibData" = {
AngleInDegrees = 270;
};
}),
(309,283,o),
(277,283,o),
(242,286,c,{
"Letterink-NibData" = {
AngleInDegrees = 180;
};
}),
(242,252,l,{
"Letterink-NibData" = {
AngleInDegrees = 97.59464;
};
}),
(272,248,o),
(309,247,o),
(327,247,cs,{
"Letterink-NibData" = {
AngleInDegrees = 90;
};
}),
(448,247,o),
(554,313,o),
(554,467,cs),
(554,591,o),
(482,689,o),
(351,687,cs,{
"Letterink-NibData" = {
AngleInDegrees = 269.72846;
};
}),
(141,684,l,{
"Letterink-NibData" = {
AngleInDegrees = 180;
};
}),
(141,0,l,{
"Letterink-NibData" = {
AngleInDegrees = 90;
};
})
);
}
);
width = 595;
},
{
anchors = (
{
name = bottom;
pos = (354,0);
},
{
name = top;
pos = (354,684);
}
);
hints = (
{
name = _corner.caps_left;
origin = (0,22);
type = Corner;
}
);
layerId = m004;
shapes = (
{
closed = 1;
nodes = (
(347,-1,l),
(347,533,l,{
"Letterink-NibData" = {
AngleInDegrees = 90;
};
}),
(408,533,ls,{
"Letterink-NibData" = {
AngleInDegrees = 90;
};
}),
(449,533,o),
(497,509,o),
(497,440,cs,{
"Letterink-NibData" = {
AngleInDegrees = 180;
};
}),
(497,389,o),
(470,350,o),
(417,350,cs,{
"Letterink-NibData" = {
AngleInDegrees = 270;
};
}),
(409,350,o),
(395,351,o),
(384,354,c,{
"Letterink-NibData" = {
AngleInDegrees = 180;
};
}),
(384,215,l,{
"Letterink-NibData" = {
AngleInDegrees = 104.03624;
};
}),
(399,211,o),
(424,209,o),
(442,209,cs,{
"Letterink-NibData" = {
AngleInDegrees = 90;
};
}),
(579,209,o),
(662,321,o),
(662,447,cs),
(662,586,o),
(560,685,o),
(427,685,cs,{
"Letterink-NibData" = {
AngleInDegrees = 270;
};
}),
(182,685,l,{
"Letterink-NibData" = {
AngleInDegrees = 180;
};
}),
(182,-1,l,{
"Letterink-NibData" = {
AngleInDegrees = 90;
};
})
);
}
);
width = 683;
}
);
metricLeft = H;
unicode = 80;
userData = {
position = 480;
width = 59;
};
},
{
glyphname = P.ss01;
kernRight = P;
layers = (
{
anchors = (
{
name = bottom;
pos = (260,0);
},
{
name = top;
pos = (260,684);
}
);
layerId = "0CAF3BED-C4AC-4024-B3E1-4C69D1EF7EC0";
shapes = (
{
closed = 1;
nodes = (
(421,216,o),
(517,313,o),
(517,451,cs),
(517,581,o),
(433,684,o),
(307,684,cs,{
"Letterink-NibData" = {
AngleInDegrees = 270;
};
}),
(79,684,l,{
"Letterink-NibData" = {
AngleInDegrees = 180;
};
}),
(79,608,l,{
"Letterink-NibData" = {
AngleInDegrees = 90;
};
}),
(294,608,ls,{
"Letterink-NibData" = {
AngleInDegrees = 90;
};
}),
(378,608,o),
(435,549,o),
(435,454,cs,{
"Letterink-NibData" = {
AngleInDegrees = 180;
};
}),
(435,356,o),
(373,292,o),
(253,292,cs,{
"Letterink-NibData" = {
AngleInDegrees = 270;
};
}),
(220,292,o),
(181,297,o),
(130,303,c,{
"Letterink-NibData" = {
AngleInDegrees = 180;
};
}),
(130,226,l,{
"Letterink-NibData" = {
AngleInDegrees = 90;
};
}),
(172,221,o),
(216,216,o),
(254,216,cs,{
"Letterink-NibData" = {
AngleInDegrees = 90;
};
})
);
},
{
closed = 1;
nodes = (
(161,-1,l),
(161,683,l,{
"Letterink-NibData" = {
AngleInDegrees = 270;
};
}),
(79,683,l,{
"Letterink-NibData" = {
AngleInDegrees = 180;
};
}),
(79,-1,l,{
"Letterink-NibData" = {
AngleInDegrees = 90;
};
})
);
}
);
width = 546;
},
{
anchors = (
{
name = bottom;
pos = (274,0);
},
{
name = top;
pos = (265,684);
}
);
layerId = "49C16FD3-6177-408B-A733-AEB3898BB77C";
shapes = (
{
closed = 1;
nodes = (
(407,235,o),
(504,329,o),
(504,468,cs),
(504,598,o),
(418,684,o),
(288,684,cs,{
"Letterink-NibData" = {
AngleInDegrees = 270;
};
}),
(86,684,l,{
"Letterink-NibData" = {
AngleInDegrees = 180;
};
}),
(86,648,l,{
"Letterink-NibData" = {
AngleInDegrees = 90;
};
}),
(274,648,ls,{
"Letterink-NibData" = {
AngleInDegrees = 90;
};
}),
(402,648,o),
(466,575,o),
(466,468,cs,{
"Letterink-NibData" = {
AngleInDegrees = 180;
};
}),
(466,341,o),
(375,271,o),
(240,271,cs,{
"Letterink-NibData" = {
AngleInDegrees = 270;
};
}),
(217,271,o),
(142,271,o),
(110,282,c,{
"Letterink-NibData" = {
AngleInDegrees = 180;
};
}),
(110,247,l,{
"Letterink-NibData" = {
AngleInDegrees = 90;
};
}),
(131,237,o),
(207,235,o),
(232,235,cs,{
"Letterink-NibData" = {
AngleInDegrees = 90;
};
})
);
},
{
closed = 1;
nodes = (
(124,0,l),
(124,681,l,{
"Letterink-NibData" = {
AngleInDegrees = 270;
};
}),
(86,681,l,{
"Letterink-NibData" = {
AngleInDegrees = 180;
};
}),
(86,0,l,{
"Letterink-NibData" = {
AngleInDegrees = 90;
};
})
);
}
);
width = 544;
},
{
anchors = (
{
name = bottom;
pos = (171,0);
},
{
name = top;
pos = (274,684);
}
);
layerId = m004;
shapes = (
{
closed = 1;
nodes = (
(478,200,o),
(556,311,o),
(556,435,cs),
(556,585,o),
(450,684,o),
(311,684,cs,{
"Letterink-NibData" = {
AngleInDegrees = "270";
};
}),
(66,684,l,{
"Letterink-NibData" = {
AngleInDegrees = "180";
};
}),
(66,532,l),
(297,532,ls,{
"Letterink-NibData" = {
AngleInDegrees = "90";
};
}),
(332,532,o,{
"Letterink-NibData" = {
AngleInDegrees = 90;
};
}),
(391,509,o),
(391,435,cs,{
"Letterink-NibData" = {
AngleInDegrees = "180";
};
}),
(391,387,o),
(362,341,o),
(280,341,cs,{
"Letterink-NibData" = {
AngleInDegrees = "270";
};
}),
(257,341,o),
(226,344,o),
(205,354,c,{
"Letterink-NibData" = {
AngleInDegrees = "180";
};
}),
(205,208,l,{
"Letterink-NibData" = {
AngleInDegrees = "104.03624";
};
}),
(225,196,o),
(267,194,o),
(306,195,cs,{
"Letterink-NibData" = {
AngleInDegrees = "90";
};
})
);
},
{
closed = 1;
nodes = (
(231,-1,l),
(231,547,l,{
"Letterink-NibData" = {
AngleInDegrees = "90";
};
}),
(66,559,l,{
"Letterink-NibData" = {
AngleInDegrees = "180";
};
}),
(66,-1,l,{
"Letterink-NibData" = {
AngleInDegrees = "90";
};
})
);
}
);
width = 577;
}
);
metricLeft = N.ss01;
userData = {
position = 480;
width = 59;
};
},
{
glyphname = P.swsh;
kernLeft = Swash;
kernRight = P;
layers = (
{
anchors = (
{
name = bottom;
pos = (350,0);
},
{
name = top;
pos = (370,684);
}
);
hints = (
{
name = _corner.caps_swash;
options = 2;
origin = (0,6);
type = Corner;
}
);
layerId = "0CAF3BED-C4AC-4024-B3E1-4C69D1EF7EC0";
shapes = (
{
closed = 1;
nodes = (
(535,224,o),
(646,309,o),
(646,458,cs),
(646,582,o),
(568,685,o),
(429,685,cs,{
"Letterink-NibData" = {
AngleInDegrees = 270;
};
}),
(185,685,l,{
"Letterink-NibData" = {
AngleInDegrees = 180;
};
}),
(185,609,l,{
"Letterink-NibData" = {
AngleInDegrees = 90;
};
}),
(415,609,ls,{
"Letterink-NibData" = {
AngleInDegrees = 90;
};
}),
(508,609,o),
(566,550,o),
(566,458,cs,{
"Letterink-NibData" = {
AngleInDegrees = 180;
};
}),
(566,361,o),
(504,300,o),
(394,300,cs,{
"Letterink-NibData" = {
AngleInDegrees = 270;
};
}),
(370,300,o),
(350,301,o),
(325,307,c,{
"Letterink-NibData" = {
AngleInDegrees = 180;
};
}),
(325,231,l,{
"Letterink-NibData" = {
AngleInDegrees = 103.24052;
};
}),
(342,227,o),
(364,224,o),
(390,224,cs,{
"Letterink-NibData" = {
AngleInDegrees = 90;
};
})
);
},
{
closed = 1;
nodes = (
(289,-1,l),
(289,559,l,{
"Letterink-NibData" = {
AngleInDegrees = 270;
};
}),
(206,559,l,{
"Letterink-NibData" = {
AngleInDegrees = 180;
};
}),
(206,-1,l,{
"Letterink-NibData" = {
AngleInDegrees = 90;
};
})
);
}
);
width = 675;
},
{
anchors = (
{
name = bottom;
pos = (338,0);
},
{
name = top;
pos = (338,684);
}
);
hints = (
{
name = _corner.caps_swash;
options = 2;
origin = (0,6);
type = Corner;
}
);
layerId = "49C16FD3-6177-408B-A733-AEB3898BB77C";
shapes = (
{
closed = 1;
nodes = (
(524,244,o),
(615,325,o),
(615,465,cs),
(615,593,o),
(534,684,o),
(383,684,cs,{
"Letterink-NibData" = {
AngleInDegrees = 270;
};
}),
(167,684,l,{
"Letterink-NibData" = {
AngleInDegrees = 180;
};
}),
(167,648,l,{
"Letterink-NibData" = {
AngleInDegrees = 90;
};
}),
(369,648,ls,{
"Letterink-NibData" = {
AngleInDegrees = 90;
};
}),
(501,648,o),
(576,584,o),
(576,467,cs,{
"Letterink-NibData" = {
AngleInDegrees = 180;
};
}),
(576,347,o),
(503,279,o),
(375,279,cs,{
"Letterink-NibData" = {
AngleInDegrees = 270;
};
}),
(354,279,o),
(330,281,o),
(306,284,c,{
"Letterink-NibData" = {
AngleInDegrees = 180;
};
}),
(306,249,l,{
"Letterink-NibData" = {
AngleInDegrees = 96.84277;
};
}),
(328,246,o),
(349,244,o),
(366,244,cs,{
"Letterink-NibData" = {
AngleInDegrees = 90;
};
})
);
},
{
closed = 1;
nodes = (
(242,0,l),
(242,569,l,{
"Letterink-NibData" = {
AngleInDegrees = 270;
};
}),
(201,569,l,{
"Letterink-NibData" = {
AngleInDegrees = 180;
};
}),
(201,0,l,{
"Letterink-NibData" = {
AngleInDegrees = 90;
};
})
);
}
);
width = 656;
},
{
anchors = (
{
name = bottom;
pos = (287,0);
},
{
name = top;
pos = (287,684);
}
);
hints = (
{
name = _corner.caps_swash;
origin = (0,6);
type = Corner;
}
);
layerId = m004;
shapes = (
{
closed = 1;
nodes = (
(620,199,o),
(703,316,o),
(703,445,cs),
(703,586,o),
(601,684,o),
(468,684,cs,{
"Letterink-NibData" = {
AngleInDegrees = "270";
};
}),
(222,684,l,{
"Letterink-NibData" = {
AngleInDegrees = "180";
};
}),
(222,536,l),
(447,536,ls,{
"Letterink-NibData" = {
AngleInDegrees = "90";
};
}),
(490,536,o),
(538,509,o),
(538,445,cs,{
"Letterink-NibData" = {
AngleInDegrees = "180";
};
}),
(538,389,o),
(511,350,o),
(467,350,cs,{
"Letterink-NibData" = {
AngleInDegrees = "270";
};
}),
(450,350,o),
(443,351,o),
(425,357,c,{
"Letterink-NibData" = {
AngleInDegrees = "180";
};
}),
(425,208,l,{
"Letterink-NibData" = {
AngleInDegrees = "104.03624";
};
}),
(447,201,o),
(465,199,o),
(496,199,cs,{
"Letterink-NibData" = {
AngleInDegrees = "90";
};
})
);
},
{
closed = 1;
nodes = (
(388,-1,l),
(388,497,l,{
"Letterink-NibData" = {
AngleInDegrees = "90";
};
}),
(223,499,l,{
"Letterink-NibData" = {
AngleInDegrees = "180";
};
}),
(223,-1,l,{
"Letterink-NibData" = {
AngleInDegrees = "90";
};
})
);
}
);
width = 724;
}
);
metricLeft = E.swsh;
metricRight = P;
userData = {
position = 480;
width = 59;
};
},
{
glyphname = Thorn;
kernRight = O;
layers = (
{
anchors = (
{
name = bottom;
pos = (264,0);
},
{
name = top;
pos = (264,684);
}
);
layerId = "0CAF3BED-C4AC-4024-B3E1-4C69D1EF7EC0";
shapes = (
{
closed = 1;
nodes = (
(161,-1,l),
(161,493,l,{
"Letterink-NibData" = {
AngleInDegrees = 90;
};
}),
(282,493,ls,{
"Letterink-NibData" = {
AngleInDegrees = 90;
};
}),
(366,493,o),
(418,446,o),
(418,356,cs,{
"Letterink-NibData" = {
AngleInDegrees = 180;
};
}),
(418,253,o),
(349,208,o),
(256,208,cs,{
"Letterink-NibData" = {
AngleInDegrees = 270;
};
}),
(233,208,o),
(212,211,o),
(187,215,c,{
"Letterink-NibData" = {
AngleInDegrees = 180;
};
}),
(187,138,l,{
"Letterink-NibData" = {
AngleInDegrees = 99.46232;
};
}),
(199,136,o),
(222,132,o),
(253,132,cs,{
"Letterink-NibData" = {
AngleInDegrees = 90;
};
}),
(388,132,o),
(500,200,o),
(500,353,cs),
(500,478,o),
(422,562,o),
(302,569,c,{
"Letterink-NibData" = {
AngleInDegrees = 270;
};
}),
(161,569,l),
(161,686,l,{
"Letterink-NibData" = {
AngleInDegrees = 270;
};
}),
(79,686,l,{
"Letterink-NibData" = {
AngleInDegrees = 180;
};
}),
(79,-1,l,{
"Letterink-NibData" = {
AngleInDegrees = 90;
};
})
);
}
);
width = 529;
},
{
anchors = (
{
name = bottom;
pos = (249,0);
},
{
name = top;
pos = (249,684);
}
);
layerId = "49C16FD3-6177-408B-A733-AEB3898BB77C";
shapes = (
{
closed = 1;
nodes = (
(124,1,l),
(124,523,l,{
"Letterink-NibData" = {
AngleInDegrees = 90;
};
}),
(275,523,ls,{
"Letterink-NibData" = {
AngleInDegrees = 90;
};
}),
(376,523,o),
(444,466,o),
(444,357,cs,{
"Letterink-NibData" = {
AngleInDegrees = 180;
};
}),
(444,233,o),
(355,177,o),
(247,177,cs,{
"Letterink-NibData" = {
AngleInDegrees = 270;
};
}),
(212,177,o),
(201,177,o),
(188,179,c,{
"Letterink-NibData" = {
AngleInDegrees = 180;
};
}),
(188,146,l,{
"Letterink-NibData" = {
AngleInDegrees = 101.30993;
};
}),
(197,144,o),
(223,143,o),
(244,143,cs,{
"Letterink-NibData" = {
AngleInDegrees = 90;
};
}),
(381,143,o),
(481,205,o),
(481,353,cs),
(481,478,o),
(412,552,o),
(294,559,c,{
"Letterink-NibData" = {
AngleInDegrees = 270;
};
}),
(124,559,l),
(124,685,l,{
"Letterink-NibData" = {
AngleInDegrees = 270;
};
}),
(86,685,l,{
"Letterink-NibData" = {
AngleInDegrees = 180;
};
}),
(86,1,l,{
"Letterink-NibData" = {
AngleInDegrees = 90;
};
})
);
}
);
width = 522;
},
{
anchors = (
{
name = bottom;
pos = (284,0);
},
{
name = top;
pos = (284,684);
}
);
layerId = m004;
shapes = (
{
closed = 1;
nodes = (
(231,-1,l),
(231,440,l),
(290,440,ls,{
"Letterink-NibData" = {
AngleInDegrees = "90";
};
}),
(333,440,o),
(381,414,o),
(381,350,cs,{
"Letterink-NibData" = {
AngleInDegrees = "180";
};
}),
(381,294,o),
(354,255,o),
(310,255,cs,{
"Letterink-NibData" = {
AngleInDegrees = "270";
};
}),
(293,255,o),
(286,256,o),
(268,262,c,{
"Letterink-NibData" = {
AngleInDegrees = "180";
};
}),
(268,113,l,{
"Letterink-NibData" = {
AngleInDegrees = "104.03624";
};
}),
(290,106,o),
(308,104,o),
(339,104,cs,{
"Letterink-NibData" = {
AngleInDegrees = "90";
};
}),
(463,104,o),
(546,221,o),
(546,350,cs),
(546,491,o),
(444,588,o),
(311,588,cs,{
"Letterink-NibData" = {
AngleInDegrees = "270";
};
}),
(231,588,l),
(231,683,l,{
"Letterink-NibData" = {
AngleInDegrees = "90";
};
}),
(66,685,l,{
"Letterink-NibData" = {
AngleInDegrees = "180";
};
}),
(66,-1,l,{
"Letterink-NibData" = {
AngleInDegrees = "90";
};
})
);
}
);
width = 567;
}
);
metricLeft = "=|H";
metricRight = P;
unicode = 222;
userData = {
position = 403;
width = 59;
};
},
{
glyphname = Thorn.ss01;
kernRight = O;
layers = (
{
anchors = (
{
name = bottom;
pos = (264,0);
},
{
name = top;
pos = (264,684);
}
);
layerId = "0CAF3BED-C4AC-4024-B3E1-4C69D1EF7EC0";
shapes = (
{
closed = 1;
nodes = (
(388,132,o),
(500,200,o),
(500,353,cs),
(500,478,o),
(422,562,o),
(302,569,c,{
"Letterink-NibData" = {
AngleInDegrees = 270;
};
}),
(145,569,l),
(145,493,l),
(282,493,ls,{
"Letterink-NibData" = {
AngleInDegrees = 90;
};
}),
(366,493,o),
(418,446,o),
(418,356,cs,{
"Letterink-NibData" = {
AngleInDegrees = 180;
};
}),
(418,253,o),
(349,208,o),
(256,208,cs,{
"Letterink-NibData" = {
AngleInDegrees = 270;
};
}),
(233,208,o),
(152,206,o),
(127,210,c,{
"Letterink-NibData" = {
AngleInDegrees = 180;
};
}),
(127,133,l,{
"Letterink-NibData" = {
AngleInDegrees = 99.46232;
};
}),
(139,131,o),
(222,132,o),
(253,132,cs,{
"Letterink-NibData" = {
AngleInDegrees = 90;
};
})
);
},
{
closed = 1;
nodes = (
(161,-1,l),
(161,686,l,{
"Letterink-NibData" = {
AngleInDegrees = 270;
};
}),
(79,686,l,{
"Letterink-NibData" = {
AngleInDegrees = 180;
};
}),
(79,-1,l,{
"Letterink-NibData" = {
AngleInDegrees = 90;
};
})
);
}
);
width = 529;
},
{
anchors = (
{
name = bottom;
pos = (249,0);
},
{
name = top;
pos = (249,684);
}
);
layerId = "49C16FD3-6177-408B-A733-AEB3898BB77C";
shapes = (
{
closed = 1;
nodes = (
(381,143,o),
(481,205,o),
(481,353,cs),
(481,478,o),
(412,552,o),
(294,559,c,{
"Letterink-NibData" = {
AngleInDegrees = 270;
};
}),
(114,559,l),
(114,523,l),
(275,523,ls,{
"Letterink-NibData" = {
AngleInDegrees = 90;
};
}),
(376,523,o),
(444,466,o),
(444,357,cs,{
"Letterink-NibData" = {
AngleInDegrees = 180;
};
}),
(444,233,o),
(355,177,o),
(247,177,cs,{
"Letterink-NibData" = {
AngleInDegrees = 270;
};
}),
(196,177,o),
(133,174,o),
(116,177,c,{
"Letterink-NibData" = {
AngleInDegrees = 180;
};
}),
(116,144,l,{
"Letterink-NibData" = {
AngleInDegrees = 101.30993;
};
}),
(125,142,o),
(224,143,o),
(244,143,cs,{
"Letterink-NibData" = {
AngleInDegrees = 90;
};
})
);
},
{
closed = 1;
nodes = (
(124,1,l),
(124,685,l,{
"Letterink-NibData" = {
AngleInDegrees = 270;
};
}),
(86,685,l,{
"Letterink-NibData" = {
AngleInDegrees = 180;
};
}),
(86,1,l,{
"Letterink-NibData" = {
AngleInDegrees = 90;
};
})
);
}
);
width = 522;
},
{
anchors = (
{
name = bottom;
pos = (275,0);
},
{
name = top;
pos = (275,684);
}
);
layerId = m004;
shapes = (
{
closed = 1;
nodes = (
(468,102,o),
(546,218,o),
(546,342,cs),
(546,489,o),
(444,586,o),
(311,586,cs,{
"Letterink-NibData" = {
AngleInDegrees = "270";
};
}),
(66,586,l,{
"Letterink-NibData" = {
AngleInDegrees = "180";
};
}),
(66,434,l),
(297,434,ls,{
"Letterink-NibData" = {
AngleInDegrees = "90";
};
}),
(328,434,o),
(381,412,o),
(381,342,cs,{
"Letterink-NibData" = {
AngleInDegrees = "180";
};
}),
(381,297,o),
(352,253,o),
(270,253,cs,{
"Letterink-NibData" = {
AngleInDegrees = "270";
};
}),
(247,253,o),
(216,256,o),
(195,266,c,{
"Letterink-NibData" = {
AngleInDegrees = "180";
};
}),
(195,115,l,{
"Letterink-NibData" = {
AngleInDegrees = "104.03624";
};
}),
(215,108,o),
(257,102,o),
(296,102,cs,{
"Letterink-NibData" = {
AngleInDegrees = "90";
};
})
);
},
{
closed = 1;
nodes = (
(231,-1,l),
(231,684,l,{
"Letterink-NibData" = {
AngleInDegrees = "90";
};
}),
(66,688,l,{
"Letterink-NibData" = {
AngleInDegrees = "180";
};
}),
(66,-1,l,{
"Letterink-NibData" = {
AngleInDegrees = "90";
};
})
);
}
);
width = 567;
}
);
metricLeft = "=|H";
metricRight = P;
userData = {
position = 403;
width = 59;
};
},
{
glyphname = Q;
kernLeft = O;
kernRight = O;
layers = (
{
anchors = (
{
name = bottom;
pos = (388,0);
},
{
name = top;
pos = (388,684);
}
);
layerId = "0CAF3BED-C4AC-4024-B3E1-4C69D1EF7EC0";
shapes = (
{
closed = 1;
nodes = (
(279,-137,l,{
"Letterink-NibData" = {
AngleInDegrees = 108.2394;
};
}),
(308,-143,o),
(338,-156,o),
(367,-166,cs,{
"Letterink-NibData" = {
AngleInDegrees = 107.52557;
};
}),
(405,-178,o),
(439,-188,o),
(496,-188,cs,{
"Letterink-NibData" = {
AngleInDegrees = 90;
};
}),
(534,-188,o),
(579,-175,o),
(623,-138,c,{
"Letterink-NibData" = {
AngleInDegrees = 330.25512;
};
}),
(587,-75,l,{
"Letterink-NibData" = {
AngleInDegrees = 234.34467;
};
}),
(541,-108,o),
(521,-114,o),
(490,-114,cs,{
"Letterink-NibData" = {
AngleInDegrees = 270;
};
}),
(459,-114,o),
(422,-107,o),
(386,-95,cs,{
"Letterink-NibData" = {
AngleInDegrees = 288.43495;
};
}),
(365,-88,o),
(344,-77,o),
(323,-74,c,{
"Letterink-NibData" = {
AngleInDegrees = 34.09498;
};
}),
(376,4,l,{
"Letterink-NibData" = {
AngleInDegrees = 90;
};
}),
(296,17,l,{
"Letterink-NibData" = {
AngleInDegrees = 215.43331;
};
}),
(176,-152,l,{
"Letterink-NibData" = {
AngleInDegrees = 128.07278;
};
}),
(236,-199,l,{
"Letterink-NibData" = {
AngleInDegrees = 34.74318;
};
})
);
},
{
ref = O;
}
);
width = 768;
},
{
anchors = (
{
name = bottom;
pos = (382,0);
},
{
name = top;
pos = (382,684);
}
);
layerId = "49C16FD3-6177-408B-A733-AEB3898BB77C";
shapes = (
{
closed = 1;
nodes = (
(254,-129,l,{
"Letterink-NibData" = {
AngleInDegrees = 108.43495;
};
}),
(291,-134,o),
(328,-153,o),
(365,-165,cs,{
"Letterink-NibData" = {
AngleInDegrees = 108.79988;
};
}),
(414,-181,o),
(450,-188,o),
(496,-188,cs,{
"Letterink-NibData" = {
AngleInDegrees = 90;
};
}),
(528,-188,o),
(561,-180,o),
(601,-151,c,{
"Letterink-NibData" = {
AngleInDegrees = 329.03624;
};
}),
(585,-121,l,{
"Letterink-NibData" = {
AngleInDegrees = 236.30993;
};
}),
(544,-148,o),
(516,-152,o),
(489,-152,cs,{
"Letterink-NibData" = {
AngleInDegrees = 270;
};
}),
(454,-152,o),
(414,-146,o),
(370,-131,cs,{
"Letterink-NibData" = {
AngleInDegrees = 288.62158;
};
}),
(338,-120,o),
(307,-107,o),
(275,-99,c,{
"Letterink-NibData" = {
AngleInDegrees = 34.33965;
};
}),
(351,9,l,{
"Letterink-NibData" = {
AngleInDegrees = 90;
};
}),
(312,16,l,{
"Letterink-NibData" = {
AngleInDegrees = 215.53768;
};
}),
(184,-164,l,{
"Letterink-NibData" = {
AngleInDegrees = 126.57303;
};
}),
(211,-185,l,{
"Letterink-NibData" = {
AngleInDegrees = 33.25437;
};
})
);
},
{
ref = O;
}
);
width = 756;
},
{
anchors = (
{
name = bottom;
pos = (392,0);
},
{
name = top;
pos = (392,684);
}
);
layerId = m004;
shapes = (
{
closed = 1;
nodes = (
(293,-204,l,{
"Letterink-NibData" = {
AngleInDegrees = 108.2394;
};
}),
(313,-211,o),
(336,-219,o),
(354,-224,cs,{
"Letterink-NibData" = {
AngleInDegrees = 107.52557;
};
}),
(384,-232,o),
(422,-245,o),
(487,-245,cs,{
"Letterink-NibData" = {
AngleInDegrees = 90;
};
}),
(553,-245,o),
(605,-226,o),
(685,-171,c,{
"Letterink-NibData" = {
AngleInDegrees = 330.25512;
};
}),
(615,-50,l,{
"Letterink-NibData" = {
AngleInDegrees = 234.34467;
};
}),
(569,-83,o),
(531,-98,o),
(487,-98,cs,{
"Letterink-NibData" = {
AngleInDegrees = 270;
};
}),
(460,-98,o),
(436,-95,o),
(421,-92,cs,{
"Letterink-NibData" = {
AngleInDegrees = 288.43495;
};
}),
(407,-89,o),
(389,-84,o),
(377,-79,c,{
"Letterink-NibData" = {
AngleInDegrees = 34.09498;
};
}),
(482,67,l,{
"Letterink-NibData" = {
AngleInDegrees = 90;
};
}),
(319,94,l,{
"Letterink-NibData" = {
AngleInDegrees = 215.43331;
};
}),
(127,-171,l,{
"Letterink-NibData" = {
AngleInDegrees = 128.07278;
};
}),
(250,-265,l,{
"Letterink-NibData" = {
AngleInDegrees = 34.74318;
};
})
);
},
{
ref = O;
}
);
width = 790;
}
);
metricLeft = O;
metricRight = O;
unicode = 81;
userData = {
position = 652;
width = 60;
};
},
{
glyphname = Q.swsh;
kernLeft = O;
kernRight = O;
layers = (
{
anchors = (
{
name = bottom;
pos = (390,0);
},
{
name = top;
pos = (390,684);
}
);
layerId = "0CAF3BED-C4AC-4024-B3E1-4C69D1EF7EC0";
shapes = (
{
closed = 1;
nodes = (
(680,-274,o),
(765,-155,o),
(704,-60,cs),
(663,1,o),
(564,5,o),
(513,-51,c),
(568,-100,l),
(590,-77,o),
(621,-78,o),
(636,-101,cs),
(666,-148,o),
(626,-195,o),
(559,-192,cs),
(465,-189,o),
(424,-71,o),
(250,-97,c),
(260,-167,l),
(406,-150,o),
(432,-267,o),
(556,-268,cs)
);
},
{
closed = 1;
nodes = (
(378,4,l,{
"Letterink-NibData" = {
AngleInDegrees = 90;
};
}),
(298,17,l,{
"Letterink-NibData" = {
AngleInDegrees = 215.43331;
};
}),
(178,-152,l,{
"Letterink-NibData" = {
AngleInDegrees = 128.07278;
};
}),
(238,-199,l,{
"Letterink-NibData" = {
AngleInDegrees = 34.74318;
};
})
);
},
{
ref = O;
}
);
width = 768;
},
{
anchors = (
{
name = bottom;
pos = (375,0);
},
{
name = top;
pos = (375,684);
}
);
layerId = "49C16FD3-6177-408B-A733-AEB3898BB77C";
shapes = (
{
closed = 1;
nodes = (
(647,-256,o),
(730,-148,o),
(674,-62,cs),
(638,-8,o),
(550,-3,o),
(513,-57,c),
(542,-79,l),
(569,-42,o),
(618,-45,o),
(642,-82,cs),
(682,-143,o),
(624,-225,o),
(542,-222,cs),
(430,-218,o),
(372,-101,o),
(226,-120,c),
(232,-155,l),
(361,-139,o),
(427,-260,o),
(551,-258,cs)
);
},
{
closed = 1;
nodes = (
(344,-1,l,{
"Letterink-NibData" = {
AngleInDegrees = 90;
};
}),
(312,6,l,{
"Letterink-NibData" = {
AngleInDegrees = 215.53768;
};
}),
(180,-179,l,{
"Letterink-NibData" = {
AngleInDegrees = 126.57303;
};
}),
(208,-199,l,{
"Letterink-NibData" = {
AngleInDegrees = 33.25437;
};
})
);
},
{
ref = O;
}
);
width = 756;
},
{
anchors = (
{
name = bottom;
pos = (370,0);
},
{
name = top;
pos = (370,684);
}
);
layerId = m004;
shapes = (
{
closed = 1;
nodes = (
(663,-318,o),
(755,-186,o),
(688,-79,cs),
(641,-3,o),
(525,16,o),
(463,-70,c),
(547,-150,l),
(551,-140,o),
(565,-141,o),
(568,-149,cs),
(575,-165,o),
(559,-177,o),
(541,-176,cs),
(429,-172,o),
(403,-61,o),
(251,-95,c),
(265,-218,l),
(350,-211,o),
(399,-308,o),
(526,-313,cs)
);
},
{
closed = 1;
nodes = (
(467,67,l,{
"Letterink-NibData" = {
AngleInDegrees = "90";
};
}),
(304,94,l,{
"Letterink-NibData" = {
AngleInDegrees = "215.43331";
};
}),
(112,-171,l,{
"Letterink-NibData" = {
AngleInDegrees = "128.07278";
};
}),
(235,-265,l,{
"Letterink-NibData" = {
AngleInDegrees = "34.74318";
};
})
);
},
{
ref = O;
}
);
width = 790;
}
);
metricLeft = O;
metricRight = O;
userData = {
position = 652;
width = 60;
};
},
{
glyphname = R;
kernLeft = E;
kernRight = R;
layers = (
{
anchors = (
{
name = bottom;
pos = (342,0);
},
{
name = top;
pos = (329,684);
}
);
hints = (
{
name = _corner.caps_left;
origin = (0,25);
type = Corner;
}
);
layerId = "0CAF3BED-C4AC-4024-B3E1-4C69D1EF7EC0";
shapes = (
{
closed = 1;
nodes = (
(610,-15,o),
(638,4,o),
(655,33,c,{
"Letterink-NibData" = {
AngleInDegrees = 304.93094;
};
}),
(598,76,l,{
"Letterink-NibData" = {
AngleInDegrees = 201.80141;
};
}),
(593,67,o),
(587,61,o),
(578,61,cs,{
"Letterink-NibData" = {
AngleInDegrees = 270;
};
}),
(570,61,o),
(564,65,o),
(559,72,cs,{
"Letterink-NibData" = {
AngleInDegrees = 324.61211;
};
}),
(525,120,o),
(514,175,o),
(482,222,cs,{
"Letterink-NibData" = {
AngleInDegrees = 323.74616;
};
}),
(459,256,o),
(436,282,o),
(412,289,c,{
"Letterink-NibData" = {
AngleInDegrees = 90;
};
}),
(438,289,o),
(469,295,o),
(486,306,cs,{
"Letterink-NibData" = {
AngleInDegrees = 58.17255;
};
}),
(551,346,o),
(592,404,o),
(592,474,cs),
(592,592,o),
(509,686,o),
(382,686,cs,{
"Letterink-NibData" = {
AngleInDegrees = 270;
};
}),
(153,686,l,{
"Letterink-NibData" = {
AngleInDegrees = 180;
};
}),
(153,-1,l,{
"Letterink-NibData" = {
AngleInDegrees = 90;
};
}),
(235,-1,l),
(235,611,l,{
"Letterink-NibData" = {
AngleInDegrees = 90;
};
}),
(379,611,ls,{
"Letterink-NibData" = {
AngleInDegrees = 90;
};
}),
(456,611,o),
(510,554,o),
(510,474,cs,{
"Letterink-NibData" = {
AngleInDegrees = 180;
};
}),
(510,394,o),
(455,345,o),
(368,345,cs,{
"Letterink-NibData" = {
AngleInDegrees = 270;
};
}),
(292,345,l,{
"Letterink-NibData" = {
AngleInDegrees = 180;
};
}),
(292,268,l,{
"Letterink-NibData" = {
AngleInDegrees = 93.27049;
};
}),
(362,264,o),
(370,240,o),
(405,192,cs,{
"Letterink-NibData" = {
AngleInDegrees = 144.29331;
};
}),
(443,140,o),
(456,79,o),
(494,27,cs,{
"Letterink-NibData" = {
AngleInDegrees = 144.09028;
};
}),
(515,-2,o),
(545,-15,o),
(575,-15,cs,{
"Letterink-NibData" = {
AngleInDegrees = 90;
};
})
);
}
);
width = 665;
},
{
anchors = (
{
name = bottom;
pos = (309,0);
},
{
name = top;
pos = (305,684);
}
);
hints = (
{
name = _corner.caps_left;
origin = (0,25);
type = Corner;
}
);
layerId = "49C16FD3-6177-408B-A733-AEB3898BB77C";
shapes = (
{
closed = 1;
nodes = (
(595,-9,o),
(618,11,o),
(627,29,c,{
"Letterink-NibData" = {
AngleInDegrees = 304.11447;
};
}),
(601,50,l,{
"Letterink-NibData" = {
AngleInDegrees = 225;
};
}),
(595,38,o),
(579,26,o),
(566,26,cs,{
"Letterink-NibData" = {
AngleInDegrees = 270;
};
}),
(551,26,o),
(541,36,o),
(533,47,cs,{
"Letterink-NibData" = {
AngleInDegrees = 323.49856;
};
}),
(486,111,o),
(463,184,o),
(407,251,cs,{
"Letterink-NibData" = {
AngleInDegrees = 322.59464;
};
}),
(386,276,o),
(377,282,o),
(347,293,c,{
"Letterink-NibData" = {
AngleInDegrees = 90;
};
}),
(360,293,o),
(373,293,o),
(386,293,cs,{
"Letterink-NibData" = {
AngleInDegrees = 90;
};
}),
(478,291,o),
(556,373,o),
(556,483,cs),
(556,598,o),
(478,685,o),
(363,685,cs,{
"Letterink-NibData" = {
AngleInDegrees = 269.73838;
};
}),
(145,685,l,{
"Letterink-NibData" = {
AngleInDegrees = 180;
};
}),
(145,1,l,{
"Letterink-NibData" = {
AngleInDegrees = 90;
};
}),
(183,1,l),
(183,649,l,{
"Letterink-NibData" = {
AngleInDegrees = 90;
};
}),
(359,649,ls,{
"Letterink-NibData" = {
AngleInDegrees = 90;
};
}),
(450,649,o),
(518,577,o),
(518,483,cs,{
"Letterink-NibData" = {
AngleInDegrees = 180;
};
}),
(518,386,o),
(456,321,o),
(348,321,cs,{
"Letterink-NibData" = {
AngleInDegrees = 270;
};
}),
(257,321,l,{
"Letterink-NibData" = {
AngleInDegrees = 180;
};
}),
(257,286,l,{
"Letterink-NibData" = {
AngleInDegrees = 97.30576;
};
}),
(336,281,o),
(377,235,o),
(405,196,cs,{
"Letterink-NibData" = {
AngleInDegrees = 143.79054;
};
}),
(450,135,o),
(458,89,o),
(504,27,cs,{
"Letterink-NibData" = {
AngleInDegrees = 143.84181;
};
}),
(523,1,o),
(544,-9,o),
(567,-9,cs,{
"Letterink-NibData" = {
AngleInDegrees = 90;
};
})
);
}
);
width = 649;
},
{
anchors = (
{
name = bottom;
pos = (424,-10);
},
{
name = top;
pos = (407,684);
}
);
hints = (
{
name = _corner.caps_left;
origin = (0,25);
type = Corner;
}
);
layerId = m004;
shapes = (
{
closed = 1;
nodes = (
(691,-27,o),
(735,3,o),
(759,43,c,{
"Letterink-NibData" = {
AngleInDegrees = "330.25512";
};
}),
(667,128,l,{
"Letterink-NibData" = {
AngleInDegrees = "225";
};
}),
(663,124,o),
(661,122,o),
(654,122,cs,{
"Letterink-NibData" = {
AngleInDegrees = "270";
};
}),
(639,122,o),
(627,134,o),
(613,158,cs,{
"Letterink-NibData" = {
AngleInDegrees = "321.54629";
};
}),
(595,190,o),
(595,214,o),
(576,245,cs,{
"Letterink-NibData" = {
AngleInDegrees = "321.07246";
};
}),
(559,272,o),
(544,287,o),
(505,301,c,{
"Letterink-NibData" = {
AngleInDegrees = "90";
};
}),
(521,301,o),
(544,304,o),
(562,309,cs),
(645,332,o),
(690,405,o),
(690,488,cs),
(690,601,o),
(602,684,o),
(464,684,cs,{
"Letterink-NibData" = {
AngleInDegrees = "270";
};
}),
(181,684,l,{
"Letterink-NibData" = {
AngleInDegrees = "180";
};
}),
(177,0,l),
(342,0,l),
(346,536,l),
(433,536,ls,{
"Letterink-NibData" = {
AngleInDegrees = "90";
};
}),
(496,536,o),
(525,513,o),
(525,463,cs,{
"Letterink-NibData" = {
AngleInDegrees = "180";
};
}),
(525,416,o),
(495,389,o),
(429,389,cs,{
"Letterink-NibData" = {
AngleInDegrees = "270";
};
}),
(388,389,l,{
"Letterink-NibData" = {
AngleInDegrees = "180";
};
}),
(388,233,l,{
"Letterink-NibData" = {
AngleInDegrees = "91.4688";
};
}),
(399,233,o),
(421,207,o),
(438,178,cs,{
"Letterink-NibData" = {
AngleInDegrees = "143.88701";
};
}),
(464,134,o),
(495,52,o),
(513,31,cs,{
"Letterink-NibData" = {
AngleInDegrees = "143.47114";
};
}),
(538,1,o),
(574,-27,o),
(644,-27,cs,{
"Letterink-NibData" = {
AngleInDegrees = "90";
};
})
);
}
);
width = 763;
}
);
metricLeft = E;
unicode = 82;
userData = {
position = 619;
width = 57;
};
},
